%TF.GenerationSoftware,KiCad,Pcbnew,9.0.6*%
%TF.CreationDate,2025-11-03T17:15:35-05:00*%
%TF.ProjectId,ReactiveLED-PCB,52656163-7469-4766-954c-45442d504342,rev?*%
%TF.SameCoordinates,Original*%
%TF.FileFunction,Soldermask,Bot*%
%TF.FilePolarity,Negative*%
%FSLAX46Y46*%
G04 Gerber Fmt 4.6, Leading zero omitted, Abs format (unit mm)*
G04 Created by KiCad (PCBNEW 9.0.6) date 2025-11-03 17:15:35*
%MOMM*%
%LPD*%
G01*
G04 APERTURE LIST*
G04 Aperture macros list*
%AMRoundRect*
0 Rectangle with rounded corners*
0 $1 Rounding radius*
0 $2 $3 $4 $5 $6 $7 $8 $9 X,Y pos of 4 corners*
0 Add a 4 corners polygon primitive as box body*
4,1,4,$2,$3,$4,$5,$6,$7,$8,$9,$2,$3,0*
0 Add four circle primitives for the rounded corners*
1,1,$1+$1,$2,$3*
1,1,$1+$1,$4,$5*
1,1,$1+$1,$6,$7*
1,1,$1+$1,$8,$9*
0 Add four rect primitives between the rounded corners*
20,1,$1+$1,$2,$3,$4,$5,0*
20,1,$1+$1,$4,$5,$6,$7,0*
20,1,$1+$1,$6,$7,$8,$9,0*
20,1,$1+$1,$8,$9,$2,$3,0*%
G04 Aperture macros list end*
%ADD10R,1.700000X1.700000*%
%ADD11C,1.700000*%
%ADD12C,2.200000*%
%ADD13C,1.400000*%
%ADD14O,1.200000X2.000000*%
%ADD15R,1.200000X2.000000*%
%ADD16R,3.000000X3.000000*%
%ADD17C,3.000000*%
%ADD18R,2.030000X1.730000*%
%ADD19O,2.030000X1.730000*%
%ADD20O,1.700000X2.000000*%
%ADD21RoundRect,0.250000X-0.600000X-0.750000X0.600000X-0.750000X0.600000X0.750000X-0.600000X0.750000X0*%
%ADD22C,1.200000*%
G04 APERTURE END LIST*
D10*
%TO.C,J1*%
X185000000Y-53420000D03*
D11*
X185000000Y-55960000D03*
X185000000Y-58500000D03*
%TD*%
D12*
%TO.C,REF\u002A\u002A*%
X183500000Y-66500000D03*
%TD*%
%TO.C,REF\u002A\u002A*%
X183000000Y-105000000D03*
%TD*%
%TO.C,REF\u002A\u002A*%
X76500000Y-105000000D03*
%TD*%
D13*
%TO.C,R1*%
X132190000Y-96500000D03*
X139810000Y-96500000D03*
%TD*%
D10*
%TO.C,Mic1*%
X171420000Y-45000000D03*
D11*
X173960000Y-45000000D03*
X176500000Y-45000000D03*
X179040000Y-45000000D03*
X181580000Y-45000000D03*
X184120000Y-45000000D03*
%TD*%
D14*
%TO.C,U1*%
X120403440Y-98200000D03*
X117863440Y-98200000D03*
X115323440Y-98200000D03*
X112783440Y-98200000D03*
X110243440Y-98200000D03*
X107703440Y-98200000D03*
X105163440Y-98200000D03*
X102623440Y-98200000D03*
X100083440Y-98200000D03*
X97543440Y-98200000D03*
X95003440Y-98200000D03*
X92463440Y-98200000D03*
X89923440Y-98200000D03*
X87383440Y-98200000D03*
X84843440Y-98200000D03*
X82303440Y-98200000D03*
X79763440Y-98200000D03*
X77226160Y-98196320D03*
X74686160Y-98196320D03*
X74683440Y-72800000D03*
X77223440Y-72800000D03*
X79763440Y-72800000D03*
X82303440Y-72800000D03*
X84843440Y-72800000D03*
X87383440Y-72800000D03*
X89923440Y-72800000D03*
X92463440Y-72800000D03*
X95003440Y-72800000D03*
X97543440Y-72800000D03*
X100083440Y-72800000D03*
X102623440Y-72800000D03*
X105163440Y-72800000D03*
X107703440Y-72800000D03*
X110243440Y-72800000D03*
X112783440Y-72800000D03*
X115323440Y-72800000D03*
X117863440Y-72800000D03*
D15*
X120403440Y-72800000D03*
%TD*%
D16*
%TO.C,Pot4*%
X87500000Y-50970000D03*
D17*
X82500000Y-50970000D03*
X77500000Y-50970000D03*
%TD*%
%TO.C,Pot1*%
X145000000Y-51500000D03*
X150000000Y-51500000D03*
D16*
X155000000Y-51500000D03*
%TD*%
D17*
%TO.C,Pot3*%
X100500000Y-51000000D03*
X105500000Y-51000000D03*
D16*
X110500000Y-51000000D03*
%TD*%
%TO.C,Pot2*%
X133000000Y-51500000D03*
D17*
X128000000Y-51500000D03*
X123000000Y-51500000D03*
%TD*%
D18*
%TO.C,LED_Strip1*%
X147500000Y-98000000D03*
D19*
X147500000Y-95460000D03*
X147500000Y-92920000D03*
%TD*%
D20*
%TO.C,Battery1*%
X180500000Y-95500000D03*
D21*
X178000000Y-95500000D03*
D22*
X176400000Y-97500000D03*
%TD*%
D12*
%TO.C,REF\u002A\u002A*%
X76000000Y-65500000D03*
%TD*%
M02*
