M48
; DRILL file {KiCad 9.0.6} date 2025-11-03T17:16:45-0500
; FORMAT={3:3/ absolute / metric / suppress leading zeros}
; #@! TF.CreationDate,2025-11-03T17:16:45-05:00
; #@! TF.GenerationSoftware,Kicad,Pcbnew,9.0.6
; #@! TF.FileFunction,MixedPlating,1,2
FMAT,2
METRIC,TZ
; #@! TA.AperFunction,Plated,PTH,ComponentDrill
T1C0.700
; #@! TA.AperFunction,Plated,PTH,ComponentDrill
T2C0.800
; #@! TA.AperFunction,Plated,PTH,ComponentDrill
T3C1.000
; #@! TA.AperFunction,Plated,PTH,ComponentDrill
T4C1.020
; #@! TA.AperFunction,Plated,PTH,ComponentDrill
T5C1.200
; #@! TA.AperFunction,NonPlated,NPTH,ComponentDrill
T6C1.200
; #@! TA.AperFunction,NonPlated,NPTH,ComponentDrill
T7C2.200
%
G90
G05
T1
X132190Y-96500
X139810Y-96500
T2
X74683Y-72800
X74686Y-98196
X77223Y-72800
X77226Y-98196
X79763Y-72800
X79763Y-98200
X82303Y-72800
X82303Y-98200
X84843Y-72800
X84843Y-98200
X87383Y-72800
X87383Y-98200
X89923Y-72800
X89923Y-98200
X92463Y-72800
X92463Y-98200
X95003Y-72800
X95003Y-98200
X97543Y-72800
X97543Y-98200
X100083Y-72800
X100083Y-98200
X102623Y-72800
X102623Y-98200
X105163Y-72800
X105163Y-98200
X107703Y-72800
X107703Y-98200
X110243Y-72800
X110243Y-98200
X112783Y-72800
X112783Y-98200
X115323Y-72800
X115323Y-98200
X117863Y-72800
X117863Y-98200
X120403Y-72800
X120403Y-98200
T3
X171420Y-45000
X173960Y-45000
X176500Y-45000
X178000Y-95500
X179040Y-45000
X180500Y-95500
X181580Y-45000
X184120Y-45000
X185000Y-53420
X185000Y-55960
X185000Y-58500
T4
X147500Y-92920
X147500Y-95460
X147500Y-98000
T5
X77500Y-50970
X82500Y-50970
X87500Y-50970
X100500Y-51000
X105500Y-51000
X110500Y-51000
X123000Y-51500
X128000Y-51500
X133000Y-51500
X145000Y-51500
X150000Y-51500
X155000Y-51500
T6
X176400Y-97500
T7
X76000Y-65500
X76500Y-105000
X183000Y-105000
X183500Y-66500
M30
