%TF.GenerationSoftware,KiCad,Pcbnew,9.0.6*%
%TF.CreationDate,2025-11-03T17:15:34-05:00*%
%TF.ProjectId,ReactiveLED-PCB,52656163-7469-4766-954c-45442d504342,rev?*%
%TF.SameCoordinates,Original*%
%TF.FileFunction,Legend,Bot*%
%TF.FilePolarity,Positive*%
%FSLAX46Y46*%
G04 Gerber Fmt 4.6, Leading zero omitted, Abs format (unit mm)*
G04 Created by KiCad (PCBNEW 9.0.6) date 2025-11-03 17:15:34*
%MOMM*%
%LPD*%
G01*
G04 APERTURE LIST*
G04 Aperture macros list*
%AMRoundRect*
0 Rectangle with rounded corners*
0 $1 Rounding radius*
0 $2 $3 $4 $5 $6 $7 $8 $9 X,Y pos of 4 corners*
0 Add a 4 corners polygon primitive as box body*
4,1,4,$2,$3,$4,$5,$6,$7,$8,$9,$2,$3,0*
0 Add four circle primitives for the rounded corners*
1,1,$1+$1,$2,$3*
1,1,$1+$1,$4,$5*
1,1,$1+$1,$6,$7*
1,1,$1+$1,$8,$9*
0 Add four rect primitives between the rounded corners*
20,1,$1+$1,$2,$3,$4,$5,0*
20,1,$1+$1,$4,$5,$6,$7,0*
20,1,$1+$1,$6,$7,$8,$9,0*
20,1,$1+$1,$8,$9,$2,$3,0*%
G04 Aperture macros list end*
%ADD10C,0.150000*%
%ADD11C,0.120000*%
%ADD12R,1.700000X1.700000*%
%ADD13C,1.700000*%
%ADD14C,2.200000*%
%ADD15C,1.400000*%
%ADD16O,1.200000X2.000000*%
%ADD17R,1.200000X2.000000*%
%ADD18R,3.000000X3.000000*%
%ADD19C,3.000000*%
%ADD20R,2.030000X1.730000*%
%ADD21O,2.030000X1.730000*%
%ADD22O,1.700000X2.000000*%
%ADD23RoundRect,0.250000X-0.600000X-0.750000X0.600000X-0.750000X0.600000X0.750000X-0.600000X0.750000X0*%
%ADD24C,1.200000*%
G04 APERTURE END LIST*
D10*
X169494819Y-43523810D02*
X168494819Y-43523810D01*
X168494819Y-43523810D02*
X169209104Y-43857143D01*
X169209104Y-43857143D02*
X168494819Y-44190476D01*
X168494819Y-44190476D02*
X169494819Y-44190476D01*
X169494819Y-44666667D02*
X168828152Y-44666667D01*
X168494819Y-44666667D02*
X168542438Y-44619048D01*
X168542438Y-44619048D02*
X168590057Y-44666667D01*
X168590057Y-44666667D02*
X168542438Y-44714286D01*
X168542438Y-44714286D02*
X168494819Y-44666667D01*
X168494819Y-44666667D02*
X168590057Y-44666667D01*
X169447200Y-45571428D02*
X169494819Y-45476190D01*
X169494819Y-45476190D02*
X169494819Y-45285714D01*
X169494819Y-45285714D02*
X169447200Y-45190476D01*
X169447200Y-45190476D02*
X169399580Y-45142857D01*
X169399580Y-45142857D02*
X169304342Y-45095238D01*
X169304342Y-45095238D02*
X169018628Y-45095238D01*
X169018628Y-45095238D02*
X168923390Y-45142857D01*
X168923390Y-45142857D02*
X168875771Y-45190476D01*
X168875771Y-45190476D02*
X168828152Y-45285714D01*
X168828152Y-45285714D02*
X168828152Y-45476190D01*
X168828152Y-45476190D02*
X168875771Y-45571428D01*
X169494819Y-46523809D02*
X169494819Y-45952381D01*
X169494819Y-46238095D02*
X168494819Y-46238095D01*
X168494819Y-46238095D02*
X168637676Y-46142857D01*
X168637676Y-46142857D02*
X168732914Y-46047619D01*
X168732914Y-46047619D02*
X168780533Y-45952381D01*
X151354819Y-92238094D02*
X151354819Y-91761904D01*
X151354819Y-91761904D02*
X150354819Y-91761904D01*
X150831009Y-92571428D02*
X150831009Y-92904761D01*
X151354819Y-93047618D02*
X151354819Y-92571428D01*
X151354819Y-92571428D02*
X150354819Y-92571428D01*
X150354819Y-92571428D02*
X150354819Y-93047618D01*
X151354819Y-93476190D02*
X150354819Y-93476190D01*
X150354819Y-93476190D02*
X150354819Y-93714285D01*
X150354819Y-93714285D02*
X150402438Y-93857142D01*
X150402438Y-93857142D02*
X150497676Y-93952380D01*
X150497676Y-93952380D02*
X150592914Y-93999999D01*
X150592914Y-93999999D02*
X150783390Y-94047618D01*
X150783390Y-94047618D02*
X150926247Y-94047618D01*
X150926247Y-94047618D02*
X151116723Y-93999999D01*
X151116723Y-93999999D02*
X151211961Y-93952380D01*
X151211961Y-93952380D02*
X151307200Y-93857142D01*
X151307200Y-93857142D02*
X151354819Y-93714285D01*
X151354819Y-93714285D02*
X151354819Y-93476190D01*
X151450057Y-94238095D02*
X151450057Y-94999999D01*
X151307200Y-95190476D02*
X151354819Y-95333333D01*
X151354819Y-95333333D02*
X151354819Y-95571428D01*
X151354819Y-95571428D02*
X151307200Y-95666666D01*
X151307200Y-95666666D02*
X151259580Y-95714285D01*
X151259580Y-95714285D02*
X151164342Y-95761904D01*
X151164342Y-95761904D02*
X151069104Y-95761904D01*
X151069104Y-95761904D02*
X150973866Y-95714285D01*
X150973866Y-95714285D02*
X150926247Y-95666666D01*
X150926247Y-95666666D02*
X150878628Y-95571428D01*
X150878628Y-95571428D02*
X150831009Y-95380952D01*
X150831009Y-95380952D02*
X150783390Y-95285714D01*
X150783390Y-95285714D02*
X150735771Y-95238095D01*
X150735771Y-95238095D02*
X150640533Y-95190476D01*
X150640533Y-95190476D02*
X150545295Y-95190476D01*
X150545295Y-95190476D02*
X150450057Y-95238095D01*
X150450057Y-95238095D02*
X150402438Y-95285714D01*
X150402438Y-95285714D02*
X150354819Y-95380952D01*
X150354819Y-95380952D02*
X150354819Y-95619047D01*
X150354819Y-95619047D02*
X150402438Y-95761904D01*
X150688152Y-96047619D02*
X150688152Y-96428571D01*
X150354819Y-96190476D02*
X151211961Y-96190476D01*
X151211961Y-96190476D02*
X151307200Y-96238095D01*
X151307200Y-96238095D02*
X151354819Y-96333333D01*
X151354819Y-96333333D02*
X151354819Y-96428571D01*
X151354819Y-96761905D02*
X150688152Y-96761905D01*
X150878628Y-96761905D02*
X150783390Y-96809524D01*
X150783390Y-96809524D02*
X150735771Y-96857143D01*
X150735771Y-96857143D02*
X150688152Y-96952381D01*
X150688152Y-96952381D02*
X150688152Y-97047619D01*
X151354819Y-97380953D02*
X150688152Y-97380953D01*
X150354819Y-97380953D02*
X150402438Y-97333334D01*
X150402438Y-97333334D02*
X150450057Y-97380953D01*
X150450057Y-97380953D02*
X150402438Y-97428572D01*
X150402438Y-97428572D02*
X150354819Y-97380953D01*
X150354819Y-97380953D02*
X150450057Y-97380953D01*
X150688152Y-97857143D02*
X151688152Y-97857143D01*
X150735771Y-97857143D02*
X150688152Y-97952381D01*
X150688152Y-97952381D02*
X150688152Y-98142857D01*
X150688152Y-98142857D02*
X150735771Y-98238095D01*
X150735771Y-98238095D02*
X150783390Y-98285714D01*
X150783390Y-98285714D02*
X150878628Y-98333333D01*
X150878628Y-98333333D02*
X151164342Y-98333333D01*
X151164342Y-98333333D02*
X151259580Y-98285714D01*
X151259580Y-98285714D02*
X151307200Y-98238095D01*
X151307200Y-98238095D02*
X151354819Y-98142857D01*
X151354819Y-98142857D02*
X151354819Y-97952381D01*
X151354819Y-97952381D02*
X151307200Y-97857143D01*
X151354819Y-99285714D02*
X151354819Y-98714286D01*
X151354819Y-99000000D02*
X150354819Y-99000000D01*
X150354819Y-99000000D02*
X150497676Y-98904762D01*
X150497676Y-98904762D02*
X150592914Y-98809524D01*
X150592914Y-98809524D02*
X150640533Y-98714286D01*
D11*
%TO.C,Mic1*%
X170040000Y-43620000D02*
X170040000Y-45000000D01*
X171420000Y-43620000D02*
X170040000Y-43620000D01*
X172690000Y-43620000D02*
X185500000Y-43620000D01*
X172690000Y-43620000D02*
X172690000Y-46380000D01*
X185500000Y-43620000D02*
X185500000Y-46380000D01*
X172690000Y-46380000D02*
X185500000Y-46380000D01*
%TO.C,LED_Strip1*%
X150150000Y-99350000D02*
X150150000Y-91550000D01*
X144100000Y-99350000D02*
X150150000Y-99350000D01*
X145210000Y-98000000D02*
X145210000Y-92920000D01*
X144200000Y-98000000D02*
X145210000Y-98000000D01*
X145210000Y-92920000D02*
X144200000Y-92920000D01*
X150150000Y-91550000D02*
X144100000Y-91550000D01*
X144100000Y-91550000D02*
X144100000Y-99350000D01*
%TD*%
%LPC*%
D12*
%TO.C,J1*%
X185000000Y-53420000D03*
D13*
X185000000Y-55960000D03*
X185000000Y-58500000D03*
%TD*%
D14*
%TO.C,REF\u002A\u002A*%
X183500000Y-66500000D03*
%TD*%
%TO.C,REF\u002A\u002A*%
X183000000Y-105000000D03*
%TD*%
%TO.C,REF\u002A\u002A*%
X76500000Y-105000000D03*
%TD*%
D15*
%TO.C,R1*%
X132190000Y-96500000D03*
X139810000Y-96500000D03*
%TD*%
D12*
%TO.C,Mic1*%
X171420000Y-45000000D03*
D13*
X173960000Y-45000000D03*
X176500000Y-45000000D03*
X179040000Y-45000000D03*
X181580000Y-45000000D03*
X184120000Y-45000000D03*
%TD*%
D16*
%TO.C,U1*%
X120403440Y-98200000D03*
X117863440Y-98200000D03*
X115323440Y-98200000D03*
X112783440Y-98200000D03*
X110243440Y-98200000D03*
X107703440Y-98200000D03*
X105163440Y-98200000D03*
X102623440Y-98200000D03*
X100083440Y-98200000D03*
X97543440Y-98200000D03*
X95003440Y-98200000D03*
X92463440Y-98200000D03*
X89923440Y-98200000D03*
X87383440Y-98200000D03*
X84843440Y-98200000D03*
X82303440Y-98200000D03*
X79763440Y-98200000D03*
X77226160Y-98196320D03*
X74686160Y-98196320D03*
X74683440Y-72800000D03*
X77223440Y-72800000D03*
X79763440Y-72800000D03*
X82303440Y-72800000D03*
X84843440Y-72800000D03*
X87383440Y-72800000D03*
X89923440Y-72800000D03*
X92463440Y-72800000D03*
X95003440Y-72800000D03*
X97543440Y-72800000D03*
X100083440Y-72800000D03*
X102623440Y-72800000D03*
X105163440Y-72800000D03*
X107703440Y-72800000D03*
X110243440Y-72800000D03*
X112783440Y-72800000D03*
X115323440Y-72800000D03*
X117863440Y-72800000D03*
D17*
X120403440Y-72800000D03*
%TD*%
D18*
%TO.C,Pot4*%
X87500000Y-50970000D03*
D19*
X82500000Y-50970000D03*
X77500000Y-50970000D03*
%TD*%
%TO.C,Pot1*%
X145000000Y-51500000D03*
X150000000Y-51500000D03*
D18*
X155000000Y-51500000D03*
%TD*%
D19*
%TO.C,Pot3*%
X100500000Y-51000000D03*
X105500000Y-51000000D03*
D18*
X110500000Y-51000000D03*
%TD*%
%TO.C,Pot2*%
X133000000Y-51500000D03*
D19*
X128000000Y-51500000D03*
X123000000Y-51500000D03*
%TD*%
D20*
%TO.C,LED_Strip1*%
X147500000Y-98000000D03*
D21*
X147500000Y-95460000D03*
X147500000Y-92920000D03*
%TD*%
D22*
%TO.C,Battery1*%
X180500000Y-95500000D03*
D23*
X178000000Y-95500000D03*
D24*
X176400000Y-97500000D03*
%TD*%
D14*
%TO.C,REF\u002A\u002A*%
X76000000Y-65500000D03*
%TD*%
%LPD*%
M02*
