%TF.GenerationSoftware,KiCad,Pcbnew,9.0.6*%
%TF.CreationDate,2025-11-03T17:15:34-05:00*%
%TF.ProjectId,ReactiveLED-PCB,52656163-7469-4766-954c-45442d504342,rev?*%
%TF.SameCoordinates,Original*%
%TF.FileFunction,Legend,Top*%
%TF.FilePolarity,Positive*%
%FSLAX46Y46*%
G04 Gerber Fmt 4.6, Leading zero omitted, Abs format (unit mm)*
G04 Created by KiCad (PCBNEW 9.0.6) date 2025-11-03 17:15:34*
%MOMM*%
%LPD*%
G01*
G04 APERTURE LIST*
G04 Aperture macros list*
%AMRoundRect*
0 Rectangle with rounded corners*
0 $1 Rounding radius*
0 $2 $3 $4 $5 $6 $7 $8 $9 X,Y pos of 4 corners*
0 Add a 4 corners polygon primitive as box body*
4,1,4,$2,$3,$4,$5,$6,$7,$8,$9,$2,$3,0*
0 Add four circle primitives for the rounded corners*
1,1,$1+$1,$2,$3*
1,1,$1+$1,$4,$5*
1,1,$1+$1,$6,$7*
1,1,$1+$1,$8,$9*
0 Add four rect primitives between the rounded corners*
20,1,$1+$1,$2,$3,$4,$5,0*
20,1,$1+$1,$4,$5,$6,$7,0*
20,1,$1+$1,$6,$7,$8,$9,0*
20,1,$1+$1,$8,$9,$2,$3,0*%
G04 Aperture macros list end*
%ADD10C,0.150000*%
%ADD11C,0.120000*%
%ADD12R,1.700000X1.700000*%
%ADD13C,1.700000*%
%ADD14C,2.200000*%
%ADD15C,1.400000*%
%ADD16O,1.200000X2.000000*%
%ADD17R,1.200000X2.000000*%
%ADD18R,3.000000X3.000000*%
%ADD19C,3.000000*%
%ADD20R,2.030000X1.730000*%
%ADD21O,2.030000X1.730000*%
%ADD22O,1.700000X2.000000*%
%ADD23RoundRect,0.250000X-0.600000X-0.750000X0.600000X-0.750000X0.600000X0.750000X-0.600000X0.750000X0*%
%ADD24C,1.200000*%
G04 APERTURE END LIST*
D10*
X184666666Y-50104819D02*
X184666666Y-50819104D01*
X184666666Y-50819104D02*
X184619047Y-50961961D01*
X184619047Y-50961961D02*
X184523809Y-51057200D01*
X184523809Y-51057200D02*
X184380952Y-51104819D01*
X184380952Y-51104819D02*
X184285714Y-51104819D01*
X185666666Y-51104819D02*
X185095238Y-51104819D01*
X185380952Y-51104819D02*
X185380952Y-50104819D01*
X185380952Y-50104819D02*
X185285714Y-50247676D01*
X185285714Y-50247676D02*
X185190476Y-50342914D01*
X185190476Y-50342914D02*
X185095238Y-50390533D01*
X182166666Y-63804819D02*
X181833333Y-63328628D01*
X181595238Y-63804819D02*
X181595238Y-62804819D01*
X181595238Y-62804819D02*
X181976190Y-62804819D01*
X181976190Y-62804819D02*
X182071428Y-62852438D01*
X182071428Y-62852438D02*
X182119047Y-62900057D01*
X182119047Y-62900057D02*
X182166666Y-62995295D01*
X182166666Y-62995295D02*
X182166666Y-63138152D01*
X182166666Y-63138152D02*
X182119047Y-63233390D01*
X182119047Y-63233390D02*
X182071428Y-63281009D01*
X182071428Y-63281009D02*
X181976190Y-63328628D01*
X181976190Y-63328628D02*
X181595238Y-63328628D01*
X182595238Y-63281009D02*
X182928571Y-63281009D01*
X183071428Y-63804819D02*
X182595238Y-63804819D01*
X182595238Y-63804819D02*
X182595238Y-62804819D01*
X182595238Y-62804819D02*
X183071428Y-62804819D01*
X183833333Y-63281009D02*
X183500000Y-63281009D01*
X183500000Y-63804819D02*
X183500000Y-62804819D01*
X183500000Y-62804819D02*
X183976190Y-62804819D01*
X184500000Y-62804819D02*
X184500000Y-63042914D01*
X184261905Y-62947676D02*
X184500000Y-63042914D01*
X184500000Y-63042914D02*
X184738095Y-62947676D01*
X184357143Y-63233390D02*
X184500000Y-63042914D01*
X184500000Y-63042914D02*
X184642857Y-63233390D01*
X185261905Y-62804819D02*
X185261905Y-63042914D01*
X185023810Y-62947676D02*
X185261905Y-63042914D01*
X185261905Y-63042914D02*
X185500000Y-62947676D01*
X185119048Y-63233390D02*
X185261905Y-63042914D01*
X185261905Y-63042914D02*
X185404762Y-63233390D01*
X181666666Y-102304819D02*
X181333333Y-101828628D01*
X181095238Y-102304819D02*
X181095238Y-101304819D01*
X181095238Y-101304819D02*
X181476190Y-101304819D01*
X181476190Y-101304819D02*
X181571428Y-101352438D01*
X181571428Y-101352438D02*
X181619047Y-101400057D01*
X181619047Y-101400057D02*
X181666666Y-101495295D01*
X181666666Y-101495295D02*
X181666666Y-101638152D01*
X181666666Y-101638152D02*
X181619047Y-101733390D01*
X181619047Y-101733390D02*
X181571428Y-101781009D01*
X181571428Y-101781009D02*
X181476190Y-101828628D01*
X181476190Y-101828628D02*
X181095238Y-101828628D01*
X182095238Y-101781009D02*
X182428571Y-101781009D01*
X182571428Y-102304819D02*
X182095238Y-102304819D01*
X182095238Y-102304819D02*
X182095238Y-101304819D01*
X182095238Y-101304819D02*
X182571428Y-101304819D01*
X183333333Y-101781009D02*
X183000000Y-101781009D01*
X183000000Y-102304819D02*
X183000000Y-101304819D01*
X183000000Y-101304819D02*
X183476190Y-101304819D01*
X184000000Y-101304819D02*
X184000000Y-101542914D01*
X183761905Y-101447676D02*
X184000000Y-101542914D01*
X184000000Y-101542914D02*
X184238095Y-101447676D01*
X183857143Y-101733390D02*
X184000000Y-101542914D01*
X184000000Y-101542914D02*
X184142857Y-101733390D01*
X184761905Y-101304819D02*
X184761905Y-101542914D01*
X184523810Y-101447676D02*
X184761905Y-101542914D01*
X184761905Y-101542914D02*
X185000000Y-101447676D01*
X184619048Y-101733390D02*
X184761905Y-101542914D01*
X184761905Y-101542914D02*
X184904762Y-101733390D01*
X75166666Y-102304819D02*
X74833333Y-101828628D01*
X74595238Y-102304819D02*
X74595238Y-101304819D01*
X74595238Y-101304819D02*
X74976190Y-101304819D01*
X74976190Y-101304819D02*
X75071428Y-101352438D01*
X75071428Y-101352438D02*
X75119047Y-101400057D01*
X75119047Y-101400057D02*
X75166666Y-101495295D01*
X75166666Y-101495295D02*
X75166666Y-101638152D01*
X75166666Y-101638152D02*
X75119047Y-101733390D01*
X75119047Y-101733390D02*
X75071428Y-101781009D01*
X75071428Y-101781009D02*
X74976190Y-101828628D01*
X74976190Y-101828628D02*
X74595238Y-101828628D01*
X75595238Y-101781009D02*
X75928571Y-101781009D01*
X76071428Y-102304819D02*
X75595238Y-102304819D01*
X75595238Y-102304819D02*
X75595238Y-101304819D01*
X75595238Y-101304819D02*
X76071428Y-101304819D01*
X76833333Y-101781009D02*
X76500000Y-101781009D01*
X76500000Y-102304819D02*
X76500000Y-101304819D01*
X76500000Y-101304819D02*
X76976190Y-101304819D01*
X77500000Y-101304819D02*
X77500000Y-101542914D01*
X77261905Y-101447676D02*
X77500000Y-101542914D01*
X77500000Y-101542914D02*
X77738095Y-101447676D01*
X77357143Y-101733390D02*
X77500000Y-101542914D01*
X77500000Y-101542914D02*
X77642857Y-101733390D01*
X78261905Y-101304819D02*
X78261905Y-101542914D01*
X78023810Y-101447676D02*
X78261905Y-101542914D01*
X78261905Y-101542914D02*
X78500000Y-101447676D01*
X78119048Y-101733390D02*
X78261905Y-101542914D01*
X78261905Y-101542914D02*
X78404762Y-101733390D01*
X135833333Y-95034819D02*
X135500000Y-94558628D01*
X135261905Y-95034819D02*
X135261905Y-94034819D01*
X135261905Y-94034819D02*
X135642857Y-94034819D01*
X135642857Y-94034819D02*
X135738095Y-94082438D01*
X135738095Y-94082438D02*
X135785714Y-94130057D01*
X135785714Y-94130057D02*
X135833333Y-94225295D01*
X135833333Y-94225295D02*
X135833333Y-94368152D01*
X135833333Y-94368152D02*
X135785714Y-94463390D01*
X135785714Y-94463390D02*
X135738095Y-94511009D01*
X135738095Y-94511009D02*
X135642857Y-94558628D01*
X135642857Y-94558628D02*
X135261905Y-94558628D01*
X136785714Y-95034819D02*
X136214286Y-95034819D01*
X136500000Y-95034819D02*
X136500000Y-94034819D01*
X136500000Y-94034819D02*
X136404762Y-94177676D01*
X136404762Y-94177676D02*
X136309524Y-94272914D01*
X136309524Y-94272914D02*
X136214286Y-94320533D01*
X121958259Y-86261904D02*
X122767782Y-86261904D01*
X122767782Y-86261904D02*
X122863020Y-86214285D01*
X122863020Y-86214285D02*
X122910640Y-86166666D01*
X122910640Y-86166666D02*
X122958259Y-86071428D01*
X122958259Y-86071428D02*
X122958259Y-85880952D01*
X122958259Y-85880952D02*
X122910640Y-85785714D01*
X122910640Y-85785714D02*
X122863020Y-85738095D01*
X122863020Y-85738095D02*
X122767782Y-85690476D01*
X122767782Y-85690476D02*
X121958259Y-85690476D01*
X122958259Y-84690476D02*
X122958259Y-85261904D01*
X122958259Y-84976190D02*
X121958259Y-84976190D01*
X121958259Y-84976190D02*
X122101116Y-85071428D01*
X122101116Y-85071428D02*
X122196354Y-85166666D01*
X122196354Y-85166666D02*
X122243973Y-85261904D01*
X90678202Y-85431009D02*
X91011535Y-85431009D01*
X91154392Y-85954819D02*
X90678202Y-85954819D01*
X90678202Y-85954819D02*
X90678202Y-84954819D01*
X90678202Y-84954819D02*
X91154392Y-84954819D01*
X91535345Y-85907200D02*
X91678202Y-85954819D01*
X91678202Y-85954819D02*
X91916297Y-85954819D01*
X91916297Y-85954819D02*
X92011535Y-85907200D01*
X92011535Y-85907200D02*
X92059154Y-85859580D01*
X92059154Y-85859580D02*
X92106773Y-85764342D01*
X92106773Y-85764342D02*
X92106773Y-85669104D01*
X92106773Y-85669104D02*
X92059154Y-85573866D01*
X92059154Y-85573866D02*
X92011535Y-85526247D01*
X92011535Y-85526247D02*
X91916297Y-85478628D01*
X91916297Y-85478628D02*
X91725821Y-85431009D01*
X91725821Y-85431009D02*
X91630583Y-85383390D01*
X91630583Y-85383390D02*
X91582964Y-85335771D01*
X91582964Y-85335771D02*
X91535345Y-85240533D01*
X91535345Y-85240533D02*
X91535345Y-85145295D01*
X91535345Y-85145295D02*
X91582964Y-85050057D01*
X91582964Y-85050057D02*
X91630583Y-85002438D01*
X91630583Y-85002438D02*
X91725821Y-84954819D01*
X91725821Y-84954819D02*
X91963916Y-84954819D01*
X91963916Y-84954819D02*
X92106773Y-85002438D01*
X92535345Y-85954819D02*
X92535345Y-84954819D01*
X92535345Y-84954819D02*
X92916297Y-84954819D01*
X92916297Y-84954819D02*
X93011535Y-85002438D01*
X93011535Y-85002438D02*
X93059154Y-85050057D01*
X93059154Y-85050057D02*
X93106773Y-85145295D01*
X93106773Y-85145295D02*
X93106773Y-85288152D01*
X93106773Y-85288152D02*
X93059154Y-85383390D01*
X93059154Y-85383390D02*
X93011535Y-85431009D01*
X93011535Y-85431009D02*
X92916297Y-85478628D01*
X92916297Y-85478628D02*
X92535345Y-85478628D01*
X93440107Y-84954819D02*
X94059154Y-84954819D01*
X94059154Y-84954819D02*
X93725821Y-85335771D01*
X93725821Y-85335771D02*
X93868678Y-85335771D01*
X93868678Y-85335771D02*
X93963916Y-85383390D01*
X93963916Y-85383390D02*
X94011535Y-85431009D01*
X94011535Y-85431009D02*
X94059154Y-85526247D01*
X94059154Y-85526247D02*
X94059154Y-85764342D01*
X94059154Y-85764342D02*
X94011535Y-85859580D01*
X94011535Y-85859580D02*
X93963916Y-85907200D01*
X93963916Y-85907200D02*
X93868678Y-85954819D01*
X93868678Y-85954819D02*
X93582964Y-85954819D01*
X93582964Y-85954819D02*
X93487726Y-85907200D01*
X93487726Y-85907200D02*
X93440107Y-85859580D01*
X94440107Y-85050057D02*
X94487726Y-85002438D01*
X94487726Y-85002438D02*
X94582964Y-84954819D01*
X94582964Y-84954819D02*
X94821059Y-84954819D01*
X94821059Y-84954819D02*
X94916297Y-85002438D01*
X94916297Y-85002438D02*
X94963916Y-85050057D01*
X94963916Y-85050057D02*
X95011535Y-85145295D01*
X95011535Y-85145295D02*
X95011535Y-85240533D01*
X95011535Y-85240533D02*
X94963916Y-85383390D01*
X94963916Y-85383390D02*
X94392488Y-85954819D01*
X94392488Y-85954819D02*
X95011535Y-85954819D01*
X95440107Y-85573866D02*
X96202012Y-85573866D01*
X96678202Y-85954819D02*
X96678202Y-84954819D01*
X96678202Y-84954819D02*
X96916297Y-84954819D01*
X96916297Y-84954819D02*
X97059154Y-85002438D01*
X97059154Y-85002438D02*
X97154392Y-85097676D01*
X97154392Y-85097676D02*
X97202011Y-85192914D01*
X97202011Y-85192914D02*
X97249630Y-85383390D01*
X97249630Y-85383390D02*
X97249630Y-85526247D01*
X97249630Y-85526247D02*
X97202011Y-85716723D01*
X97202011Y-85716723D02*
X97154392Y-85811961D01*
X97154392Y-85811961D02*
X97059154Y-85907200D01*
X97059154Y-85907200D02*
X96916297Y-85954819D01*
X96916297Y-85954819D02*
X96678202Y-85954819D01*
X98059154Y-85907200D02*
X97963916Y-85954819D01*
X97963916Y-85954819D02*
X97773440Y-85954819D01*
X97773440Y-85954819D02*
X97678202Y-85907200D01*
X97678202Y-85907200D02*
X97630583Y-85811961D01*
X97630583Y-85811961D02*
X97630583Y-85431009D01*
X97630583Y-85431009D02*
X97678202Y-85335771D01*
X97678202Y-85335771D02*
X97773440Y-85288152D01*
X97773440Y-85288152D02*
X97963916Y-85288152D01*
X97963916Y-85288152D02*
X98059154Y-85335771D01*
X98059154Y-85335771D02*
X98106773Y-85431009D01*
X98106773Y-85431009D02*
X98106773Y-85526247D01*
X98106773Y-85526247D02*
X97630583Y-85621485D01*
X98440107Y-85288152D02*
X98678202Y-85954819D01*
X98678202Y-85954819D02*
X98916297Y-85288152D01*
X99297250Y-85954819D02*
X99297250Y-84954819D01*
X99868678Y-85954819D02*
X99440107Y-85383390D01*
X99868678Y-84954819D02*
X99297250Y-85526247D01*
X100297250Y-85954819D02*
X100297250Y-85288152D01*
X100297250Y-84954819D02*
X100249631Y-85002438D01*
X100249631Y-85002438D02*
X100297250Y-85050057D01*
X100297250Y-85050057D02*
X100344869Y-85002438D01*
X100344869Y-85002438D02*
X100297250Y-84954819D01*
X100297250Y-84954819D02*
X100297250Y-85050057D01*
X100630583Y-85288152D02*
X101011535Y-85288152D01*
X100773440Y-84954819D02*
X100773440Y-85811961D01*
X100773440Y-85811961D02*
X100821059Y-85907200D01*
X100821059Y-85907200D02*
X100916297Y-85954819D01*
X100916297Y-85954819D02*
X101011535Y-85954819D01*
X101916297Y-85859580D02*
X101868678Y-85907200D01*
X101868678Y-85907200D02*
X101725821Y-85954819D01*
X101725821Y-85954819D02*
X101630583Y-85954819D01*
X101630583Y-85954819D02*
X101487726Y-85907200D01*
X101487726Y-85907200D02*
X101392488Y-85811961D01*
X101392488Y-85811961D02*
X101344869Y-85716723D01*
X101344869Y-85716723D02*
X101297250Y-85526247D01*
X101297250Y-85526247D02*
X101297250Y-85383390D01*
X101297250Y-85383390D02*
X101344869Y-85192914D01*
X101344869Y-85192914D02*
X101392488Y-85097676D01*
X101392488Y-85097676D02*
X101487726Y-85002438D01*
X101487726Y-85002438D02*
X101630583Y-84954819D01*
X101630583Y-84954819D02*
X101725821Y-84954819D01*
X101725821Y-84954819D02*
X101868678Y-85002438D01*
X101868678Y-85002438D02*
X101916297Y-85050057D01*
X87734073Y-94231316D02*
X87767406Y-94164649D01*
X87767406Y-94164649D02*
X87767406Y-94064649D01*
X87767406Y-94064649D02*
X87734073Y-93964649D01*
X87734073Y-93964649D02*
X87667406Y-93897983D01*
X87667406Y-93897983D02*
X87600740Y-93864649D01*
X87600740Y-93864649D02*
X87467406Y-93831316D01*
X87467406Y-93831316D02*
X87367406Y-93831316D01*
X87367406Y-93831316D02*
X87234073Y-93864649D01*
X87234073Y-93864649D02*
X87167406Y-93897983D01*
X87167406Y-93897983D02*
X87100740Y-93964649D01*
X87100740Y-93964649D02*
X87067406Y-94064649D01*
X87067406Y-94064649D02*
X87067406Y-94131316D01*
X87067406Y-94131316D02*
X87100740Y-94231316D01*
X87100740Y-94231316D02*
X87134073Y-94264649D01*
X87134073Y-94264649D02*
X87367406Y-94264649D01*
X87367406Y-94264649D02*
X87367406Y-94131316D01*
X87067406Y-94564649D02*
X87767406Y-94564649D01*
X87767406Y-94564649D02*
X87767406Y-94831316D01*
X87767406Y-94831316D02*
X87734073Y-94897983D01*
X87734073Y-94897983D02*
X87700740Y-94931316D01*
X87700740Y-94931316D02*
X87634073Y-94964649D01*
X87634073Y-94964649D02*
X87534073Y-94964649D01*
X87534073Y-94964649D02*
X87467406Y-94931316D01*
X87467406Y-94931316D02*
X87434073Y-94897983D01*
X87434073Y-94897983D02*
X87400740Y-94831316D01*
X87400740Y-94831316D02*
X87400740Y-94564649D01*
X87067406Y-95264649D02*
X87767406Y-95264649D01*
X87767406Y-95731316D02*
X87767406Y-95864649D01*
X87767406Y-95864649D02*
X87734073Y-95931316D01*
X87734073Y-95931316D02*
X87667406Y-95997982D01*
X87667406Y-95997982D02*
X87534073Y-96031316D01*
X87534073Y-96031316D02*
X87300740Y-96031316D01*
X87300740Y-96031316D02*
X87167406Y-95997982D01*
X87167406Y-95997982D02*
X87100740Y-95931316D01*
X87100740Y-95931316D02*
X87067406Y-95864649D01*
X87067406Y-95864649D02*
X87067406Y-95731316D01*
X87067406Y-95731316D02*
X87100740Y-95664649D01*
X87100740Y-95664649D02*
X87167406Y-95597982D01*
X87167406Y-95597982D02*
X87300740Y-95564649D01*
X87300740Y-95564649D02*
X87534073Y-95564649D01*
X87534073Y-95564649D02*
X87667406Y-95597982D01*
X87667406Y-95597982D02*
X87734073Y-95664649D01*
X87734073Y-95664649D02*
X87767406Y-95731316D01*
X87767406Y-96464649D02*
X87767406Y-96531315D01*
X87767406Y-96531315D02*
X87734073Y-96597982D01*
X87734073Y-96597982D02*
X87700740Y-96631315D01*
X87700740Y-96631315D02*
X87634073Y-96664649D01*
X87634073Y-96664649D02*
X87500740Y-96697982D01*
X87500740Y-96697982D02*
X87334073Y-96697982D01*
X87334073Y-96697982D02*
X87200740Y-96664649D01*
X87200740Y-96664649D02*
X87134073Y-96631315D01*
X87134073Y-96631315D02*
X87100740Y-96597982D01*
X87100740Y-96597982D02*
X87067406Y-96531315D01*
X87067406Y-96531315D02*
X87067406Y-96464649D01*
X87067406Y-96464649D02*
X87100740Y-96397982D01*
X87100740Y-96397982D02*
X87134073Y-96364649D01*
X87134073Y-96364649D02*
X87200740Y-96331315D01*
X87200740Y-96331315D02*
X87334073Y-96297982D01*
X87334073Y-96297982D02*
X87500740Y-96297982D01*
X87500740Y-96297982D02*
X87634073Y-96331315D01*
X87634073Y-96331315D02*
X87700740Y-96364649D01*
X87700740Y-96364649D02*
X87734073Y-96397982D01*
X87734073Y-96397982D02*
X87767406Y-96464649D01*
X92814073Y-74702017D02*
X92847406Y-74635350D01*
X92847406Y-74635350D02*
X92847406Y-74535350D01*
X92847406Y-74535350D02*
X92814073Y-74435350D01*
X92814073Y-74435350D02*
X92747406Y-74368684D01*
X92747406Y-74368684D02*
X92680740Y-74335350D01*
X92680740Y-74335350D02*
X92547406Y-74302017D01*
X92547406Y-74302017D02*
X92447406Y-74302017D01*
X92447406Y-74302017D02*
X92314073Y-74335350D01*
X92314073Y-74335350D02*
X92247406Y-74368684D01*
X92247406Y-74368684D02*
X92180740Y-74435350D01*
X92180740Y-74435350D02*
X92147406Y-74535350D01*
X92147406Y-74535350D02*
X92147406Y-74602017D01*
X92147406Y-74602017D02*
X92180740Y-74702017D01*
X92180740Y-74702017D02*
X92214073Y-74735350D01*
X92214073Y-74735350D02*
X92447406Y-74735350D01*
X92447406Y-74735350D02*
X92447406Y-74602017D01*
X92147406Y-75035350D02*
X92847406Y-75035350D01*
X92847406Y-75035350D02*
X92847406Y-75302017D01*
X92847406Y-75302017D02*
X92814073Y-75368684D01*
X92814073Y-75368684D02*
X92780740Y-75402017D01*
X92780740Y-75402017D02*
X92714073Y-75435350D01*
X92714073Y-75435350D02*
X92614073Y-75435350D01*
X92614073Y-75435350D02*
X92547406Y-75402017D01*
X92547406Y-75402017D02*
X92514073Y-75368684D01*
X92514073Y-75368684D02*
X92480740Y-75302017D01*
X92480740Y-75302017D02*
X92480740Y-75035350D01*
X92147406Y-75735350D02*
X92847406Y-75735350D01*
X92847406Y-76202017D02*
X92847406Y-76335350D01*
X92847406Y-76335350D02*
X92814073Y-76402017D01*
X92814073Y-76402017D02*
X92747406Y-76468683D01*
X92747406Y-76468683D02*
X92614073Y-76502017D01*
X92614073Y-76502017D02*
X92380740Y-76502017D01*
X92380740Y-76502017D02*
X92247406Y-76468683D01*
X92247406Y-76468683D02*
X92180740Y-76402017D01*
X92180740Y-76402017D02*
X92147406Y-76335350D01*
X92147406Y-76335350D02*
X92147406Y-76202017D01*
X92147406Y-76202017D02*
X92180740Y-76135350D01*
X92180740Y-76135350D02*
X92247406Y-76068683D01*
X92247406Y-76068683D02*
X92380740Y-76035350D01*
X92380740Y-76035350D02*
X92614073Y-76035350D01*
X92614073Y-76035350D02*
X92747406Y-76068683D01*
X92747406Y-76068683D02*
X92814073Y-76135350D01*
X92814073Y-76135350D02*
X92847406Y-76202017D01*
X92147406Y-77168683D02*
X92147406Y-76768683D01*
X92147406Y-76968683D02*
X92847406Y-76968683D01*
X92847406Y-76968683D02*
X92747406Y-76902016D01*
X92747406Y-76902016D02*
X92680740Y-76835350D01*
X92680740Y-76835350D02*
X92647406Y-76768683D01*
X92614073Y-77768683D02*
X92147406Y-77768683D01*
X92880740Y-77602017D02*
X92380740Y-77435350D01*
X92380740Y-77435350D02*
X92380740Y-77868683D01*
X92880740Y-78635350D02*
X91980740Y-78035350D01*
X92147406Y-78868683D02*
X92847406Y-78868683D01*
X92847406Y-78868683D02*
X92347406Y-79102017D01*
X92347406Y-79102017D02*
X92847406Y-79335350D01*
X92847406Y-79335350D02*
X92147406Y-79335350D01*
X92847406Y-79568683D02*
X92847406Y-79968683D01*
X92147406Y-79768683D02*
X92847406Y-79768683D01*
X92147406Y-80202016D02*
X92847406Y-80202016D01*
X92847406Y-80202016D02*
X92347406Y-80435350D01*
X92347406Y-80435350D02*
X92847406Y-80668683D01*
X92847406Y-80668683D02*
X92147406Y-80668683D01*
X92180740Y-80968683D02*
X92147406Y-81068683D01*
X92147406Y-81068683D02*
X92147406Y-81235350D01*
X92147406Y-81235350D02*
X92180740Y-81302016D01*
X92180740Y-81302016D02*
X92214073Y-81335350D01*
X92214073Y-81335350D02*
X92280740Y-81368683D01*
X92280740Y-81368683D02*
X92347406Y-81368683D01*
X92347406Y-81368683D02*
X92414073Y-81335350D01*
X92414073Y-81335350D02*
X92447406Y-81302016D01*
X92447406Y-81302016D02*
X92480740Y-81235350D01*
X92480740Y-81235350D02*
X92514073Y-81102016D01*
X92514073Y-81102016D02*
X92547406Y-81035350D01*
X92547406Y-81035350D02*
X92580740Y-81002016D01*
X92580740Y-81002016D02*
X92647406Y-80968683D01*
X92647406Y-80968683D02*
X92714073Y-80968683D01*
X92714073Y-80968683D02*
X92780740Y-81002016D01*
X92780740Y-81002016D02*
X92814073Y-81035350D01*
X92814073Y-81035350D02*
X92847406Y-81102016D01*
X92847406Y-81102016D02*
X92847406Y-81268683D01*
X92847406Y-81268683D02*
X92814073Y-81368683D01*
X100434073Y-93564649D02*
X100467406Y-93497982D01*
X100467406Y-93497982D02*
X100467406Y-93397982D01*
X100467406Y-93397982D02*
X100434073Y-93297982D01*
X100434073Y-93297982D02*
X100367406Y-93231316D01*
X100367406Y-93231316D02*
X100300740Y-93197982D01*
X100300740Y-93197982D02*
X100167406Y-93164649D01*
X100167406Y-93164649D02*
X100067406Y-93164649D01*
X100067406Y-93164649D02*
X99934073Y-93197982D01*
X99934073Y-93197982D02*
X99867406Y-93231316D01*
X99867406Y-93231316D02*
X99800740Y-93297982D01*
X99800740Y-93297982D02*
X99767406Y-93397982D01*
X99767406Y-93397982D02*
X99767406Y-93464649D01*
X99767406Y-93464649D02*
X99800740Y-93564649D01*
X99800740Y-93564649D02*
X99834073Y-93597982D01*
X99834073Y-93597982D02*
X100067406Y-93597982D01*
X100067406Y-93597982D02*
X100067406Y-93464649D01*
X99767406Y-93897982D02*
X100467406Y-93897982D01*
X100467406Y-93897982D02*
X100467406Y-94164649D01*
X100467406Y-94164649D02*
X100434073Y-94231316D01*
X100434073Y-94231316D02*
X100400740Y-94264649D01*
X100400740Y-94264649D02*
X100334073Y-94297982D01*
X100334073Y-94297982D02*
X100234073Y-94297982D01*
X100234073Y-94297982D02*
X100167406Y-94264649D01*
X100167406Y-94264649D02*
X100134073Y-94231316D01*
X100134073Y-94231316D02*
X100100740Y-94164649D01*
X100100740Y-94164649D02*
X100100740Y-93897982D01*
X99767406Y-94597982D02*
X100467406Y-94597982D01*
X100467406Y-95064649D02*
X100467406Y-95197982D01*
X100467406Y-95197982D02*
X100434073Y-95264649D01*
X100434073Y-95264649D02*
X100367406Y-95331315D01*
X100367406Y-95331315D02*
X100234073Y-95364649D01*
X100234073Y-95364649D02*
X100000740Y-95364649D01*
X100000740Y-95364649D02*
X99867406Y-95331315D01*
X99867406Y-95331315D02*
X99800740Y-95264649D01*
X99800740Y-95264649D02*
X99767406Y-95197982D01*
X99767406Y-95197982D02*
X99767406Y-95064649D01*
X99767406Y-95064649D02*
X99800740Y-94997982D01*
X99800740Y-94997982D02*
X99867406Y-94931315D01*
X99867406Y-94931315D02*
X100000740Y-94897982D01*
X100000740Y-94897982D02*
X100234073Y-94897982D01*
X100234073Y-94897982D02*
X100367406Y-94931315D01*
X100367406Y-94931315D02*
X100434073Y-94997982D01*
X100434073Y-94997982D02*
X100467406Y-95064649D01*
X99767406Y-96031315D02*
X99767406Y-95631315D01*
X99767406Y-95831315D02*
X100467406Y-95831315D01*
X100467406Y-95831315D02*
X100367406Y-95764648D01*
X100367406Y-95764648D02*
X100300740Y-95697982D01*
X100300740Y-95697982D02*
X100267406Y-95631315D01*
X100167406Y-96431315D02*
X100200740Y-96364649D01*
X100200740Y-96364649D02*
X100234073Y-96331315D01*
X100234073Y-96331315D02*
X100300740Y-96297982D01*
X100300740Y-96297982D02*
X100334073Y-96297982D01*
X100334073Y-96297982D02*
X100400740Y-96331315D01*
X100400740Y-96331315D02*
X100434073Y-96364649D01*
X100434073Y-96364649D02*
X100467406Y-96431315D01*
X100467406Y-96431315D02*
X100467406Y-96564649D01*
X100467406Y-96564649D02*
X100434073Y-96631315D01*
X100434073Y-96631315D02*
X100400740Y-96664649D01*
X100400740Y-96664649D02*
X100334073Y-96697982D01*
X100334073Y-96697982D02*
X100300740Y-96697982D01*
X100300740Y-96697982D02*
X100234073Y-96664649D01*
X100234073Y-96664649D02*
X100200740Y-96631315D01*
X100200740Y-96631315D02*
X100167406Y-96564649D01*
X100167406Y-96564649D02*
X100167406Y-96431315D01*
X100167406Y-96431315D02*
X100134073Y-96364649D01*
X100134073Y-96364649D02*
X100100740Y-96331315D01*
X100100740Y-96331315D02*
X100034073Y-96297982D01*
X100034073Y-96297982D02*
X99900740Y-96297982D01*
X99900740Y-96297982D02*
X99834073Y-96331315D01*
X99834073Y-96331315D02*
X99800740Y-96364649D01*
X99800740Y-96364649D02*
X99767406Y-96431315D01*
X99767406Y-96431315D02*
X99767406Y-96564649D01*
X99767406Y-96564649D02*
X99800740Y-96631315D01*
X99800740Y-96631315D02*
X99834073Y-96664649D01*
X99834073Y-96664649D02*
X99900740Y-96697982D01*
X99900740Y-96697982D02*
X100034073Y-96697982D01*
X100034073Y-96697982D02*
X100100740Y-96664649D01*
X100100740Y-96664649D02*
X100134073Y-96631315D01*
X100134073Y-96631315D02*
X100167406Y-96564649D01*
X76974073Y-74735350D02*
X76940740Y-74702017D01*
X76940740Y-74702017D02*
X76907406Y-74602017D01*
X76907406Y-74602017D02*
X76907406Y-74535350D01*
X76907406Y-74535350D02*
X76940740Y-74435350D01*
X76940740Y-74435350D02*
X77007406Y-74368684D01*
X77007406Y-74368684D02*
X77074073Y-74335350D01*
X77074073Y-74335350D02*
X77207406Y-74302017D01*
X77207406Y-74302017D02*
X77307406Y-74302017D01*
X77307406Y-74302017D02*
X77440740Y-74335350D01*
X77440740Y-74335350D02*
X77507406Y-74368684D01*
X77507406Y-74368684D02*
X77574073Y-74435350D01*
X77574073Y-74435350D02*
X77607406Y-74535350D01*
X77607406Y-74535350D02*
X77607406Y-74602017D01*
X77607406Y-74602017D02*
X77574073Y-74702017D01*
X77574073Y-74702017D02*
X77540740Y-74735350D01*
X76907406Y-75035350D02*
X77607406Y-75035350D01*
X77607406Y-75035350D02*
X77107406Y-75268684D01*
X77107406Y-75268684D02*
X77607406Y-75502017D01*
X77607406Y-75502017D02*
X76907406Y-75502017D01*
X76907406Y-75835350D02*
X77607406Y-75835350D01*
X77607406Y-75835350D02*
X77607406Y-76002017D01*
X77607406Y-76002017D02*
X77574073Y-76102017D01*
X77574073Y-76102017D02*
X77507406Y-76168684D01*
X77507406Y-76168684D02*
X77440740Y-76202017D01*
X77440740Y-76202017D02*
X77307406Y-76235350D01*
X77307406Y-76235350D02*
X77207406Y-76235350D01*
X77207406Y-76235350D02*
X77074073Y-76202017D01*
X77074073Y-76202017D02*
X77007406Y-76168684D01*
X77007406Y-76168684D02*
X76940740Y-76102017D01*
X76940740Y-76102017D02*
X76907406Y-76002017D01*
X76907406Y-76002017D02*
X76907406Y-75835350D01*
X97894073Y-74702017D02*
X97927406Y-74635350D01*
X97927406Y-74635350D02*
X97927406Y-74535350D01*
X97927406Y-74535350D02*
X97894073Y-74435350D01*
X97894073Y-74435350D02*
X97827406Y-74368684D01*
X97827406Y-74368684D02*
X97760740Y-74335350D01*
X97760740Y-74335350D02*
X97627406Y-74302017D01*
X97627406Y-74302017D02*
X97527406Y-74302017D01*
X97527406Y-74302017D02*
X97394073Y-74335350D01*
X97394073Y-74335350D02*
X97327406Y-74368684D01*
X97327406Y-74368684D02*
X97260740Y-74435350D01*
X97260740Y-74435350D02*
X97227406Y-74535350D01*
X97227406Y-74535350D02*
X97227406Y-74602017D01*
X97227406Y-74602017D02*
X97260740Y-74702017D01*
X97260740Y-74702017D02*
X97294073Y-74735350D01*
X97294073Y-74735350D02*
X97527406Y-74735350D01*
X97527406Y-74735350D02*
X97527406Y-74602017D01*
X97227406Y-75035350D02*
X97927406Y-75035350D01*
X97927406Y-75035350D02*
X97927406Y-75302017D01*
X97927406Y-75302017D02*
X97894073Y-75368684D01*
X97894073Y-75368684D02*
X97860740Y-75402017D01*
X97860740Y-75402017D02*
X97794073Y-75435350D01*
X97794073Y-75435350D02*
X97694073Y-75435350D01*
X97694073Y-75435350D02*
X97627406Y-75402017D01*
X97627406Y-75402017D02*
X97594073Y-75368684D01*
X97594073Y-75368684D02*
X97560740Y-75302017D01*
X97560740Y-75302017D02*
X97560740Y-75035350D01*
X97227406Y-75735350D02*
X97927406Y-75735350D01*
X97927406Y-76202017D02*
X97927406Y-76335350D01*
X97927406Y-76335350D02*
X97894073Y-76402017D01*
X97894073Y-76402017D02*
X97827406Y-76468683D01*
X97827406Y-76468683D02*
X97694073Y-76502017D01*
X97694073Y-76502017D02*
X97460740Y-76502017D01*
X97460740Y-76502017D02*
X97327406Y-76468683D01*
X97327406Y-76468683D02*
X97260740Y-76402017D01*
X97260740Y-76402017D02*
X97227406Y-76335350D01*
X97227406Y-76335350D02*
X97227406Y-76202017D01*
X97227406Y-76202017D02*
X97260740Y-76135350D01*
X97260740Y-76135350D02*
X97327406Y-76068683D01*
X97327406Y-76068683D02*
X97460740Y-76035350D01*
X97460740Y-76035350D02*
X97694073Y-76035350D01*
X97694073Y-76035350D02*
X97827406Y-76068683D01*
X97827406Y-76068683D02*
X97894073Y-76135350D01*
X97894073Y-76135350D02*
X97927406Y-76202017D01*
X97860740Y-76768683D02*
X97894073Y-76802016D01*
X97894073Y-76802016D02*
X97927406Y-76868683D01*
X97927406Y-76868683D02*
X97927406Y-77035350D01*
X97927406Y-77035350D02*
X97894073Y-77102016D01*
X97894073Y-77102016D02*
X97860740Y-77135350D01*
X97860740Y-77135350D02*
X97794073Y-77168683D01*
X97794073Y-77168683D02*
X97727406Y-77168683D01*
X97727406Y-77168683D02*
X97627406Y-77135350D01*
X97627406Y-77135350D02*
X97227406Y-76735350D01*
X97227406Y-76735350D02*
X97227406Y-77168683D01*
X97927406Y-77768683D02*
X97927406Y-77635350D01*
X97927406Y-77635350D02*
X97894073Y-77568683D01*
X97894073Y-77568683D02*
X97860740Y-77535350D01*
X97860740Y-77535350D02*
X97760740Y-77468683D01*
X97760740Y-77468683D02*
X97627406Y-77435350D01*
X97627406Y-77435350D02*
X97360740Y-77435350D01*
X97360740Y-77435350D02*
X97294073Y-77468683D01*
X97294073Y-77468683D02*
X97260740Y-77502017D01*
X97260740Y-77502017D02*
X97227406Y-77568683D01*
X97227406Y-77568683D02*
X97227406Y-77702017D01*
X97227406Y-77702017D02*
X97260740Y-77768683D01*
X97260740Y-77768683D02*
X97294073Y-77802017D01*
X97294073Y-77802017D02*
X97360740Y-77835350D01*
X97360740Y-77835350D02*
X97527406Y-77835350D01*
X97527406Y-77835350D02*
X97594073Y-77802017D01*
X97594073Y-77802017D02*
X97627406Y-77768683D01*
X97627406Y-77768683D02*
X97660740Y-77702017D01*
X97660740Y-77702017D02*
X97660740Y-77568683D01*
X97660740Y-77568683D02*
X97627406Y-77502017D01*
X97627406Y-77502017D02*
X97594073Y-77468683D01*
X97594073Y-77468683D02*
X97527406Y-77435350D01*
X110594073Y-90031316D02*
X110627406Y-89964649D01*
X110627406Y-89964649D02*
X110627406Y-89864649D01*
X110627406Y-89864649D02*
X110594073Y-89764649D01*
X110594073Y-89764649D02*
X110527406Y-89697983D01*
X110527406Y-89697983D02*
X110460740Y-89664649D01*
X110460740Y-89664649D02*
X110327406Y-89631316D01*
X110327406Y-89631316D02*
X110227406Y-89631316D01*
X110227406Y-89631316D02*
X110094073Y-89664649D01*
X110094073Y-89664649D02*
X110027406Y-89697983D01*
X110027406Y-89697983D02*
X109960740Y-89764649D01*
X109960740Y-89764649D02*
X109927406Y-89864649D01*
X109927406Y-89864649D02*
X109927406Y-89931316D01*
X109927406Y-89931316D02*
X109960740Y-90031316D01*
X109960740Y-90031316D02*
X109994073Y-90064649D01*
X109994073Y-90064649D02*
X110227406Y-90064649D01*
X110227406Y-90064649D02*
X110227406Y-89931316D01*
X109927406Y-90364649D02*
X110627406Y-90364649D01*
X110627406Y-90364649D02*
X110627406Y-90631316D01*
X110627406Y-90631316D02*
X110594073Y-90697983D01*
X110594073Y-90697983D02*
X110560740Y-90731316D01*
X110560740Y-90731316D02*
X110494073Y-90764649D01*
X110494073Y-90764649D02*
X110394073Y-90764649D01*
X110394073Y-90764649D02*
X110327406Y-90731316D01*
X110327406Y-90731316D02*
X110294073Y-90697983D01*
X110294073Y-90697983D02*
X110260740Y-90631316D01*
X110260740Y-90631316D02*
X110260740Y-90364649D01*
X109927406Y-91064649D02*
X110627406Y-91064649D01*
X110627406Y-91531316D02*
X110627406Y-91664649D01*
X110627406Y-91664649D02*
X110594073Y-91731316D01*
X110594073Y-91731316D02*
X110527406Y-91797982D01*
X110527406Y-91797982D02*
X110394073Y-91831316D01*
X110394073Y-91831316D02*
X110160740Y-91831316D01*
X110160740Y-91831316D02*
X110027406Y-91797982D01*
X110027406Y-91797982D02*
X109960740Y-91731316D01*
X109960740Y-91731316D02*
X109927406Y-91664649D01*
X109927406Y-91664649D02*
X109927406Y-91531316D01*
X109927406Y-91531316D02*
X109960740Y-91464649D01*
X109960740Y-91464649D02*
X110027406Y-91397982D01*
X110027406Y-91397982D02*
X110160740Y-91364649D01*
X110160740Y-91364649D02*
X110394073Y-91364649D01*
X110394073Y-91364649D02*
X110527406Y-91397982D01*
X110527406Y-91397982D02*
X110594073Y-91464649D01*
X110594073Y-91464649D02*
X110627406Y-91531316D01*
X110627406Y-92064649D02*
X110627406Y-92497982D01*
X110627406Y-92497982D02*
X110360740Y-92264649D01*
X110360740Y-92264649D02*
X110360740Y-92364649D01*
X110360740Y-92364649D02*
X110327406Y-92431315D01*
X110327406Y-92431315D02*
X110294073Y-92464649D01*
X110294073Y-92464649D02*
X110227406Y-92497982D01*
X110227406Y-92497982D02*
X110060740Y-92497982D01*
X110060740Y-92497982D02*
X109994073Y-92464649D01*
X109994073Y-92464649D02*
X109960740Y-92431315D01*
X109960740Y-92431315D02*
X109927406Y-92364649D01*
X109927406Y-92364649D02*
X109927406Y-92164649D01*
X109927406Y-92164649D02*
X109960740Y-92097982D01*
X109960740Y-92097982D02*
X109994073Y-92064649D01*
X110660740Y-93297982D02*
X109760740Y-92697982D01*
X110627406Y-93531315D02*
X110060740Y-93531315D01*
X110060740Y-93531315D02*
X109994073Y-93564649D01*
X109994073Y-93564649D02*
X109960740Y-93597982D01*
X109960740Y-93597982D02*
X109927406Y-93664649D01*
X109927406Y-93664649D02*
X109927406Y-93797982D01*
X109927406Y-93797982D02*
X109960740Y-93864649D01*
X109960740Y-93864649D02*
X109994073Y-93897982D01*
X109994073Y-93897982D02*
X110060740Y-93931315D01*
X110060740Y-93931315D02*
X110627406Y-93931315D01*
X110627406Y-94397982D02*
X110627406Y-94464648D01*
X110627406Y-94464648D02*
X110594073Y-94531315D01*
X110594073Y-94531315D02*
X110560740Y-94564648D01*
X110560740Y-94564648D02*
X110494073Y-94597982D01*
X110494073Y-94597982D02*
X110360740Y-94631315D01*
X110360740Y-94631315D02*
X110194073Y-94631315D01*
X110194073Y-94631315D02*
X110060740Y-94597982D01*
X110060740Y-94597982D02*
X109994073Y-94564648D01*
X109994073Y-94564648D02*
X109960740Y-94531315D01*
X109960740Y-94531315D02*
X109927406Y-94464648D01*
X109927406Y-94464648D02*
X109927406Y-94397982D01*
X109927406Y-94397982D02*
X109960740Y-94331315D01*
X109960740Y-94331315D02*
X109994073Y-94297982D01*
X109994073Y-94297982D02*
X110060740Y-94264648D01*
X110060740Y-94264648D02*
X110194073Y-94231315D01*
X110194073Y-94231315D02*
X110360740Y-94231315D01*
X110360740Y-94231315D02*
X110494073Y-94264648D01*
X110494073Y-94264648D02*
X110560740Y-94297982D01*
X110560740Y-94297982D02*
X110594073Y-94331315D01*
X110594073Y-94331315D02*
X110627406Y-94397982D01*
X109927406Y-95331315D02*
X110260740Y-95097982D01*
X109927406Y-94931315D02*
X110627406Y-94931315D01*
X110627406Y-94931315D02*
X110627406Y-95197982D01*
X110627406Y-95197982D02*
X110594073Y-95264649D01*
X110594073Y-95264649D02*
X110560740Y-95297982D01*
X110560740Y-95297982D02*
X110494073Y-95331315D01*
X110494073Y-95331315D02*
X110394073Y-95331315D01*
X110394073Y-95331315D02*
X110327406Y-95297982D01*
X110327406Y-95297982D02*
X110294073Y-95264649D01*
X110294073Y-95264649D02*
X110260740Y-95197982D01*
X110260740Y-95197982D02*
X110260740Y-94931315D01*
X110627406Y-95564649D02*
X109927406Y-96031315D01*
X110627406Y-96031315D02*
X109927406Y-95564649D01*
X109927406Y-96297982D02*
X110627406Y-96297982D01*
X110627406Y-96297982D02*
X110627406Y-96464649D01*
X110627406Y-96464649D02*
X110594073Y-96564649D01*
X110594073Y-96564649D02*
X110527406Y-96631316D01*
X110527406Y-96631316D02*
X110460740Y-96664649D01*
X110460740Y-96664649D02*
X110327406Y-96697982D01*
X110327406Y-96697982D02*
X110227406Y-96697982D01*
X110227406Y-96697982D02*
X110094073Y-96664649D01*
X110094073Y-96664649D02*
X110027406Y-96631316D01*
X110027406Y-96631316D02*
X109960740Y-96564649D01*
X109960740Y-96564649D02*
X109927406Y-96464649D01*
X109927406Y-96464649D02*
X109927406Y-96297982D01*
X76907406Y-95631315D02*
X77607406Y-95631315D01*
X77607406Y-95631315D02*
X77607406Y-95797982D01*
X77607406Y-95797982D02*
X77574073Y-95897982D01*
X77574073Y-95897982D02*
X77507406Y-95964649D01*
X77507406Y-95964649D02*
X77440740Y-95997982D01*
X77440740Y-95997982D02*
X77307406Y-96031315D01*
X77307406Y-96031315D02*
X77207406Y-96031315D01*
X77207406Y-96031315D02*
X77074073Y-95997982D01*
X77074073Y-95997982D02*
X77007406Y-95964649D01*
X77007406Y-95964649D02*
X76940740Y-95897982D01*
X76940740Y-95897982D02*
X76907406Y-95797982D01*
X76907406Y-95797982D02*
X76907406Y-95631315D01*
X77607406Y-96464649D02*
X77607406Y-96531315D01*
X77607406Y-96531315D02*
X77574073Y-96597982D01*
X77574073Y-96597982D02*
X77540740Y-96631315D01*
X77540740Y-96631315D02*
X77474073Y-96664649D01*
X77474073Y-96664649D02*
X77340740Y-96697982D01*
X77340740Y-96697982D02*
X77174073Y-96697982D01*
X77174073Y-96697982D02*
X77040740Y-96664649D01*
X77040740Y-96664649D02*
X76974073Y-96631315D01*
X76974073Y-96631315D02*
X76940740Y-96597982D01*
X76940740Y-96597982D02*
X76907406Y-96531315D01*
X76907406Y-96531315D02*
X76907406Y-96464649D01*
X76907406Y-96464649D02*
X76940740Y-96397982D01*
X76940740Y-96397982D02*
X76974073Y-96364649D01*
X76974073Y-96364649D02*
X77040740Y-96331315D01*
X77040740Y-96331315D02*
X77174073Y-96297982D01*
X77174073Y-96297982D02*
X77340740Y-96297982D01*
X77340740Y-96297982D02*
X77474073Y-96331315D01*
X77474073Y-96331315D02*
X77540740Y-96364649D01*
X77540740Y-96364649D02*
X77574073Y-96397982D01*
X77574073Y-96397982D02*
X77607406Y-96464649D01*
X108054073Y-93564649D02*
X108087406Y-93497982D01*
X108087406Y-93497982D02*
X108087406Y-93397982D01*
X108087406Y-93397982D02*
X108054073Y-93297982D01*
X108054073Y-93297982D02*
X107987406Y-93231316D01*
X107987406Y-93231316D02*
X107920740Y-93197982D01*
X107920740Y-93197982D02*
X107787406Y-93164649D01*
X107787406Y-93164649D02*
X107687406Y-93164649D01*
X107687406Y-93164649D02*
X107554073Y-93197982D01*
X107554073Y-93197982D02*
X107487406Y-93231316D01*
X107487406Y-93231316D02*
X107420740Y-93297982D01*
X107420740Y-93297982D02*
X107387406Y-93397982D01*
X107387406Y-93397982D02*
X107387406Y-93464649D01*
X107387406Y-93464649D02*
X107420740Y-93564649D01*
X107420740Y-93564649D02*
X107454073Y-93597982D01*
X107454073Y-93597982D02*
X107687406Y-93597982D01*
X107687406Y-93597982D02*
X107687406Y-93464649D01*
X107387406Y-93897982D02*
X108087406Y-93897982D01*
X108087406Y-93897982D02*
X108087406Y-94164649D01*
X108087406Y-94164649D02*
X108054073Y-94231316D01*
X108054073Y-94231316D02*
X108020740Y-94264649D01*
X108020740Y-94264649D02*
X107954073Y-94297982D01*
X107954073Y-94297982D02*
X107854073Y-94297982D01*
X107854073Y-94297982D02*
X107787406Y-94264649D01*
X107787406Y-94264649D02*
X107754073Y-94231316D01*
X107754073Y-94231316D02*
X107720740Y-94164649D01*
X107720740Y-94164649D02*
X107720740Y-93897982D01*
X107387406Y-94597982D02*
X108087406Y-94597982D01*
X108087406Y-95064649D02*
X108087406Y-95197982D01*
X108087406Y-95197982D02*
X108054073Y-95264649D01*
X108054073Y-95264649D02*
X107987406Y-95331315D01*
X107987406Y-95331315D02*
X107854073Y-95364649D01*
X107854073Y-95364649D02*
X107620740Y-95364649D01*
X107620740Y-95364649D02*
X107487406Y-95331315D01*
X107487406Y-95331315D02*
X107420740Y-95264649D01*
X107420740Y-95264649D02*
X107387406Y-95197982D01*
X107387406Y-95197982D02*
X107387406Y-95064649D01*
X107387406Y-95064649D02*
X107420740Y-94997982D01*
X107420740Y-94997982D02*
X107487406Y-94931315D01*
X107487406Y-94931315D02*
X107620740Y-94897982D01*
X107620740Y-94897982D02*
X107854073Y-94897982D01*
X107854073Y-94897982D02*
X107987406Y-94931315D01*
X107987406Y-94931315D02*
X108054073Y-94997982D01*
X108054073Y-94997982D02*
X108087406Y-95064649D01*
X108020740Y-95631315D02*
X108054073Y-95664648D01*
X108054073Y-95664648D02*
X108087406Y-95731315D01*
X108087406Y-95731315D02*
X108087406Y-95897982D01*
X108087406Y-95897982D02*
X108054073Y-95964648D01*
X108054073Y-95964648D02*
X108020740Y-95997982D01*
X108020740Y-95997982D02*
X107954073Y-96031315D01*
X107954073Y-96031315D02*
X107887406Y-96031315D01*
X107887406Y-96031315D02*
X107787406Y-95997982D01*
X107787406Y-95997982D02*
X107387406Y-95597982D01*
X107387406Y-95597982D02*
X107387406Y-96031315D01*
X107387406Y-96697982D02*
X107387406Y-96297982D01*
X107387406Y-96497982D02*
X108087406Y-96497982D01*
X108087406Y-96497982D02*
X107987406Y-96431315D01*
X107987406Y-96431315D02*
X107920740Y-96364649D01*
X107920740Y-96364649D02*
X107887406Y-96297982D01*
X79447406Y-74335350D02*
X80147406Y-74335350D01*
X80147406Y-74335350D02*
X80147406Y-74502017D01*
X80147406Y-74502017D02*
X80114073Y-74602017D01*
X80114073Y-74602017D02*
X80047406Y-74668684D01*
X80047406Y-74668684D02*
X79980740Y-74702017D01*
X79980740Y-74702017D02*
X79847406Y-74735350D01*
X79847406Y-74735350D02*
X79747406Y-74735350D01*
X79747406Y-74735350D02*
X79614073Y-74702017D01*
X79614073Y-74702017D02*
X79547406Y-74668684D01*
X79547406Y-74668684D02*
X79480740Y-74602017D01*
X79480740Y-74602017D02*
X79447406Y-74502017D01*
X79447406Y-74502017D02*
X79447406Y-74335350D01*
X80147406Y-74968684D02*
X80147406Y-75402017D01*
X80147406Y-75402017D02*
X79880740Y-75168684D01*
X79880740Y-75168684D02*
X79880740Y-75268684D01*
X79880740Y-75268684D02*
X79847406Y-75335350D01*
X79847406Y-75335350D02*
X79814073Y-75368684D01*
X79814073Y-75368684D02*
X79747406Y-75402017D01*
X79747406Y-75402017D02*
X79580740Y-75402017D01*
X79580740Y-75402017D02*
X79514073Y-75368684D01*
X79514073Y-75368684D02*
X79480740Y-75335350D01*
X79480740Y-75335350D02*
X79447406Y-75268684D01*
X79447406Y-75268684D02*
X79447406Y-75068684D01*
X79447406Y-75068684D02*
X79480740Y-75002017D01*
X79480740Y-75002017D02*
X79514073Y-74968684D01*
X90274073Y-74702017D02*
X90307406Y-74635350D01*
X90307406Y-74635350D02*
X90307406Y-74535350D01*
X90307406Y-74535350D02*
X90274073Y-74435350D01*
X90274073Y-74435350D02*
X90207406Y-74368684D01*
X90207406Y-74368684D02*
X90140740Y-74335350D01*
X90140740Y-74335350D02*
X90007406Y-74302017D01*
X90007406Y-74302017D02*
X89907406Y-74302017D01*
X89907406Y-74302017D02*
X89774073Y-74335350D01*
X89774073Y-74335350D02*
X89707406Y-74368684D01*
X89707406Y-74368684D02*
X89640740Y-74435350D01*
X89640740Y-74435350D02*
X89607406Y-74535350D01*
X89607406Y-74535350D02*
X89607406Y-74602017D01*
X89607406Y-74602017D02*
X89640740Y-74702017D01*
X89640740Y-74702017D02*
X89674073Y-74735350D01*
X89674073Y-74735350D02*
X89907406Y-74735350D01*
X89907406Y-74735350D02*
X89907406Y-74602017D01*
X89607406Y-75035350D02*
X90307406Y-75035350D01*
X90307406Y-75035350D02*
X90307406Y-75302017D01*
X90307406Y-75302017D02*
X90274073Y-75368684D01*
X90274073Y-75368684D02*
X90240740Y-75402017D01*
X90240740Y-75402017D02*
X90174073Y-75435350D01*
X90174073Y-75435350D02*
X90074073Y-75435350D01*
X90074073Y-75435350D02*
X90007406Y-75402017D01*
X90007406Y-75402017D02*
X89974073Y-75368684D01*
X89974073Y-75368684D02*
X89940740Y-75302017D01*
X89940740Y-75302017D02*
X89940740Y-75035350D01*
X89607406Y-75735350D02*
X90307406Y-75735350D01*
X90307406Y-76202017D02*
X90307406Y-76335350D01*
X90307406Y-76335350D02*
X90274073Y-76402017D01*
X90274073Y-76402017D02*
X90207406Y-76468683D01*
X90207406Y-76468683D02*
X90074073Y-76502017D01*
X90074073Y-76502017D02*
X89840740Y-76502017D01*
X89840740Y-76502017D02*
X89707406Y-76468683D01*
X89707406Y-76468683D02*
X89640740Y-76402017D01*
X89640740Y-76402017D02*
X89607406Y-76335350D01*
X89607406Y-76335350D02*
X89607406Y-76202017D01*
X89607406Y-76202017D02*
X89640740Y-76135350D01*
X89640740Y-76135350D02*
X89707406Y-76068683D01*
X89707406Y-76068683D02*
X89840740Y-76035350D01*
X89840740Y-76035350D02*
X90074073Y-76035350D01*
X90074073Y-76035350D02*
X90207406Y-76068683D01*
X90207406Y-76068683D02*
X90274073Y-76135350D01*
X90274073Y-76135350D02*
X90307406Y-76202017D01*
X89607406Y-77168683D02*
X89607406Y-76768683D01*
X89607406Y-76968683D02*
X90307406Y-76968683D01*
X90307406Y-76968683D02*
X90207406Y-76902016D01*
X90207406Y-76902016D02*
X90140740Y-76835350D01*
X90140740Y-76835350D02*
X90107406Y-76768683D01*
X90240740Y-77435350D02*
X90274073Y-77468683D01*
X90274073Y-77468683D02*
X90307406Y-77535350D01*
X90307406Y-77535350D02*
X90307406Y-77702017D01*
X90307406Y-77702017D02*
X90274073Y-77768683D01*
X90274073Y-77768683D02*
X90240740Y-77802017D01*
X90240740Y-77802017D02*
X90174073Y-77835350D01*
X90174073Y-77835350D02*
X90107406Y-77835350D01*
X90107406Y-77835350D02*
X90007406Y-77802017D01*
X90007406Y-77802017D02*
X89607406Y-77402017D01*
X89607406Y-77402017D02*
X89607406Y-77835350D01*
X90340740Y-78635350D02*
X89440740Y-78035350D01*
X89607406Y-78868683D02*
X90307406Y-78868683D01*
X90307406Y-78868683D02*
X89807406Y-79102017D01*
X89807406Y-79102017D02*
X90307406Y-79335350D01*
X90307406Y-79335350D02*
X89607406Y-79335350D01*
X90307406Y-79568683D02*
X90307406Y-79968683D01*
X89607406Y-79768683D02*
X90307406Y-79768683D01*
X89607406Y-80202016D02*
X90307406Y-80202016D01*
X90307406Y-80202016D02*
X90307406Y-80368683D01*
X90307406Y-80368683D02*
X90274073Y-80468683D01*
X90274073Y-80468683D02*
X90207406Y-80535350D01*
X90207406Y-80535350D02*
X90140740Y-80568683D01*
X90140740Y-80568683D02*
X90007406Y-80602016D01*
X90007406Y-80602016D02*
X89907406Y-80602016D01*
X89907406Y-80602016D02*
X89774073Y-80568683D01*
X89774073Y-80568683D02*
X89707406Y-80535350D01*
X89707406Y-80535350D02*
X89640740Y-80468683D01*
X89640740Y-80468683D02*
X89607406Y-80368683D01*
X89607406Y-80368683D02*
X89607406Y-80202016D01*
X89607406Y-80902016D02*
X90307406Y-80902016D01*
X74434073Y-95431315D02*
X74400740Y-95397982D01*
X74400740Y-95397982D02*
X74367406Y-95297982D01*
X74367406Y-95297982D02*
X74367406Y-95231315D01*
X74367406Y-95231315D02*
X74400740Y-95131315D01*
X74400740Y-95131315D02*
X74467406Y-95064649D01*
X74467406Y-95064649D02*
X74534073Y-95031315D01*
X74534073Y-95031315D02*
X74667406Y-94997982D01*
X74667406Y-94997982D02*
X74767406Y-94997982D01*
X74767406Y-94997982D02*
X74900740Y-95031315D01*
X74900740Y-95031315D02*
X74967406Y-95064649D01*
X74967406Y-95064649D02*
X75034073Y-95131315D01*
X75034073Y-95131315D02*
X75067406Y-95231315D01*
X75067406Y-95231315D02*
X75067406Y-95297982D01*
X75067406Y-95297982D02*
X75034073Y-95397982D01*
X75034073Y-95397982D02*
X75000740Y-95431315D01*
X74367406Y-96064649D02*
X74367406Y-95731315D01*
X74367406Y-95731315D02*
X75067406Y-95731315D01*
X74367406Y-96297982D02*
X75067406Y-96297982D01*
X74367406Y-96697982D02*
X74767406Y-96397982D01*
X75067406Y-96697982D02*
X74667406Y-96297982D01*
X118214073Y-93564649D02*
X118247406Y-93497982D01*
X118247406Y-93497982D02*
X118247406Y-93397982D01*
X118247406Y-93397982D02*
X118214073Y-93297982D01*
X118214073Y-93297982D02*
X118147406Y-93231316D01*
X118147406Y-93231316D02*
X118080740Y-93197982D01*
X118080740Y-93197982D02*
X117947406Y-93164649D01*
X117947406Y-93164649D02*
X117847406Y-93164649D01*
X117847406Y-93164649D02*
X117714073Y-93197982D01*
X117714073Y-93197982D02*
X117647406Y-93231316D01*
X117647406Y-93231316D02*
X117580740Y-93297982D01*
X117580740Y-93297982D02*
X117547406Y-93397982D01*
X117547406Y-93397982D02*
X117547406Y-93464649D01*
X117547406Y-93464649D02*
X117580740Y-93564649D01*
X117580740Y-93564649D02*
X117614073Y-93597982D01*
X117614073Y-93597982D02*
X117847406Y-93597982D01*
X117847406Y-93597982D02*
X117847406Y-93464649D01*
X117547406Y-93897982D02*
X118247406Y-93897982D01*
X118247406Y-93897982D02*
X118247406Y-94164649D01*
X118247406Y-94164649D02*
X118214073Y-94231316D01*
X118214073Y-94231316D02*
X118180740Y-94264649D01*
X118180740Y-94264649D02*
X118114073Y-94297982D01*
X118114073Y-94297982D02*
X118014073Y-94297982D01*
X118014073Y-94297982D02*
X117947406Y-94264649D01*
X117947406Y-94264649D02*
X117914073Y-94231316D01*
X117914073Y-94231316D02*
X117880740Y-94164649D01*
X117880740Y-94164649D02*
X117880740Y-93897982D01*
X117547406Y-94597982D02*
X118247406Y-94597982D01*
X118247406Y-95064649D02*
X118247406Y-95197982D01*
X118247406Y-95197982D02*
X118214073Y-95264649D01*
X118214073Y-95264649D02*
X118147406Y-95331315D01*
X118147406Y-95331315D02*
X118014073Y-95364649D01*
X118014073Y-95364649D02*
X117780740Y-95364649D01*
X117780740Y-95364649D02*
X117647406Y-95331315D01*
X117647406Y-95331315D02*
X117580740Y-95264649D01*
X117580740Y-95264649D02*
X117547406Y-95197982D01*
X117547406Y-95197982D02*
X117547406Y-95064649D01*
X117547406Y-95064649D02*
X117580740Y-94997982D01*
X117580740Y-94997982D02*
X117647406Y-94931315D01*
X117647406Y-94931315D02*
X117780740Y-94897982D01*
X117780740Y-94897982D02*
X118014073Y-94897982D01*
X118014073Y-94897982D02*
X118147406Y-94931315D01*
X118147406Y-94931315D02*
X118214073Y-94997982D01*
X118214073Y-94997982D02*
X118247406Y-95064649D01*
X118180740Y-95631315D02*
X118214073Y-95664648D01*
X118214073Y-95664648D02*
X118247406Y-95731315D01*
X118247406Y-95731315D02*
X118247406Y-95897982D01*
X118247406Y-95897982D02*
X118214073Y-95964648D01*
X118214073Y-95964648D02*
X118180740Y-95997982D01*
X118180740Y-95997982D02*
X118114073Y-96031315D01*
X118114073Y-96031315D02*
X118047406Y-96031315D01*
X118047406Y-96031315D02*
X117947406Y-95997982D01*
X117947406Y-95997982D02*
X117547406Y-95597982D01*
X117547406Y-95597982D02*
X117547406Y-96031315D01*
X118247406Y-96264649D02*
X118247406Y-96697982D01*
X118247406Y-96697982D02*
X117980740Y-96464649D01*
X117980740Y-96464649D02*
X117980740Y-96564649D01*
X117980740Y-96564649D02*
X117947406Y-96631315D01*
X117947406Y-96631315D02*
X117914073Y-96664649D01*
X117914073Y-96664649D02*
X117847406Y-96697982D01*
X117847406Y-96697982D02*
X117680740Y-96697982D01*
X117680740Y-96697982D02*
X117614073Y-96664649D01*
X117614073Y-96664649D02*
X117580740Y-96631315D01*
X117580740Y-96631315D02*
X117547406Y-96564649D01*
X117547406Y-96564649D02*
X117547406Y-96364649D01*
X117547406Y-96364649D02*
X117580740Y-96297982D01*
X117580740Y-96297982D02*
X117614073Y-96264649D01*
X95354073Y-74702017D02*
X95387406Y-74635350D01*
X95387406Y-74635350D02*
X95387406Y-74535350D01*
X95387406Y-74535350D02*
X95354073Y-74435350D01*
X95354073Y-74435350D02*
X95287406Y-74368684D01*
X95287406Y-74368684D02*
X95220740Y-74335350D01*
X95220740Y-74335350D02*
X95087406Y-74302017D01*
X95087406Y-74302017D02*
X94987406Y-74302017D01*
X94987406Y-74302017D02*
X94854073Y-74335350D01*
X94854073Y-74335350D02*
X94787406Y-74368684D01*
X94787406Y-74368684D02*
X94720740Y-74435350D01*
X94720740Y-74435350D02*
X94687406Y-74535350D01*
X94687406Y-74535350D02*
X94687406Y-74602017D01*
X94687406Y-74602017D02*
X94720740Y-74702017D01*
X94720740Y-74702017D02*
X94754073Y-74735350D01*
X94754073Y-74735350D02*
X94987406Y-74735350D01*
X94987406Y-74735350D02*
X94987406Y-74602017D01*
X94687406Y-75035350D02*
X95387406Y-75035350D01*
X95387406Y-75035350D02*
X95387406Y-75302017D01*
X95387406Y-75302017D02*
X95354073Y-75368684D01*
X95354073Y-75368684D02*
X95320740Y-75402017D01*
X95320740Y-75402017D02*
X95254073Y-75435350D01*
X95254073Y-75435350D02*
X95154073Y-75435350D01*
X95154073Y-75435350D02*
X95087406Y-75402017D01*
X95087406Y-75402017D02*
X95054073Y-75368684D01*
X95054073Y-75368684D02*
X95020740Y-75302017D01*
X95020740Y-75302017D02*
X95020740Y-75035350D01*
X94687406Y-75735350D02*
X95387406Y-75735350D01*
X95387406Y-76202017D02*
X95387406Y-76335350D01*
X95387406Y-76335350D02*
X95354073Y-76402017D01*
X95354073Y-76402017D02*
X95287406Y-76468683D01*
X95287406Y-76468683D02*
X95154073Y-76502017D01*
X95154073Y-76502017D02*
X94920740Y-76502017D01*
X94920740Y-76502017D02*
X94787406Y-76468683D01*
X94787406Y-76468683D02*
X94720740Y-76402017D01*
X94720740Y-76402017D02*
X94687406Y-76335350D01*
X94687406Y-76335350D02*
X94687406Y-76202017D01*
X94687406Y-76202017D02*
X94720740Y-76135350D01*
X94720740Y-76135350D02*
X94787406Y-76068683D01*
X94787406Y-76068683D02*
X94920740Y-76035350D01*
X94920740Y-76035350D02*
X95154073Y-76035350D01*
X95154073Y-76035350D02*
X95287406Y-76068683D01*
X95287406Y-76068683D02*
X95354073Y-76135350D01*
X95354073Y-76135350D02*
X95387406Y-76202017D01*
X95320740Y-76768683D02*
X95354073Y-76802016D01*
X95354073Y-76802016D02*
X95387406Y-76868683D01*
X95387406Y-76868683D02*
X95387406Y-77035350D01*
X95387406Y-77035350D02*
X95354073Y-77102016D01*
X95354073Y-77102016D02*
X95320740Y-77135350D01*
X95320740Y-77135350D02*
X95254073Y-77168683D01*
X95254073Y-77168683D02*
X95187406Y-77168683D01*
X95187406Y-77168683D02*
X95087406Y-77135350D01*
X95087406Y-77135350D02*
X94687406Y-76735350D01*
X94687406Y-76735350D02*
X94687406Y-77168683D01*
X95387406Y-77402017D02*
X95387406Y-77868683D01*
X95387406Y-77868683D02*
X94687406Y-77568683D01*
X97894073Y-94231316D02*
X97927406Y-94164649D01*
X97927406Y-94164649D02*
X97927406Y-94064649D01*
X97927406Y-94064649D02*
X97894073Y-93964649D01*
X97894073Y-93964649D02*
X97827406Y-93897983D01*
X97827406Y-93897983D02*
X97760740Y-93864649D01*
X97760740Y-93864649D02*
X97627406Y-93831316D01*
X97627406Y-93831316D02*
X97527406Y-93831316D01*
X97527406Y-93831316D02*
X97394073Y-93864649D01*
X97394073Y-93864649D02*
X97327406Y-93897983D01*
X97327406Y-93897983D02*
X97260740Y-93964649D01*
X97260740Y-93964649D02*
X97227406Y-94064649D01*
X97227406Y-94064649D02*
X97227406Y-94131316D01*
X97227406Y-94131316D02*
X97260740Y-94231316D01*
X97260740Y-94231316D02*
X97294073Y-94264649D01*
X97294073Y-94264649D02*
X97527406Y-94264649D01*
X97527406Y-94264649D02*
X97527406Y-94131316D01*
X97227406Y-94564649D02*
X97927406Y-94564649D01*
X97927406Y-94564649D02*
X97927406Y-94831316D01*
X97927406Y-94831316D02*
X97894073Y-94897983D01*
X97894073Y-94897983D02*
X97860740Y-94931316D01*
X97860740Y-94931316D02*
X97794073Y-94964649D01*
X97794073Y-94964649D02*
X97694073Y-94964649D01*
X97694073Y-94964649D02*
X97627406Y-94931316D01*
X97627406Y-94931316D02*
X97594073Y-94897983D01*
X97594073Y-94897983D02*
X97560740Y-94831316D01*
X97560740Y-94831316D02*
X97560740Y-94564649D01*
X97227406Y-95264649D02*
X97927406Y-95264649D01*
X97927406Y-95731316D02*
X97927406Y-95864649D01*
X97927406Y-95864649D02*
X97894073Y-95931316D01*
X97894073Y-95931316D02*
X97827406Y-95997982D01*
X97827406Y-95997982D02*
X97694073Y-96031316D01*
X97694073Y-96031316D02*
X97460740Y-96031316D01*
X97460740Y-96031316D02*
X97327406Y-95997982D01*
X97327406Y-95997982D02*
X97260740Y-95931316D01*
X97260740Y-95931316D02*
X97227406Y-95864649D01*
X97227406Y-95864649D02*
X97227406Y-95731316D01*
X97227406Y-95731316D02*
X97260740Y-95664649D01*
X97260740Y-95664649D02*
X97327406Y-95597982D01*
X97327406Y-95597982D02*
X97460740Y-95564649D01*
X97460740Y-95564649D02*
X97694073Y-95564649D01*
X97694073Y-95564649D02*
X97827406Y-95597982D01*
X97827406Y-95597982D02*
X97894073Y-95664649D01*
X97894073Y-95664649D02*
X97927406Y-95731316D01*
X97927406Y-96664649D02*
X97927406Y-96331315D01*
X97927406Y-96331315D02*
X97594073Y-96297982D01*
X97594073Y-96297982D02*
X97627406Y-96331315D01*
X97627406Y-96331315D02*
X97660740Y-96397982D01*
X97660740Y-96397982D02*
X97660740Y-96564649D01*
X97660740Y-96564649D02*
X97627406Y-96631315D01*
X97627406Y-96631315D02*
X97594073Y-96664649D01*
X97594073Y-96664649D02*
X97527406Y-96697982D01*
X97527406Y-96697982D02*
X97360740Y-96697982D01*
X97360740Y-96697982D02*
X97294073Y-96664649D01*
X97294073Y-96664649D02*
X97260740Y-96631315D01*
X97260740Y-96631315D02*
X97227406Y-96564649D01*
X97227406Y-96564649D02*
X97227406Y-96397982D01*
X97227406Y-96397982D02*
X97260740Y-96331315D01*
X97260740Y-96331315D02*
X97294073Y-96297982D01*
X90274073Y-94231316D02*
X90307406Y-94164649D01*
X90307406Y-94164649D02*
X90307406Y-94064649D01*
X90307406Y-94064649D02*
X90274073Y-93964649D01*
X90274073Y-93964649D02*
X90207406Y-93897983D01*
X90207406Y-93897983D02*
X90140740Y-93864649D01*
X90140740Y-93864649D02*
X90007406Y-93831316D01*
X90007406Y-93831316D02*
X89907406Y-93831316D01*
X89907406Y-93831316D02*
X89774073Y-93864649D01*
X89774073Y-93864649D02*
X89707406Y-93897983D01*
X89707406Y-93897983D02*
X89640740Y-93964649D01*
X89640740Y-93964649D02*
X89607406Y-94064649D01*
X89607406Y-94064649D02*
X89607406Y-94131316D01*
X89607406Y-94131316D02*
X89640740Y-94231316D01*
X89640740Y-94231316D02*
X89674073Y-94264649D01*
X89674073Y-94264649D02*
X89907406Y-94264649D01*
X89907406Y-94264649D02*
X89907406Y-94131316D01*
X89607406Y-94564649D02*
X90307406Y-94564649D01*
X90307406Y-94564649D02*
X90307406Y-94831316D01*
X90307406Y-94831316D02*
X90274073Y-94897983D01*
X90274073Y-94897983D02*
X90240740Y-94931316D01*
X90240740Y-94931316D02*
X90174073Y-94964649D01*
X90174073Y-94964649D02*
X90074073Y-94964649D01*
X90074073Y-94964649D02*
X90007406Y-94931316D01*
X90007406Y-94931316D02*
X89974073Y-94897983D01*
X89974073Y-94897983D02*
X89940740Y-94831316D01*
X89940740Y-94831316D02*
X89940740Y-94564649D01*
X89607406Y-95264649D02*
X90307406Y-95264649D01*
X90307406Y-95731316D02*
X90307406Y-95864649D01*
X90307406Y-95864649D02*
X90274073Y-95931316D01*
X90274073Y-95931316D02*
X90207406Y-95997982D01*
X90207406Y-95997982D02*
X90074073Y-96031316D01*
X90074073Y-96031316D02*
X89840740Y-96031316D01*
X89840740Y-96031316D02*
X89707406Y-95997982D01*
X89707406Y-95997982D02*
X89640740Y-95931316D01*
X89640740Y-95931316D02*
X89607406Y-95864649D01*
X89607406Y-95864649D02*
X89607406Y-95731316D01*
X89607406Y-95731316D02*
X89640740Y-95664649D01*
X89640740Y-95664649D02*
X89707406Y-95597982D01*
X89707406Y-95597982D02*
X89840740Y-95564649D01*
X89840740Y-95564649D02*
X90074073Y-95564649D01*
X90074073Y-95564649D02*
X90207406Y-95597982D01*
X90207406Y-95597982D02*
X90274073Y-95664649D01*
X90274073Y-95664649D02*
X90307406Y-95731316D01*
X90074073Y-96631315D02*
X89607406Y-96631315D01*
X90340740Y-96464649D02*
X89840740Y-96297982D01*
X89840740Y-96297982D02*
X89840740Y-96731315D01*
X102974073Y-74702017D02*
X103007406Y-74635350D01*
X103007406Y-74635350D02*
X103007406Y-74535350D01*
X103007406Y-74535350D02*
X102974073Y-74435350D01*
X102974073Y-74435350D02*
X102907406Y-74368684D01*
X102907406Y-74368684D02*
X102840740Y-74335350D01*
X102840740Y-74335350D02*
X102707406Y-74302017D01*
X102707406Y-74302017D02*
X102607406Y-74302017D01*
X102607406Y-74302017D02*
X102474073Y-74335350D01*
X102474073Y-74335350D02*
X102407406Y-74368684D01*
X102407406Y-74368684D02*
X102340740Y-74435350D01*
X102340740Y-74435350D02*
X102307406Y-74535350D01*
X102307406Y-74535350D02*
X102307406Y-74602017D01*
X102307406Y-74602017D02*
X102340740Y-74702017D01*
X102340740Y-74702017D02*
X102374073Y-74735350D01*
X102374073Y-74735350D02*
X102607406Y-74735350D01*
X102607406Y-74735350D02*
X102607406Y-74602017D01*
X102307406Y-75035350D02*
X103007406Y-75035350D01*
X103007406Y-75035350D02*
X103007406Y-75302017D01*
X103007406Y-75302017D02*
X102974073Y-75368684D01*
X102974073Y-75368684D02*
X102940740Y-75402017D01*
X102940740Y-75402017D02*
X102874073Y-75435350D01*
X102874073Y-75435350D02*
X102774073Y-75435350D01*
X102774073Y-75435350D02*
X102707406Y-75402017D01*
X102707406Y-75402017D02*
X102674073Y-75368684D01*
X102674073Y-75368684D02*
X102640740Y-75302017D01*
X102640740Y-75302017D02*
X102640740Y-75035350D01*
X102307406Y-75735350D02*
X103007406Y-75735350D01*
X103007406Y-76202017D02*
X103007406Y-76335350D01*
X103007406Y-76335350D02*
X102974073Y-76402017D01*
X102974073Y-76402017D02*
X102907406Y-76468683D01*
X102907406Y-76468683D02*
X102774073Y-76502017D01*
X102774073Y-76502017D02*
X102540740Y-76502017D01*
X102540740Y-76502017D02*
X102407406Y-76468683D01*
X102407406Y-76468683D02*
X102340740Y-76402017D01*
X102340740Y-76402017D02*
X102307406Y-76335350D01*
X102307406Y-76335350D02*
X102307406Y-76202017D01*
X102307406Y-76202017D02*
X102340740Y-76135350D01*
X102340740Y-76135350D02*
X102407406Y-76068683D01*
X102407406Y-76068683D02*
X102540740Y-76035350D01*
X102540740Y-76035350D02*
X102774073Y-76035350D01*
X102774073Y-76035350D02*
X102907406Y-76068683D01*
X102907406Y-76068683D02*
X102974073Y-76135350D01*
X102974073Y-76135350D02*
X103007406Y-76202017D01*
X103007406Y-76735350D02*
X103007406Y-77168683D01*
X103007406Y-77168683D02*
X102740740Y-76935350D01*
X102740740Y-76935350D02*
X102740740Y-77035350D01*
X102740740Y-77035350D02*
X102707406Y-77102016D01*
X102707406Y-77102016D02*
X102674073Y-77135350D01*
X102674073Y-77135350D02*
X102607406Y-77168683D01*
X102607406Y-77168683D02*
X102440740Y-77168683D01*
X102440740Y-77168683D02*
X102374073Y-77135350D01*
X102374073Y-77135350D02*
X102340740Y-77102016D01*
X102340740Y-77102016D02*
X102307406Y-77035350D01*
X102307406Y-77035350D02*
X102307406Y-76835350D01*
X102307406Y-76835350D02*
X102340740Y-76768683D01*
X102340740Y-76768683D02*
X102374073Y-76735350D01*
X103007406Y-77402017D02*
X103007406Y-77835350D01*
X103007406Y-77835350D02*
X102740740Y-77602017D01*
X102740740Y-77602017D02*
X102740740Y-77702017D01*
X102740740Y-77702017D02*
X102707406Y-77768683D01*
X102707406Y-77768683D02*
X102674073Y-77802017D01*
X102674073Y-77802017D02*
X102607406Y-77835350D01*
X102607406Y-77835350D02*
X102440740Y-77835350D01*
X102440740Y-77835350D02*
X102374073Y-77802017D01*
X102374073Y-77802017D02*
X102340740Y-77768683D01*
X102340740Y-77768683D02*
X102307406Y-77702017D01*
X102307406Y-77702017D02*
X102307406Y-77502017D01*
X102307406Y-77502017D02*
X102340740Y-77435350D01*
X102340740Y-77435350D02*
X102374073Y-77402017D01*
X110594073Y-74702017D02*
X110627406Y-74635350D01*
X110627406Y-74635350D02*
X110627406Y-74535350D01*
X110627406Y-74535350D02*
X110594073Y-74435350D01*
X110594073Y-74435350D02*
X110527406Y-74368684D01*
X110527406Y-74368684D02*
X110460740Y-74335350D01*
X110460740Y-74335350D02*
X110327406Y-74302017D01*
X110327406Y-74302017D02*
X110227406Y-74302017D01*
X110227406Y-74302017D02*
X110094073Y-74335350D01*
X110094073Y-74335350D02*
X110027406Y-74368684D01*
X110027406Y-74368684D02*
X109960740Y-74435350D01*
X109960740Y-74435350D02*
X109927406Y-74535350D01*
X109927406Y-74535350D02*
X109927406Y-74602017D01*
X109927406Y-74602017D02*
X109960740Y-74702017D01*
X109960740Y-74702017D02*
X109994073Y-74735350D01*
X109994073Y-74735350D02*
X110227406Y-74735350D01*
X110227406Y-74735350D02*
X110227406Y-74602017D01*
X109927406Y-75035350D02*
X110627406Y-75035350D01*
X110627406Y-75035350D02*
X110627406Y-75302017D01*
X110627406Y-75302017D02*
X110594073Y-75368684D01*
X110594073Y-75368684D02*
X110560740Y-75402017D01*
X110560740Y-75402017D02*
X110494073Y-75435350D01*
X110494073Y-75435350D02*
X110394073Y-75435350D01*
X110394073Y-75435350D02*
X110327406Y-75402017D01*
X110327406Y-75402017D02*
X110294073Y-75368684D01*
X110294073Y-75368684D02*
X110260740Y-75302017D01*
X110260740Y-75302017D02*
X110260740Y-75035350D01*
X109927406Y-75735350D02*
X110627406Y-75735350D01*
X110627406Y-76202017D02*
X110627406Y-76335350D01*
X110627406Y-76335350D02*
X110594073Y-76402017D01*
X110594073Y-76402017D02*
X110527406Y-76468683D01*
X110527406Y-76468683D02*
X110394073Y-76502017D01*
X110394073Y-76502017D02*
X110160740Y-76502017D01*
X110160740Y-76502017D02*
X110027406Y-76468683D01*
X110027406Y-76468683D02*
X109960740Y-76402017D01*
X109960740Y-76402017D02*
X109927406Y-76335350D01*
X109927406Y-76335350D02*
X109927406Y-76202017D01*
X109927406Y-76202017D02*
X109960740Y-76135350D01*
X109960740Y-76135350D02*
X110027406Y-76068683D01*
X110027406Y-76068683D02*
X110160740Y-76035350D01*
X110160740Y-76035350D02*
X110394073Y-76035350D01*
X110394073Y-76035350D02*
X110527406Y-76068683D01*
X110527406Y-76068683D02*
X110594073Y-76135350D01*
X110594073Y-76135350D02*
X110627406Y-76202017D01*
X110627406Y-76735350D02*
X110627406Y-77168683D01*
X110627406Y-77168683D02*
X110360740Y-76935350D01*
X110360740Y-76935350D02*
X110360740Y-77035350D01*
X110360740Y-77035350D02*
X110327406Y-77102016D01*
X110327406Y-77102016D02*
X110294073Y-77135350D01*
X110294073Y-77135350D02*
X110227406Y-77168683D01*
X110227406Y-77168683D02*
X110060740Y-77168683D01*
X110060740Y-77168683D02*
X109994073Y-77135350D01*
X109994073Y-77135350D02*
X109960740Y-77102016D01*
X109960740Y-77102016D02*
X109927406Y-77035350D01*
X109927406Y-77035350D02*
X109927406Y-76835350D01*
X109927406Y-76835350D02*
X109960740Y-76768683D01*
X109960740Y-76768683D02*
X109994073Y-76735350D01*
X110394073Y-77768683D02*
X109927406Y-77768683D01*
X110660740Y-77602017D02*
X110160740Y-77435350D01*
X110160740Y-77435350D02*
X110160740Y-77868683D01*
X74977340Y-74879289D02*
X74977340Y-74403099D01*
X74977340Y-74403099D02*
X74501150Y-74355480D01*
X74501150Y-74355480D02*
X74548769Y-74403099D01*
X74548769Y-74403099D02*
X74596388Y-74498337D01*
X74596388Y-74498337D02*
X74596388Y-74736432D01*
X74596388Y-74736432D02*
X74548769Y-74831670D01*
X74548769Y-74831670D02*
X74501150Y-74879289D01*
X74501150Y-74879289D02*
X74405912Y-74926908D01*
X74405912Y-74926908D02*
X74167817Y-74926908D01*
X74167817Y-74926908D02*
X74072579Y-74879289D01*
X74072579Y-74879289D02*
X74024960Y-74831670D01*
X74024960Y-74831670D02*
X73977340Y-74736432D01*
X73977340Y-74736432D02*
X73977340Y-74498337D01*
X73977340Y-74498337D02*
X74024960Y-74403099D01*
X74024960Y-74403099D02*
X74072579Y-74355480D01*
X74977340Y-75212623D02*
X73977340Y-75545956D01*
X73977340Y-75545956D02*
X74977340Y-75879289D01*
X92814073Y-93564649D02*
X92847406Y-93497982D01*
X92847406Y-93497982D02*
X92847406Y-93397982D01*
X92847406Y-93397982D02*
X92814073Y-93297982D01*
X92814073Y-93297982D02*
X92747406Y-93231316D01*
X92747406Y-93231316D02*
X92680740Y-93197982D01*
X92680740Y-93197982D02*
X92547406Y-93164649D01*
X92547406Y-93164649D02*
X92447406Y-93164649D01*
X92447406Y-93164649D02*
X92314073Y-93197982D01*
X92314073Y-93197982D02*
X92247406Y-93231316D01*
X92247406Y-93231316D02*
X92180740Y-93297982D01*
X92180740Y-93297982D02*
X92147406Y-93397982D01*
X92147406Y-93397982D02*
X92147406Y-93464649D01*
X92147406Y-93464649D02*
X92180740Y-93564649D01*
X92180740Y-93564649D02*
X92214073Y-93597982D01*
X92214073Y-93597982D02*
X92447406Y-93597982D01*
X92447406Y-93597982D02*
X92447406Y-93464649D01*
X92147406Y-93897982D02*
X92847406Y-93897982D01*
X92847406Y-93897982D02*
X92847406Y-94164649D01*
X92847406Y-94164649D02*
X92814073Y-94231316D01*
X92814073Y-94231316D02*
X92780740Y-94264649D01*
X92780740Y-94264649D02*
X92714073Y-94297982D01*
X92714073Y-94297982D02*
X92614073Y-94297982D01*
X92614073Y-94297982D02*
X92547406Y-94264649D01*
X92547406Y-94264649D02*
X92514073Y-94231316D01*
X92514073Y-94231316D02*
X92480740Y-94164649D01*
X92480740Y-94164649D02*
X92480740Y-93897982D01*
X92147406Y-94597982D02*
X92847406Y-94597982D01*
X92847406Y-95064649D02*
X92847406Y-95197982D01*
X92847406Y-95197982D02*
X92814073Y-95264649D01*
X92814073Y-95264649D02*
X92747406Y-95331315D01*
X92747406Y-95331315D02*
X92614073Y-95364649D01*
X92614073Y-95364649D02*
X92380740Y-95364649D01*
X92380740Y-95364649D02*
X92247406Y-95331315D01*
X92247406Y-95331315D02*
X92180740Y-95264649D01*
X92180740Y-95264649D02*
X92147406Y-95197982D01*
X92147406Y-95197982D02*
X92147406Y-95064649D01*
X92147406Y-95064649D02*
X92180740Y-94997982D01*
X92180740Y-94997982D02*
X92247406Y-94931315D01*
X92247406Y-94931315D02*
X92380740Y-94897982D01*
X92380740Y-94897982D02*
X92614073Y-94897982D01*
X92614073Y-94897982D02*
X92747406Y-94931315D01*
X92747406Y-94931315D02*
X92814073Y-94997982D01*
X92814073Y-94997982D02*
X92847406Y-95064649D01*
X92147406Y-96031315D02*
X92147406Y-95631315D01*
X92147406Y-95831315D02*
X92847406Y-95831315D01*
X92847406Y-95831315D02*
X92747406Y-95764648D01*
X92747406Y-95764648D02*
X92680740Y-95697982D01*
X92680740Y-95697982D02*
X92647406Y-95631315D01*
X92847406Y-96631315D02*
X92847406Y-96497982D01*
X92847406Y-96497982D02*
X92814073Y-96431315D01*
X92814073Y-96431315D02*
X92780740Y-96397982D01*
X92780740Y-96397982D02*
X92680740Y-96331315D01*
X92680740Y-96331315D02*
X92547406Y-96297982D01*
X92547406Y-96297982D02*
X92280740Y-96297982D01*
X92280740Y-96297982D02*
X92214073Y-96331315D01*
X92214073Y-96331315D02*
X92180740Y-96364649D01*
X92180740Y-96364649D02*
X92147406Y-96431315D01*
X92147406Y-96431315D02*
X92147406Y-96564649D01*
X92147406Y-96564649D02*
X92180740Y-96631315D01*
X92180740Y-96631315D02*
X92214073Y-96664649D01*
X92214073Y-96664649D02*
X92280740Y-96697982D01*
X92280740Y-96697982D02*
X92447406Y-96697982D01*
X92447406Y-96697982D02*
X92514073Y-96664649D01*
X92514073Y-96664649D02*
X92547406Y-96631315D01*
X92547406Y-96631315D02*
X92580740Y-96564649D01*
X92580740Y-96564649D02*
X92580740Y-96431315D01*
X92580740Y-96431315D02*
X92547406Y-96364649D01*
X92547406Y-96364649D02*
X92514073Y-96331315D01*
X92514073Y-96331315D02*
X92447406Y-96297982D01*
X100434073Y-74702017D02*
X100467406Y-74635350D01*
X100467406Y-74635350D02*
X100467406Y-74535350D01*
X100467406Y-74535350D02*
X100434073Y-74435350D01*
X100434073Y-74435350D02*
X100367406Y-74368684D01*
X100367406Y-74368684D02*
X100300740Y-74335350D01*
X100300740Y-74335350D02*
X100167406Y-74302017D01*
X100167406Y-74302017D02*
X100067406Y-74302017D01*
X100067406Y-74302017D02*
X99934073Y-74335350D01*
X99934073Y-74335350D02*
X99867406Y-74368684D01*
X99867406Y-74368684D02*
X99800740Y-74435350D01*
X99800740Y-74435350D02*
X99767406Y-74535350D01*
X99767406Y-74535350D02*
X99767406Y-74602017D01*
X99767406Y-74602017D02*
X99800740Y-74702017D01*
X99800740Y-74702017D02*
X99834073Y-74735350D01*
X99834073Y-74735350D02*
X100067406Y-74735350D01*
X100067406Y-74735350D02*
X100067406Y-74602017D01*
X99767406Y-75035350D02*
X100467406Y-75035350D01*
X100467406Y-75035350D02*
X100467406Y-75302017D01*
X100467406Y-75302017D02*
X100434073Y-75368684D01*
X100434073Y-75368684D02*
X100400740Y-75402017D01*
X100400740Y-75402017D02*
X100334073Y-75435350D01*
X100334073Y-75435350D02*
X100234073Y-75435350D01*
X100234073Y-75435350D02*
X100167406Y-75402017D01*
X100167406Y-75402017D02*
X100134073Y-75368684D01*
X100134073Y-75368684D02*
X100100740Y-75302017D01*
X100100740Y-75302017D02*
X100100740Y-75035350D01*
X99767406Y-75735350D02*
X100467406Y-75735350D01*
X100467406Y-76202017D02*
X100467406Y-76335350D01*
X100467406Y-76335350D02*
X100434073Y-76402017D01*
X100434073Y-76402017D02*
X100367406Y-76468683D01*
X100367406Y-76468683D02*
X100234073Y-76502017D01*
X100234073Y-76502017D02*
X100000740Y-76502017D01*
X100000740Y-76502017D02*
X99867406Y-76468683D01*
X99867406Y-76468683D02*
X99800740Y-76402017D01*
X99800740Y-76402017D02*
X99767406Y-76335350D01*
X99767406Y-76335350D02*
X99767406Y-76202017D01*
X99767406Y-76202017D02*
X99800740Y-76135350D01*
X99800740Y-76135350D02*
X99867406Y-76068683D01*
X99867406Y-76068683D02*
X100000740Y-76035350D01*
X100000740Y-76035350D02*
X100234073Y-76035350D01*
X100234073Y-76035350D02*
X100367406Y-76068683D01*
X100367406Y-76068683D02*
X100434073Y-76135350D01*
X100434073Y-76135350D02*
X100467406Y-76202017D01*
X100400740Y-76768683D02*
X100434073Y-76802016D01*
X100434073Y-76802016D02*
X100467406Y-76868683D01*
X100467406Y-76868683D02*
X100467406Y-77035350D01*
X100467406Y-77035350D02*
X100434073Y-77102016D01*
X100434073Y-77102016D02*
X100400740Y-77135350D01*
X100400740Y-77135350D02*
X100334073Y-77168683D01*
X100334073Y-77168683D02*
X100267406Y-77168683D01*
X100267406Y-77168683D02*
X100167406Y-77135350D01*
X100167406Y-77135350D02*
X99767406Y-76735350D01*
X99767406Y-76735350D02*
X99767406Y-77168683D01*
X100467406Y-77802017D02*
X100467406Y-77468683D01*
X100467406Y-77468683D02*
X100134073Y-77435350D01*
X100134073Y-77435350D02*
X100167406Y-77468683D01*
X100167406Y-77468683D02*
X100200740Y-77535350D01*
X100200740Y-77535350D02*
X100200740Y-77702017D01*
X100200740Y-77702017D02*
X100167406Y-77768683D01*
X100167406Y-77768683D02*
X100134073Y-77802017D01*
X100134073Y-77802017D02*
X100067406Y-77835350D01*
X100067406Y-77835350D02*
X99900740Y-77835350D01*
X99900740Y-77835350D02*
X99834073Y-77802017D01*
X99834073Y-77802017D02*
X99800740Y-77768683D01*
X99800740Y-77768683D02*
X99767406Y-77702017D01*
X99767406Y-77702017D02*
X99767406Y-77535350D01*
X99767406Y-77535350D02*
X99800740Y-77468683D01*
X99800740Y-77468683D02*
X99834073Y-77435350D01*
X95354073Y-93564649D02*
X95387406Y-93497982D01*
X95387406Y-93497982D02*
X95387406Y-93397982D01*
X95387406Y-93397982D02*
X95354073Y-93297982D01*
X95354073Y-93297982D02*
X95287406Y-93231316D01*
X95287406Y-93231316D02*
X95220740Y-93197982D01*
X95220740Y-93197982D02*
X95087406Y-93164649D01*
X95087406Y-93164649D02*
X94987406Y-93164649D01*
X94987406Y-93164649D02*
X94854073Y-93197982D01*
X94854073Y-93197982D02*
X94787406Y-93231316D01*
X94787406Y-93231316D02*
X94720740Y-93297982D01*
X94720740Y-93297982D02*
X94687406Y-93397982D01*
X94687406Y-93397982D02*
X94687406Y-93464649D01*
X94687406Y-93464649D02*
X94720740Y-93564649D01*
X94720740Y-93564649D02*
X94754073Y-93597982D01*
X94754073Y-93597982D02*
X94987406Y-93597982D01*
X94987406Y-93597982D02*
X94987406Y-93464649D01*
X94687406Y-93897982D02*
X95387406Y-93897982D01*
X95387406Y-93897982D02*
X95387406Y-94164649D01*
X95387406Y-94164649D02*
X95354073Y-94231316D01*
X95354073Y-94231316D02*
X95320740Y-94264649D01*
X95320740Y-94264649D02*
X95254073Y-94297982D01*
X95254073Y-94297982D02*
X95154073Y-94297982D01*
X95154073Y-94297982D02*
X95087406Y-94264649D01*
X95087406Y-94264649D02*
X95054073Y-94231316D01*
X95054073Y-94231316D02*
X95020740Y-94164649D01*
X95020740Y-94164649D02*
X95020740Y-93897982D01*
X94687406Y-94597982D02*
X95387406Y-94597982D01*
X95387406Y-95064649D02*
X95387406Y-95197982D01*
X95387406Y-95197982D02*
X95354073Y-95264649D01*
X95354073Y-95264649D02*
X95287406Y-95331315D01*
X95287406Y-95331315D02*
X95154073Y-95364649D01*
X95154073Y-95364649D02*
X94920740Y-95364649D01*
X94920740Y-95364649D02*
X94787406Y-95331315D01*
X94787406Y-95331315D02*
X94720740Y-95264649D01*
X94720740Y-95264649D02*
X94687406Y-95197982D01*
X94687406Y-95197982D02*
X94687406Y-95064649D01*
X94687406Y-95064649D02*
X94720740Y-94997982D01*
X94720740Y-94997982D02*
X94787406Y-94931315D01*
X94787406Y-94931315D02*
X94920740Y-94897982D01*
X94920740Y-94897982D02*
X95154073Y-94897982D01*
X95154073Y-94897982D02*
X95287406Y-94931315D01*
X95287406Y-94931315D02*
X95354073Y-94997982D01*
X95354073Y-94997982D02*
X95387406Y-95064649D01*
X94687406Y-96031315D02*
X94687406Y-95631315D01*
X94687406Y-95831315D02*
X95387406Y-95831315D01*
X95387406Y-95831315D02*
X95287406Y-95764648D01*
X95287406Y-95764648D02*
X95220740Y-95697982D01*
X95220740Y-95697982D02*
X95187406Y-95631315D01*
X95387406Y-96264649D02*
X95387406Y-96731315D01*
X95387406Y-96731315D02*
X94687406Y-96431315D01*
X115707406Y-74235350D02*
X115007406Y-74468684D01*
X115007406Y-74468684D02*
X115707406Y-74702017D01*
X115007406Y-74935350D02*
X115707406Y-74935350D01*
X115707406Y-74935350D02*
X115707406Y-75202017D01*
X115707406Y-75202017D02*
X115674073Y-75268684D01*
X115674073Y-75268684D02*
X115640740Y-75302017D01*
X115640740Y-75302017D02*
X115574073Y-75335350D01*
X115574073Y-75335350D02*
X115474073Y-75335350D01*
X115474073Y-75335350D02*
X115407406Y-75302017D01*
X115407406Y-75302017D02*
X115374073Y-75268684D01*
X115374073Y-75268684D02*
X115340740Y-75202017D01*
X115340740Y-75202017D02*
X115340740Y-74935350D01*
X115740740Y-76135350D02*
X114840740Y-75535350D01*
X115674073Y-76735350D02*
X115707406Y-76668683D01*
X115707406Y-76668683D02*
X115707406Y-76568683D01*
X115707406Y-76568683D02*
X115674073Y-76468683D01*
X115674073Y-76468683D02*
X115607406Y-76402017D01*
X115607406Y-76402017D02*
X115540740Y-76368683D01*
X115540740Y-76368683D02*
X115407406Y-76335350D01*
X115407406Y-76335350D02*
X115307406Y-76335350D01*
X115307406Y-76335350D02*
X115174073Y-76368683D01*
X115174073Y-76368683D02*
X115107406Y-76402017D01*
X115107406Y-76402017D02*
X115040740Y-76468683D01*
X115040740Y-76468683D02*
X115007406Y-76568683D01*
X115007406Y-76568683D02*
X115007406Y-76635350D01*
X115007406Y-76635350D02*
X115040740Y-76735350D01*
X115040740Y-76735350D02*
X115074073Y-76768683D01*
X115074073Y-76768683D02*
X115307406Y-76768683D01*
X115307406Y-76768683D02*
X115307406Y-76635350D01*
X115007406Y-77068683D02*
X115707406Y-77068683D01*
X115707406Y-77068683D02*
X115707406Y-77335350D01*
X115707406Y-77335350D02*
X115674073Y-77402017D01*
X115674073Y-77402017D02*
X115640740Y-77435350D01*
X115640740Y-77435350D02*
X115574073Y-77468683D01*
X115574073Y-77468683D02*
X115474073Y-77468683D01*
X115474073Y-77468683D02*
X115407406Y-77435350D01*
X115407406Y-77435350D02*
X115374073Y-77402017D01*
X115374073Y-77402017D02*
X115340740Y-77335350D01*
X115340740Y-77335350D02*
X115340740Y-77068683D01*
X115007406Y-77768683D02*
X115707406Y-77768683D01*
X115707406Y-78235350D02*
X115707406Y-78368683D01*
X115707406Y-78368683D02*
X115674073Y-78435350D01*
X115674073Y-78435350D02*
X115607406Y-78502016D01*
X115607406Y-78502016D02*
X115474073Y-78535350D01*
X115474073Y-78535350D02*
X115240740Y-78535350D01*
X115240740Y-78535350D02*
X115107406Y-78502016D01*
X115107406Y-78502016D02*
X115040740Y-78435350D01*
X115040740Y-78435350D02*
X115007406Y-78368683D01*
X115007406Y-78368683D02*
X115007406Y-78235350D01*
X115007406Y-78235350D02*
X115040740Y-78168683D01*
X115040740Y-78168683D02*
X115107406Y-78102016D01*
X115107406Y-78102016D02*
X115240740Y-78068683D01*
X115240740Y-78068683D02*
X115474073Y-78068683D01*
X115474073Y-78068683D02*
X115607406Y-78102016D01*
X115607406Y-78102016D02*
X115674073Y-78168683D01*
X115674073Y-78168683D02*
X115707406Y-78235350D01*
X115707406Y-78768683D02*
X115707406Y-79202016D01*
X115707406Y-79202016D02*
X115440740Y-78968683D01*
X115440740Y-78968683D02*
X115440740Y-79068683D01*
X115440740Y-79068683D02*
X115407406Y-79135349D01*
X115407406Y-79135349D02*
X115374073Y-79168683D01*
X115374073Y-79168683D02*
X115307406Y-79202016D01*
X115307406Y-79202016D02*
X115140740Y-79202016D01*
X115140740Y-79202016D02*
X115074073Y-79168683D01*
X115074073Y-79168683D02*
X115040740Y-79135349D01*
X115040740Y-79135349D02*
X115007406Y-79068683D01*
X115007406Y-79068683D02*
X115007406Y-78868683D01*
X115007406Y-78868683D02*
X115040740Y-78802016D01*
X115040740Y-78802016D02*
X115074073Y-78768683D01*
X115707406Y-79802016D02*
X115707406Y-79668683D01*
X115707406Y-79668683D02*
X115674073Y-79602016D01*
X115674073Y-79602016D02*
X115640740Y-79568683D01*
X115640740Y-79568683D02*
X115540740Y-79502016D01*
X115540740Y-79502016D02*
X115407406Y-79468683D01*
X115407406Y-79468683D02*
X115140740Y-79468683D01*
X115140740Y-79468683D02*
X115074073Y-79502016D01*
X115074073Y-79502016D02*
X115040740Y-79535350D01*
X115040740Y-79535350D02*
X115007406Y-79602016D01*
X115007406Y-79602016D02*
X115007406Y-79735350D01*
X115007406Y-79735350D02*
X115040740Y-79802016D01*
X115040740Y-79802016D02*
X115074073Y-79835350D01*
X115074073Y-79835350D02*
X115140740Y-79868683D01*
X115140740Y-79868683D02*
X115307406Y-79868683D01*
X115307406Y-79868683D02*
X115374073Y-79835350D01*
X115374073Y-79835350D02*
X115407406Y-79802016D01*
X115407406Y-79802016D02*
X115440740Y-79735350D01*
X115440740Y-79735350D02*
X115440740Y-79602016D01*
X115440740Y-79602016D02*
X115407406Y-79535350D01*
X115407406Y-79535350D02*
X115374073Y-79502016D01*
X115374073Y-79502016D02*
X115307406Y-79468683D01*
X117935150Y-74301921D02*
X117935150Y-74635254D01*
X117411340Y-74778111D02*
X117411340Y-74301921D01*
X117411340Y-74301921D02*
X118411340Y-74301921D01*
X118411340Y-74301921D02*
X118411340Y-74778111D01*
X117411340Y-75206683D02*
X118411340Y-75206683D01*
X118411340Y-75206683D02*
X117411340Y-75778111D01*
X117411340Y-75778111D02*
X118411340Y-75778111D01*
X118458960Y-76968587D02*
X117173245Y-76111445D01*
X117411340Y-77873349D02*
X117887531Y-77540016D01*
X117411340Y-77301921D02*
X118411340Y-77301921D01*
X118411340Y-77301921D02*
X118411340Y-77682873D01*
X118411340Y-77682873D02*
X118363721Y-77778111D01*
X118363721Y-77778111D02*
X118316102Y-77825730D01*
X118316102Y-77825730D02*
X118220864Y-77873349D01*
X118220864Y-77873349D02*
X118078007Y-77873349D01*
X118078007Y-77873349D02*
X117982769Y-77825730D01*
X117982769Y-77825730D02*
X117935150Y-77778111D01*
X117935150Y-77778111D02*
X117887531Y-77682873D01*
X117887531Y-77682873D02*
X117887531Y-77301921D01*
X117935150Y-78301921D02*
X117935150Y-78635254D01*
X117411340Y-78778111D02*
X117411340Y-78301921D01*
X117411340Y-78301921D02*
X118411340Y-78301921D01*
X118411340Y-78301921D02*
X118411340Y-78778111D01*
X117458960Y-79159064D02*
X117411340Y-79301921D01*
X117411340Y-79301921D02*
X117411340Y-79540016D01*
X117411340Y-79540016D02*
X117458960Y-79635254D01*
X117458960Y-79635254D02*
X117506579Y-79682873D01*
X117506579Y-79682873D02*
X117601817Y-79730492D01*
X117601817Y-79730492D02*
X117697055Y-79730492D01*
X117697055Y-79730492D02*
X117792293Y-79682873D01*
X117792293Y-79682873D02*
X117839912Y-79635254D01*
X117839912Y-79635254D02*
X117887531Y-79540016D01*
X117887531Y-79540016D02*
X117935150Y-79349540D01*
X117935150Y-79349540D02*
X117982769Y-79254302D01*
X117982769Y-79254302D02*
X118030388Y-79206683D01*
X118030388Y-79206683D02*
X118125626Y-79159064D01*
X118125626Y-79159064D02*
X118220864Y-79159064D01*
X118220864Y-79159064D02*
X118316102Y-79206683D01*
X118316102Y-79206683D02*
X118363721Y-79254302D01*
X118363721Y-79254302D02*
X118411340Y-79349540D01*
X118411340Y-79349540D02*
X118411340Y-79587635D01*
X118411340Y-79587635D02*
X118363721Y-79730492D01*
X117935150Y-80159064D02*
X117935150Y-80492397D01*
X117411340Y-80635254D02*
X117411340Y-80159064D01*
X117411340Y-80159064D02*
X118411340Y-80159064D01*
X118411340Y-80159064D02*
X118411340Y-80635254D01*
X118411340Y-80920969D02*
X118411340Y-81492397D01*
X117411340Y-81206683D02*
X118411340Y-81206683D01*
X108054073Y-74702017D02*
X108087406Y-74635350D01*
X108087406Y-74635350D02*
X108087406Y-74535350D01*
X108087406Y-74535350D02*
X108054073Y-74435350D01*
X108054073Y-74435350D02*
X107987406Y-74368684D01*
X107987406Y-74368684D02*
X107920740Y-74335350D01*
X107920740Y-74335350D02*
X107787406Y-74302017D01*
X107787406Y-74302017D02*
X107687406Y-74302017D01*
X107687406Y-74302017D02*
X107554073Y-74335350D01*
X107554073Y-74335350D02*
X107487406Y-74368684D01*
X107487406Y-74368684D02*
X107420740Y-74435350D01*
X107420740Y-74435350D02*
X107387406Y-74535350D01*
X107387406Y-74535350D02*
X107387406Y-74602017D01*
X107387406Y-74602017D02*
X107420740Y-74702017D01*
X107420740Y-74702017D02*
X107454073Y-74735350D01*
X107454073Y-74735350D02*
X107687406Y-74735350D01*
X107687406Y-74735350D02*
X107687406Y-74602017D01*
X107387406Y-75035350D02*
X108087406Y-75035350D01*
X108087406Y-75035350D02*
X108087406Y-75302017D01*
X108087406Y-75302017D02*
X108054073Y-75368684D01*
X108054073Y-75368684D02*
X108020740Y-75402017D01*
X108020740Y-75402017D02*
X107954073Y-75435350D01*
X107954073Y-75435350D02*
X107854073Y-75435350D01*
X107854073Y-75435350D02*
X107787406Y-75402017D01*
X107787406Y-75402017D02*
X107754073Y-75368684D01*
X107754073Y-75368684D02*
X107720740Y-75302017D01*
X107720740Y-75302017D02*
X107720740Y-75035350D01*
X107387406Y-75735350D02*
X108087406Y-75735350D01*
X108087406Y-76202017D02*
X108087406Y-76335350D01*
X108087406Y-76335350D02*
X108054073Y-76402017D01*
X108054073Y-76402017D02*
X107987406Y-76468683D01*
X107987406Y-76468683D02*
X107854073Y-76502017D01*
X107854073Y-76502017D02*
X107620740Y-76502017D01*
X107620740Y-76502017D02*
X107487406Y-76468683D01*
X107487406Y-76468683D02*
X107420740Y-76402017D01*
X107420740Y-76402017D02*
X107387406Y-76335350D01*
X107387406Y-76335350D02*
X107387406Y-76202017D01*
X107387406Y-76202017D02*
X107420740Y-76135350D01*
X107420740Y-76135350D02*
X107487406Y-76068683D01*
X107487406Y-76068683D02*
X107620740Y-76035350D01*
X107620740Y-76035350D02*
X107854073Y-76035350D01*
X107854073Y-76035350D02*
X107987406Y-76068683D01*
X107987406Y-76068683D02*
X108054073Y-76135350D01*
X108054073Y-76135350D02*
X108087406Y-76202017D01*
X108087406Y-76735350D02*
X108087406Y-77168683D01*
X108087406Y-77168683D02*
X107820740Y-76935350D01*
X107820740Y-76935350D02*
X107820740Y-77035350D01*
X107820740Y-77035350D02*
X107787406Y-77102016D01*
X107787406Y-77102016D02*
X107754073Y-77135350D01*
X107754073Y-77135350D02*
X107687406Y-77168683D01*
X107687406Y-77168683D02*
X107520740Y-77168683D01*
X107520740Y-77168683D02*
X107454073Y-77135350D01*
X107454073Y-77135350D02*
X107420740Y-77102016D01*
X107420740Y-77102016D02*
X107387406Y-77035350D01*
X107387406Y-77035350D02*
X107387406Y-76835350D01*
X107387406Y-76835350D02*
X107420740Y-76768683D01*
X107420740Y-76768683D02*
X107454073Y-76735350D01*
X108087406Y-77802017D02*
X108087406Y-77468683D01*
X108087406Y-77468683D02*
X107754073Y-77435350D01*
X107754073Y-77435350D02*
X107787406Y-77468683D01*
X107787406Y-77468683D02*
X107820740Y-77535350D01*
X107820740Y-77535350D02*
X107820740Y-77702017D01*
X107820740Y-77702017D02*
X107787406Y-77768683D01*
X107787406Y-77768683D02*
X107754073Y-77802017D01*
X107754073Y-77802017D02*
X107687406Y-77835350D01*
X107687406Y-77835350D02*
X107520740Y-77835350D01*
X107520740Y-77835350D02*
X107454073Y-77802017D01*
X107454073Y-77802017D02*
X107420740Y-77768683D01*
X107420740Y-77768683D02*
X107387406Y-77702017D01*
X107387406Y-77702017D02*
X107387406Y-77535350D01*
X107387406Y-77535350D02*
X107420740Y-77468683D01*
X107420740Y-77468683D02*
X107454073Y-77435350D01*
X102974073Y-93564649D02*
X103007406Y-93497982D01*
X103007406Y-93497982D02*
X103007406Y-93397982D01*
X103007406Y-93397982D02*
X102974073Y-93297982D01*
X102974073Y-93297982D02*
X102907406Y-93231316D01*
X102907406Y-93231316D02*
X102840740Y-93197982D01*
X102840740Y-93197982D02*
X102707406Y-93164649D01*
X102707406Y-93164649D02*
X102607406Y-93164649D01*
X102607406Y-93164649D02*
X102474073Y-93197982D01*
X102474073Y-93197982D02*
X102407406Y-93231316D01*
X102407406Y-93231316D02*
X102340740Y-93297982D01*
X102340740Y-93297982D02*
X102307406Y-93397982D01*
X102307406Y-93397982D02*
X102307406Y-93464649D01*
X102307406Y-93464649D02*
X102340740Y-93564649D01*
X102340740Y-93564649D02*
X102374073Y-93597982D01*
X102374073Y-93597982D02*
X102607406Y-93597982D01*
X102607406Y-93597982D02*
X102607406Y-93464649D01*
X102307406Y-93897982D02*
X103007406Y-93897982D01*
X103007406Y-93897982D02*
X103007406Y-94164649D01*
X103007406Y-94164649D02*
X102974073Y-94231316D01*
X102974073Y-94231316D02*
X102940740Y-94264649D01*
X102940740Y-94264649D02*
X102874073Y-94297982D01*
X102874073Y-94297982D02*
X102774073Y-94297982D01*
X102774073Y-94297982D02*
X102707406Y-94264649D01*
X102707406Y-94264649D02*
X102674073Y-94231316D01*
X102674073Y-94231316D02*
X102640740Y-94164649D01*
X102640740Y-94164649D02*
X102640740Y-93897982D01*
X102307406Y-94597982D02*
X103007406Y-94597982D01*
X103007406Y-95064649D02*
X103007406Y-95197982D01*
X103007406Y-95197982D02*
X102974073Y-95264649D01*
X102974073Y-95264649D02*
X102907406Y-95331315D01*
X102907406Y-95331315D02*
X102774073Y-95364649D01*
X102774073Y-95364649D02*
X102540740Y-95364649D01*
X102540740Y-95364649D02*
X102407406Y-95331315D01*
X102407406Y-95331315D02*
X102340740Y-95264649D01*
X102340740Y-95264649D02*
X102307406Y-95197982D01*
X102307406Y-95197982D02*
X102307406Y-95064649D01*
X102307406Y-95064649D02*
X102340740Y-94997982D01*
X102340740Y-94997982D02*
X102407406Y-94931315D01*
X102407406Y-94931315D02*
X102540740Y-94897982D01*
X102540740Y-94897982D02*
X102774073Y-94897982D01*
X102774073Y-94897982D02*
X102907406Y-94931315D01*
X102907406Y-94931315D02*
X102974073Y-94997982D01*
X102974073Y-94997982D02*
X103007406Y-95064649D01*
X102307406Y-96031315D02*
X102307406Y-95631315D01*
X102307406Y-95831315D02*
X103007406Y-95831315D01*
X103007406Y-95831315D02*
X102907406Y-95764648D01*
X102907406Y-95764648D02*
X102840740Y-95697982D01*
X102840740Y-95697982D02*
X102807406Y-95631315D01*
X102307406Y-96364649D02*
X102307406Y-96497982D01*
X102307406Y-96497982D02*
X102340740Y-96564649D01*
X102340740Y-96564649D02*
X102374073Y-96597982D01*
X102374073Y-96597982D02*
X102474073Y-96664649D01*
X102474073Y-96664649D02*
X102607406Y-96697982D01*
X102607406Y-96697982D02*
X102874073Y-96697982D01*
X102874073Y-96697982D02*
X102940740Y-96664649D01*
X102940740Y-96664649D02*
X102974073Y-96631315D01*
X102974073Y-96631315D02*
X103007406Y-96564649D01*
X103007406Y-96564649D02*
X103007406Y-96431315D01*
X103007406Y-96431315D02*
X102974073Y-96364649D01*
X102974073Y-96364649D02*
X102940740Y-96331315D01*
X102940740Y-96331315D02*
X102874073Y-96297982D01*
X102874073Y-96297982D02*
X102707406Y-96297982D01*
X102707406Y-96297982D02*
X102640740Y-96331315D01*
X102640740Y-96331315D02*
X102607406Y-96364649D01*
X102607406Y-96364649D02*
X102574073Y-96431315D01*
X102574073Y-96431315D02*
X102574073Y-96564649D01*
X102574073Y-96564649D02*
X102607406Y-96631315D01*
X102607406Y-96631315D02*
X102640740Y-96664649D01*
X102640740Y-96664649D02*
X102707406Y-96697982D01*
X82654073Y-90064650D02*
X82687406Y-89997983D01*
X82687406Y-89997983D02*
X82687406Y-89897983D01*
X82687406Y-89897983D02*
X82654073Y-89797983D01*
X82654073Y-89797983D02*
X82587406Y-89731317D01*
X82587406Y-89731317D02*
X82520740Y-89697983D01*
X82520740Y-89697983D02*
X82387406Y-89664650D01*
X82387406Y-89664650D02*
X82287406Y-89664650D01*
X82287406Y-89664650D02*
X82154073Y-89697983D01*
X82154073Y-89697983D02*
X82087406Y-89731317D01*
X82087406Y-89731317D02*
X82020740Y-89797983D01*
X82020740Y-89797983D02*
X81987406Y-89897983D01*
X81987406Y-89897983D02*
X81987406Y-89964650D01*
X81987406Y-89964650D02*
X82020740Y-90064650D01*
X82020740Y-90064650D02*
X82054073Y-90097983D01*
X82054073Y-90097983D02*
X82287406Y-90097983D01*
X82287406Y-90097983D02*
X82287406Y-89964650D01*
X81987406Y-90397983D02*
X82687406Y-90397983D01*
X82687406Y-90397983D02*
X82687406Y-90664650D01*
X82687406Y-90664650D02*
X82654073Y-90731317D01*
X82654073Y-90731317D02*
X82620740Y-90764650D01*
X82620740Y-90764650D02*
X82554073Y-90797983D01*
X82554073Y-90797983D02*
X82454073Y-90797983D01*
X82454073Y-90797983D02*
X82387406Y-90764650D01*
X82387406Y-90764650D02*
X82354073Y-90731317D01*
X82354073Y-90731317D02*
X82320740Y-90664650D01*
X82320740Y-90664650D02*
X82320740Y-90397983D01*
X81987406Y-91097983D02*
X82687406Y-91097983D01*
X82687406Y-91564650D02*
X82687406Y-91697983D01*
X82687406Y-91697983D02*
X82654073Y-91764650D01*
X82654073Y-91764650D02*
X82587406Y-91831316D01*
X82587406Y-91831316D02*
X82454073Y-91864650D01*
X82454073Y-91864650D02*
X82220740Y-91864650D01*
X82220740Y-91864650D02*
X82087406Y-91831316D01*
X82087406Y-91831316D02*
X82020740Y-91764650D01*
X82020740Y-91764650D02*
X81987406Y-91697983D01*
X81987406Y-91697983D02*
X81987406Y-91564650D01*
X81987406Y-91564650D02*
X82020740Y-91497983D01*
X82020740Y-91497983D02*
X82087406Y-91431316D01*
X82087406Y-91431316D02*
X82220740Y-91397983D01*
X82220740Y-91397983D02*
X82454073Y-91397983D01*
X82454073Y-91397983D02*
X82587406Y-91431316D01*
X82587406Y-91431316D02*
X82654073Y-91497983D01*
X82654073Y-91497983D02*
X82687406Y-91564650D01*
X81987406Y-92531316D02*
X81987406Y-92131316D01*
X81987406Y-92331316D02*
X82687406Y-92331316D01*
X82687406Y-92331316D02*
X82587406Y-92264649D01*
X82587406Y-92264649D02*
X82520740Y-92197983D01*
X82520740Y-92197983D02*
X82487406Y-92131316D01*
X82687406Y-93164650D02*
X82687406Y-92831316D01*
X82687406Y-92831316D02*
X82354073Y-92797983D01*
X82354073Y-92797983D02*
X82387406Y-92831316D01*
X82387406Y-92831316D02*
X82420740Y-92897983D01*
X82420740Y-92897983D02*
X82420740Y-93064650D01*
X82420740Y-93064650D02*
X82387406Y-93131316D01*
X82387406Y-93131316D02*
X82354073Y-93164650D01*
X82354073Y-93164650D02*
X82287406Y-93197983D01*
X82287406Y-93197983D02*
X82120740Y-93197983D01*
X82120740Y-93197983D02*
X82054073Y-93164650D01*
X82054073Y-93164650D02*
X82020740Y-93131316D01*
X82020740Y-93131316D02*
X81987406Y-93064650D01*
X81987406Y-93064650D02*
X81987406Y-92897983D01*
X81987406Y-92897983D02*
X82020740Y-92831316D01*
X82020740Y-92831316D02*
X82054073Y-92797983D01*
X82720740Y-93997983D02*
X81820740Y-93397983D01*
X81987406Y-94231316D02*
X82687406Y-94231316D01*
X82687406Y-94231316D02*
X82187406Y-94464650D01*
X82187406Y-94464650D02*
X82687406Y-94697983D01*
X82687406Y-94697983D02*
X81987406Y-94697983D01*
X82687406Y-94931316D02*
X82687406Y-95331316D01*
X81987406Y-95131316D02*
X82687406Y-95131316D01*
X81987406Y-95564649D02*
X82687406Y-95564649D01*
X82687406Y-95564649D02*
X82687406Y-95731316D01*
X82687406Y-95731316D02*
X82654073Y-95831316D01*
X82654073Y-95831316D02*
X82587406Y-95897983D01*
X82587406Y-95897983D02*
X82520740Y-95931316D01*
X82520740Y-95931316D02*
X82387406Y-95964649D01*
X82387406Y-95964649D02*
X82287406Y-95964649D01*
X82287406Y-95964649D02*
X82154073Y-95931316D01*
X82154073Y-95931316D02*
X82087406Y-95897983D01*
X82087406Y-95897983D02*
X82020740Y-95831316D01*
X82020740Y-95831316D02*
X81987406Y-95731316D01*
X81987406Y-95731316D02*
X81987406Y-95564649D01*
X82687406Y-96397983D02*
X82687406Y-96531316D01*
X82687406Y-96531316D02*
X82654073Y-96597983D01*
X82654073Y-96597983D02*
X82587406Y-96664649D01*
X82587406Y-96664649D02*
X82454073Y-96697983D01*
X82454073Y-96697983D02*
X82220740Y-96697983D01*
X82220740Y-96697983D02*
X82087406Y-96664649D01*
X82087406Y-96664649D02*
X82020740Y-96597983D01*
X82020740Y-96597983D02*
X81987406Y-96531316D01*
X81987406Y-96531316D02*
X81987406Y-96397983D01*
X81987406Y-96397983D02*
X82020740Y-96331316D01*
X82020740Y-96331316D02*
X82087406Y-96264649D01*
X82087406Y-96264649D02*
X82220740Y-96231316D01*
X82220740Y-96231316D02*
X82454073Y-96231316D01*
X82454073Y-96231316D02*
X82587406Y-96264649D01*
X82587406Y-96264649D02*
X82654073Y-96331316D01*
X82654073Y-96331316D02*
X82687406Y-96397983D01*
X105661001Y-94545601D02*
X105708620Y-94450363D01*
X105708620Y-94450363D02*
X105708620Y-94307506D01*
X105708620Y-94307506D02*
X105661001Y-94164649D01*
X105661001Y-94164649D02*
X105565763Y-94069411D01*
X105565763Y-94069411D02*
X105470525Y-94021792D01*
X105470525Y-94021792D02*
X105280049Y-93974173D01*
X105280049Y-93974173D02*
X105137192Y-93974173D01*
X105137192Y-93974173D02*
X104946716Y-94021792D01*
X104946716Y-94021792D02*
X104851478Y-94069411D01*
X104851478Y-94069411D02*
X104756240Y-94164649D01*
X104756240Y-94164649D02*
X104708620Y-94307506D01*
X104708620Y-94307506D02*
X104708620Y-94402744D01*
X104708620Y-94402744D02*
X104756240Y-94545601D01*
X104756240Y-94545601D02*
X104803859Y-94593220D01*
X104803859Y-94593220D02*
X105137192Y-94593220D01*
X105137192Y-94593220D02*
X105137192Y-94402744D01*
X104708620Y-95021792D02*
X105708620Y-95021792D01*
X105708620Y-95021792D02*
X104708620Y-95593220D01*
X104708620Y-95593220D02*
X105708620Y-95593220D01*
X104708620Y-96069411D02*
X105708620Y-96069411D01*
X105708620Y-96069411D02*
X105708620Y-96307506D01*
X105708620Y-96307506D02*
X105661001Y-96450363D01*
X105661001Y-96450363D02*
X105565763Y-96545601D01*
X105565763Y-96545601D02*
X105470525Y-96593220D01*
X105470525Y-96593220D02*
X105280049Y-96640839D01*
X105280049Y-96640839D02*
X105137192Y-96640839D01*
X105137192Y-96640839D02*
X104946716Y-96593220D01*
X104946716Y-96593220D02*
X104851478Y-96545601D01*
X104851478Y-96545601D02*
X104756240Y-96450363D01*
X104756240Y-96450363D02*
X104708620Y-96307506D01*
X104708620Y-96307506D02*
X104708620Y-96069411D01*
X120948620Y-74311541D02*
X120948620Y-74930588D01*
X120948620Y-74930588D02*
X120567668Y-74597255D01*
X120567668Y-74597255D02*
X120567668Y-74740112D01*
X120567668Y-74740112D02*
X120520049Y-74835350D01*
X120520049Y-74835350D02*
X120472430Y-74882969D01*
X120472430Y-74882969D02*
X120377192Y-74930588D01*
X120377192Y-74930588D02*
X120139097Y-74930588D01*
X120139097Y-74930588D02*
X120043859Y-74882969D01*
X120043859Y-74882969D02*
X119996240Y-74835350D01*
X119996240Y-74835350D02*
X119948620Y-74740112D01*
X119948620Y-74740112D02*
X119948620Y-74454398D01*
X119948620Y-74454398D02*
X119996240Y-74359160D01*
X119996240Y-74359160D02*
X120043859Y-74311541D01*
X120948620Y-75216303D02*
X119948620Y-75549636D01*
X119948620Y-75549636D02*
X120948620Y-75882969D01*
X120948620Y-76121065D02*
X120948620Y-76740112D01*
X120948620Y-76740112D02*
X120567668Y-76406779D01*
X120567668Y-76406779D02*
X120567668Y-76549636D01*
X120567668Y-76549636D02*
X120520049Y-76644874D01*
X120520049Y-76644874D02*
X120472430Y-76692493D01*
X120472430Y-76692493D02*
X120377192Y-76740112D01*
X120377192Y-76740112D02*
X120139097Y-76740112D01*
X120139097Y-76740112D02*
X120043859Y-76692493D01*
X120043859Y-76692493D02*
X119996240Y-76644874D01*
X119996240Y-76644874D02*
X119948620Y-76549636D01*
X119948620Y-76549636D02*
X119948620Y-76263922D01*
X119948620Y-76263922D02*
X119996240Y-76168684D01*
X119996240Y-76168684D02*
X120043859Y-76121065D01*
X120901001Y-94545601D02*
X120948620Y-94450363D01*
X120948620Y-94450363D02*
X120948620Y-94307506D01*
X120948620Y-94307506D02*
X120901001Y-94164649D01*
X120901001Y-94164649D02*
X120805763Y-94069411D01*
X120805763Y-94069411D02*
X120710525Y-94021792D01*
X120710525Y-94021792D02*
X120520049Y-93974173D01*
X120520049Y-93974173D02*
X120377192Y-93974173D01*
X120377192Y-93974173D02*
X120186716Y-94021792D01*
X120186716Y-94021792D02*
X120091478Y-94069411D01*
X120091478Y-94069411D02*
X119996240Y-94164649D01*
X119996240Y-94164649D02*
X119948620Y-94307506D01*
X119948620Y-94307506D02*
X119948620Y-94402744D01*
X119948620Y-94402744D02*
X119996240Y-94545601D01*
X119996240Y-94545601D02*
X120043859Y-94593220D01*
X120043859Y-94593220D02*
X120377192Y-94593220D01*
X120377192Y-94593220D02*
X120377192Y-94402744D01*
X119948620Y-95021792D02*
X120948620Y-95021792D01*
X120948620Y-95021792D02*
X119948620Y-95593220D01*
X119948620Y-95593220D02*
X120948620Y-95593220D01*
X119948620Y-96069411D02*
X120948620Y-96069411D01*
X120948620Y-96069411D02*
X120948620Y-96307506D01*
X120948620Y-96307506D02*
X120901001Y-96450363D01*
X120901001Y-96450363D02*
X120805763Y-96545601D01*
X120805763Y-96545601D02*
X120710525Y-96593220D01*
X120710525Y-96593220D02*
X120520049Y-96640839D01*
X120520049Y-96640839D02*
X120377192Y-96640839D01*
X120377192Y-96640839D02*
X120186716Y-96593220D01*
X120186716Y-96593220D02*
X120091478Y-96545601D01*
X120091478Y-96545601D02*
X119996240Y-96450363D01*
X119996240Y-96450363D02*
X119948620Y-96307506D01*
X119948620Y-96307506D02*
X119948620Y-96069411D01*
X81987406Y-74335350D02*
X82687406Y-74335350D01*
X82687406Y-74335350D02*
X82687406Y-74502017D01*
X82687406Y-74502017D02*
X82654073Y-74602017D01*
X82654073Y-74602017D02*
X82587406Y-74668684D01*
X82587406Y-74668684D02*
X82520740Y-74702017D01*
X82520740Y-74702017D02*
X82387406Y-74735350D01*
X82387406Y-74735350D02*
X82287406Y-74735350D01*
X82287406Y-74735350D02*
X82154073Y-74702017D01*
X82154073Y-74702017D02*
X82087406Y-74668684D01*
X82087406Y-74668684D02*
X82020740Y-74602017D01*
X82020740Y-74602017D02*
X81987406Y-74502017D01*
X81987406Y-74502017D02*
X81987406Y-74335350D01*
X82620740Y-75002017D02*
X82654073Y-75035350D01*
X82654073Y-75035350D02*
X82687406Y-75102017D01*
X82687406Y-75102017D02*
X82687406Y-75268684D01*
X82687406Y-75268684D02*
X82654073Y-75335350D01*
X82654073Y-75335350D02*
X82620740Y-75368684D01*
X82620740Y-75368684D02*
X82554073Y-75402017D01*
X82554073Y-75402017D02*
X82487406Y-75402017D01*
X82487406Y-75402017D02*
X82387406Y-75368684D01*
X82387406Y-75368684D02*
X81987406Y-74968684D01*
X81987406Y-74968684D02*
X81987406Y-75402017D01*
X113134073Y-90197983D02*
X113167406Y-90131316D01*
X113167406Y-90131316D02*
X113167406Y-90031316D01*
X113167406Y-90031316D02*
X113134073Y-89931316D01*
X113134073Y-89931316D02*
X113067406Y-89864650D01*
X113067406Y-89864650D02*
X113000740Y-89831316D01*
X113000740Y-89831316D02*
X112867406Y-89797983D01*
X112867406Y-89797983D02*
X112767406Y-89797983D01*
X112767406Y-89797983D02*
X112634073Y-89831316D01*
X112634073Y-89831316D02*
X112567406Y-89864650D01*
X112567406Y-89864650D02*
X112500740Y-89931316D01*
X112500740Y-89931316D02*
X112467406Y-90031316D01*
X112467406Y-90031316D02*
X112467406Y-90097983D01*
X112467406Y-90097983D02*
X112500740Y-90197983D01*
X112500740Y-90197983D02*
X112534073Y-90231316D01*
X112534073Y-90231316D02*
X112767406Y-90231316D01*
X112767406Y-90231316D02*
X112767406Y-90097983D01*
X112467406Y-90531316D02*
X113167406Y-90531316D01*
X113167406Y-90531316D02*
X113167406Y-90797983D01*
X113167406Y-90797983D02*
X113134073Y-90864650D01*
X113134073Y-90864650D02*
X113100740Y-90897983D01*
X113100740Y-90897983D02*
X113034073Y-90931316D01*
X113034073Y-90931316D02*
X112934073Y-90931316D01*
X112934073Y-90931316D02*
X112867406Y-90897983D01*
X112867406Y-90897983D02*
X112834073Y-90864650D01*
X112834073Y-90864650D02*
X112800740Y-90797983D01*
X112800740Y-90797983D02*
X112800740Y-90531316D01*
X112467406Y-91231316D02*
X113167406Y-91231316D01*
X113167406Y-91697983D02*
X113167406Y-91831316D01*
X113167406Y-91831316D02*
X113134073Y-91897983D01*
X113134073Y-91897983D02*
X113067406Y-91964649D01*
X113067406Y-91964649D02*
X112934073Y-91997983D01*
X112934073Y-91997983D02*
X112700740Y-91997983D01*
X112700740Y-91997983D02*
X112567406Y-91964649D01*
X112567406Y-91964649D02*
X112500740Y-91897983D01*
X112500740Y-91897983D02*
X112467406Y-91831316D01*
X112467406Y-91831316D02*
X112467406Y-91697983D01*
X112467406Y-91697983D02*
X112500740Y-91631316D01*
X112500740Y-91631316D02*
X112567406Y-91564649D01*
X112567406Y-91564649D02*
X112700740Y-91531316D01*
X112700740Y-91531316D02*
X112934073Y-91531316D01*
X112934073Y-91531316D02*
X113067406Y-91564649D01*
X113067406Y-91564649D02*
X113134073Y-91631316D01*
X113134073Y-91631316D02*
X113167406Y-91697983D01*
X112467406Y-92664649D02*
X112467406Y-92264649D01*
X112467406Y-92464649D02*
X113167406Y-92464649D01*
X113167406Y-92464649D02*
X113067406Y-92397982D01*
X113067406Y-92397982D02*
X113000740Y-92331316D01*
X113000740Y-92331316D02*
X112967406Y-92264649D01*
X113200740Y-93464649D02*
X112300740Y-92864649D01*
X113167406Y-93697982D02*
X112600740Y-93697982D01*
X112600740Y-93697982D02*
X112534073Y-93731316D01*
X112534073Y-93731316D02*
X112500740Y-93764649D01*
X112500740Y-93764649D02*
X112467406Y-93831316D01*
X112467406Y-93831316D02*
X112467406Y-93964649D01*
X112467406Y-93964649D02*
X112500740Y-94031316D01*
X112500740Y-94031316D02*
X112534073Y-94064649D01*
X112534073Y-94064649D02*
X112600740Y-94097982D01*
X112600740Y-94097982D02*
X113167406Y-94097982D01*
X113167406Y-94564649D02*
X113167406Y-94631315D01*
X113167406Y-94631315D02*
X113134073Y-94697982D01*
X113134073Y-94697982D02*
X113100740Y-94731315D01*
X113100740Y-94731315D02*
X113034073Y-94764649D01*
X113034073Y-94764649D02*
X112900740Y-94797982D01*
X112900740Y-94797982D02*
X112734073Y-94797982D01*
X112734073Y-94797982D02*
X112600740Y-94764649D01*
X112600740Y-94764649D02*
X112534073Y-94731315D01*
X112534073Y-94731315D02*
X112500740Y-94697982D01*
X112500740Y-94697982D02*
X112467406Y-94631315D01*
X112467406Y-94631315D02*
X112467406Y-94564649D01*
X112467406Y-94564649D02*
X112500740Y-94497982D01*
X112500740Y-94497982D02*
X112534073Y-94464649D01*
X112534073Y-94464649D02*
X112600740Y-94431315D01*
X112600740Y-94431315D02*
X112734073Y-94397982D01*
X112734073Y-94397982D02*
X112900740Y-94397982D01*
X112900740Y-94397982D02*
X113034073Y-94431315D01*
X113034073Y-94431315D02*
X113100740Y-94464649D01*
X113100740Y-94464649D02*
X113134073Y-94497982D01*
X113134073Y-94497982D02*
X113167406Y-94564649D01*
X113167406Y-94997982D02*
X113167406Y-95397982D01*
X112467406Y-95197982D02*
X113167406Y-95197982D01*
X113167406Y-95564649D02*
X112467406Y-96031315D01*
X113167406Y-96031315D02*
X112467406Y-95564649D01*
X112467406Y-96297982D02*
X113167406Y-96297982D01*
X113167406Y-96297982D02*
X113167406Y-96464649D01*
X113167406Y-96464649D02*
X113134073Y-96564649D01*
X113134073Y-96564649D02*
X113067406Y-96631316D01*
X113067406Y-96631316D02*
X113000740Y-96664649D01*
X113000740Y-96664649D02*
X112867406Y-96697982D01*
X112867406Y-96697982D02*
X112767406Y-96697982D01*
X112767406Y-96697982D02*
X112634073Y-96664649D01*
X112634073Y-96664649D02*
X112567406Y-96631316D01*
X112567406Y-96631316D02*
X112500740Y-96564649D01*
X112500740Y-96564649D02*
X112467406Y-96464649D01*
X112467406Y-96464649D02*
X112467406Y-96297982D01*
X105514073Y-74702017D02*
X105547406Y-74635350D01*
X105547406Y-74635350D02*
X105547406Y-74535350D01*
X105547406Y-74535350D02*
X105514073Y-74435350D01*
X105514073Y-74435350D02*
X105447406Y-74368684D01*
X105447406Y-74368684D02*
X105380740Y-74335350D01*
X105380740Y-74335350D02*
X105247406Y-74302017D01*
X105247406Y-74302017D02*
X105147406Y-74302017D01*
X105147406Y-74302017D02*
X105014073Y-74335350D01*
X105014073Y-74335350D02*
X104947406Y-74368684D01*
X104947406Y-74368684D02*
X104880740Y-74435350D01*
X104880740Y-74435350D02*
X104847406Y-74535350D01*
X104847406Y-74535350D02*
X104847406Y-74602017D01*
X104847406Y-74602017D02*
X104880740Y-74702017D01*
X104880740Y-74702017D02*
X104914073Y-74735350D01*
X104914073Y-74735350D02*
X105147406Y-74735350D01*
X105147406Y-74735350D02*
X105147406Y-74602017D01*
X104847406Y-75035350D02*
X105547406Y-75035350D01*
X105547406Y-75035350D02*
X105547406Y-75302017D01*
X105547406Y-75302017D02*
X105514073Y-75368684D01*
X105514073Y-75368684D02*
X105480740Y-75402017D01*
X105480740Y-75402017D02*
X105414073Y-75435350D01*
X105414073Y-75435350D02*
X105314073Y-75435350D01*
X105314073Y-75435350D02*
X105247406Y-75402017D01*
X105247406Y-75402017D02*
X105214073Y-75368684D01*
X105214073Y-75368684D02*
X105180740Y-75302017D01*
X105180740Y-75302017D02*
X105180740Y-75035350D01*
X104847406Y-75735350D02*
X105547406Y-75735350D01*
X105547406Y-76202017D02*
X105547406Y-76335350D01*
X105547406Y-76335350D02*
X105514073Y-76402017D01*
X105514073Y-76402017D02*
X105447406Y-76468683D01*
X105447406Y-76468683D02*
X105314073Y-76502017D01*
X105314073Y-76502017D02*
X105080740Y-76502017D01*
X105080740Y-76502017D02*
X104947406Y-76468683D01*
X104947406Y-76468683D02*
X104880740Y-76402017D01*
X104880740Y-76402017D02*
X104847406Y-76335350D01*
X104847406Y-76335350D02*
X104847406Y-76202017D01*
X104847406Y-76202017D02*
X104880740Y-76135350D01*
X104880740Y-76135350D02*
X104947406Y-76068683D01*
X104947406Y-76068683D02*
X105080740Y-76035350D01*
X105080740Y-76035350D02*
X105314073Y-76035350D01*
X105314073Y-76035350D02*
X105447406Y-76068683D01*
X105447406Y-76068683D02*
X105514073Y-76135350D01*
X105514073Y-76135350D02*
X105547406Y-76202017D01*
X105547406Y-76735350D02*
X105547406Y-77168683D01*
X105547406Y-77168683D02*
X105280740Y-76935350D01*
X105280740Y-76935350D02*
X105280740Y-77035350D01*
X105280740Y-77035350D02*
X105247406Y-77102016D01*
X105247406Y-77102016D02*
X105214073Y-77135350D01*
X105214073Y-77135350D02*
X105147406Y-77168683D01*
X105147406Y-77168683D02*
X104980740Y-77168683D01*
X104980740Y-77168683D02*
X104914073Y-77135350D01*
X104914073Y-77135350D02*
X104880740Y-77102016D01*
X104880740Y-77102016D02*
X104847406Y-77035350D01*
X104847406Y-77035350D02*
X104847406Y-76835350D01*
X104847406Y-76835350D02*
X104880740Y-76768683D01*
X104880740Y-76768683D02*
X104914073Y-76735350D01*
X105480740Y-77435350D02*
X105514073Y-77468683D01*
X105514073Y-77468683D02*
X105547406Y-77535350D01*
X105547406Y-77535350D02*
X105547406Y-77702017D01*
X105547406Y-77702017D02*
X105514073Y-77768683D01*
X105514073Y-77768683D02*
X105480740Y-77802017D01*
X105480740Y-77802017D02*
X105414073Y-77835350D01*
X105414073Y-77835350D02*
X105347406Y-77835350D01*
X105347406Y-77835350D02*
X105247406Y-77802017D01*
X105247406Y-77802017D02*
X104847406Y-77402017D01*
X104847406Y-77402017D02*
X104847406Y-77835350D01*
X87881001Y-74930588D02*
X87928620Y-74835350D01*
X87928620Y-74835350D02*
X87928620Y-74692493D01*
X87928620Y-74692493D02*
X87881001Y-74549636D01*
X87881001Y-74549636D02*
X87785763Y-74454398D01*
X87785763Y-74454398D02*
X87690525Y-74406779D01*
X87690525Y-74406779D02*
X87500049Y-74359160D01*
X87500049Y-74359160D02*
X87357192Y-74359160D01*
X87357192Y-74359160D02*
X87166716Y-74406779D01*
X87166716Y-74406779D02*
X87071478Y-74454398D01*
X87071478Y-74454398D02*
X86976240Y-74549636D01*
X86976240Y-74549636D02*
X86928620Y-74692493D01*
X86928620Y-74692493D02*
X86928620Y-74787731D01*
X86928620Y-74787731D02*
X86976240Y-74930588D01*
X86976240Y-74930588D02*
X87023859Y-74978207D01*
X87023859Y-74978207D02*
X87357192Y-74978207D01*
X87357192Y-74978207D02*
X87357192Y-74787731D01*
X86928620Y-75406779D02*
X87928620Y-75406779D01*
X87928620Y-75406779D02*
X86928620Y-75978207D01*
X86928620Y-75978207D02*
X87928620Y-75978207D01*
X86928620Y-76454398D02*
X87928620Y-76454398D01*
X87928620Y-76454398D02*
X87928620Y-76692493D01*
X87928620Y-76692493D02*
X87881001Y-76835350D01*
X87881001Y-76835350D02*
X87785763Y-76930588D01*
X87785763Y-76930588D02*
X87690525Y-76978207D01*
X87690525Y-76978207D02*
X87500049Y-77025826D01*
X87500049Y-77025826D02*
X87357192Y-77025826D01*
X87357192Y-77025826D02*
X87166716Y-76978207D01*
X87166716Y-76978207D02*
X87071478Y-76930588D01*
X87071478Y-76930588D02*
X86976240Y-76835350D01*
X86976240Y-76835350D02*
X86928620Y-76692493D01*
X86928620Y-76692493D02*
X86928620Y-76454398D01*
X115674073Y-93564649D02*
X115707406Y-93497982D01*
X115707406Y-93497982D02*
X115707406Y-93397982D01*
X115707406Y-93397982D02*
X115674073Y-93297982D01*
X115674073Y-93297982D02*
X115607406Y-93231316D01*
X115607406Y-93231316D02*
X115540740Y-93197982D01*
X115540740Y-93197982D02*
X115407406Y-93164649D01*
X115407406Y-93164649D02*
X115307406Y-93164649D01*
X115307406Y-93164649D02*
X115174073Y-93197982D01*
X115174073Y-93197982D02*
X115107406Y-93231316D01*
X115107406Y-93231316D02*
X115040740Y-93297982D01*
X115040740Y-93297982D02*
X115007406Y-93397982D01*
X115007406Y-93397982D02*
X115007406Y-93464649D01*
X115007406Y-93464649D02*
X115040740Y-93564649D01*
X115040740Y-93564649D02*
X115074073Y-93597982D01*
X115074073Y-93597982D02*
X115307406Y-93597982D01*
X115307406Y-93597982D02*
X115307406Y-93464649D01*
X115007406Y-93897982D02*
X115707406Y-93897982D01*
X115707406Y-93897982D02*
X115707406Y-94164649D01*
X115707406Y-94164649D02*
X115674073Y-94231316D01*
X115674073Y-94231316D02*
X115640740Y-94264649D01*
X115640740Y-94264649D02*
X115574073Y-94297982D01*
X115574073Y-94297982D02*
X115474073Y-94297982D01*
X115474073Y-94297982D02*
X115407406Y-94264649D01*
X115407406Y-94264649D02*
X115374073Y-94231316D01*
X115374073Y-94231316D02*
X115340740Y-94164649D01*
X115340740Y-94164649D02*
X115340740Y-93897982D01*
X115007406Y-94597982D02*
X115707406Y-94597982D01*
X115707406Y-95064649D02*
X115707406Y-95197982D01*
X115707406Y-95197982D02*
X115674073Y-95264649D01*
X115674073Y-95264649D02*
X115607406Y-95331315D01*
X115607406Y-95331315D02*
X115474073Y-95364649D01*
X115474073Y-95364649D02*
X115240740Y-95364649D01*
X115240740Y-95364649D02*
X115107406Y-95331315D01*
X115107406Y-95331315D02*
X115040740Y-95264649D01*
X115040740Y-95264649D02*
X115007406Y-95197982D01*
X115007406Y-95197982D02*
X115007406Y-95064649D01*
X115007406Y-95064649D02*
X115040740Y-94997982D01*
X115040740Y-94997982D02*
X115107406Y-94931315D01*
X115107406Y-94931315D02*
X115240740Y-94897982D01*
X115240740Y-94897982D02*
X115474073Y-94897982D01*
X115474073Y-94897982D02*
X115607406Y-94931315D01*
X115607406Y-94931315D02*
X115674073Y-94997982D01*
X115674073Y-94997982D02*
X115707406Y-95064649D01*
X115640740Y-95631315D02*
X115674073Y-95664648D01*
X115674073Y-95664648D02*
X115707406Y-95731315D01*
X115707406Y-95731315D02*
X115707406Y-95897982D01*
X115707406Y-95897982D02*
X115674073Y-95964648D01*
X115674073Y-95964648D02*
X115640740Y-95997982D01*
X115640740Y-95997982D02*
X115574073Y-96031315D01*
X115574073Y-96031315D02*
X115507406Y-96031315D01*
X115507406Y-96031315D02*
X115407406Y-95997982D01*
X115407406Y-95997982D02*
X115007406Y-95597982D01*
X115007406Y-95597982D02*
X115007406Y-96031315D01*
X115640740Y-96297982D02*
X115674073Y-96331315D01*
X115674073Y-96331315D02*
X115707406Y-96397982D01*
X115707406Y-96397982D02*
X115707406Y-96564649D01*
X115707406Y-96564649D02*
X115674073Y-96631315D01*
X115674073Y-96631315D02*
X115640740Y-96664649D01*
X115640740Y-96664649D02*
X115574073Y-96697982D01*
X115574073Y-96697982D02*
X115507406Y-96697982D01*
X115507406Y-96697982D02*
X115407406Y-96664649D01*
X115407406Y-96664649D02*
X115007406Y-96264649D01*
X115007406Y-96264649D02*
X115007406Y-96697982D01*
X85194073Y-74702017D02*
X85227406Y-74635350D01*
X85227406Y-74635350D02*
X85227406Y-74535350D01*
X85227406Y-74535350D02*
X85194073Y-74435350D01*
X85194073Y-74435350D02*
X85127406Y-74368684D01*
X85127406Y-74368684D02*
X85060740Y-74335350D01*
X85060740Y-74335350D02*
X84927406Y-74302017D01*
X84927406Y-74302017D02*
X84827406Y-74302017D01*
X84827406Y-74302017D02*
X84694073Y-74335350D01*
X84694073Y-74335350D02*
X84627406Y-74368684D01*
X84627406Y-74368684D02*
X84560740Y-74435350D01*
X84560740Y-74435350D02*
X84527406Y-74535350D01*
X84527406Y-74535350D02*
X84527406Y-74602017D01*
X84527406Y-74602017D02*
X84560740Y-74702017D01*
X84560740Y-74702017D02*
X84594073Y-74735350D01*
X84594073Y-74735350D02*
X84827406Y-74735350D01*
X84827406Y-74735350D02*
X84827406Y-74602017D01*
X84527406Y-75035350D02*
X85227406Y-75035350D01*
X85227406Y-75035350D02*
X85227406Y-75302017D01*
X85227406Y-75302017D02*
X85194073Y-75368684D01*
X85194073Y-75368684D02*
X85160740Y-75402017D01*
X85160740Y-75402017D02*
X85094073Y-75435350D01*
X85094073Y-75435350D02*
X84994073Y-75435350D01*
X84994073Y-75435350D02*
X84927406Y-75402017D01*
X84927406Y-75402017D02*
X84894073Y-75368684D01*
X84894073Y-75368684D02*
X84860740Y-75302017D01*
X84860740Y-75302017D02*
X84860740Y-75035350D01*
X84527406Y-75735350D02*
X85227406Y-75735350D01*
X85227406Y-76202017D02*
X85227406Y-76335350D01*
X85227406Y-76335350D02*
X85194073Y-76402017D01*
X85194073Y-76402017D02*
X85127406Y-76468683D01*
X85127406Y-76468683D02*
X84994073Y-76502017D01*
X84994073Y-76502017D02*
X84760740Y-76502017D01*
X84760740Y-76502017D02*
X84627406Y-76468683D01*
X84627406Y-76468683D02*
X84560740Y-76402017D01*
X84560740Y-76402017D02*
X84527406Y-76335350D01*
X84527406Y-76335350D02*
X84527406Y-76202017D01*
X84527406Y-76202017D02*
X84560740Y-76135350D01*
X84560740Y-76135350D02*
X84627406Y-76068683D01*
X84627406Y-76068683D02*
X84760740Y-76035350D01*
X84760740Y-76035350D02*
X84994073Y-76035350D01*
X84994073Y-76035350D02*
X85127406Y-76068683D01*
X85127406Y-76068683D02*
X85194073Y-76135350D01*
X85194073Y-76135350D02*
X85227406Y-76202017D01*
X84527406Y-77168683D02*
X84527406Y-76768683D01*
X84527406Y-76968683D02*
X85227406Y-76968683D01*
X85227406Y-76968683D02*
X85127406Y-76902016D01*
X85127406Y-76902016D02*
X85060740Y-76835350D01*
X85060740Y-76835350D02*
X85027406Y-76768683D01*
X85227406Y-77402017D02*
X85227406Y-77835350D01*
X85227406Y-77835350D02*
X84960740Y-77602017D01*
X84960740Y-77602017D02*
X84960740Y-77702017D01*
X84960740Y-77702017D02*
X84927406Y-77768683D01*
X84927406Y-77768683D02*
X84894073Y-77802017D01*
X84894073Y-77802017D02*
X84827406Y-77835350D01*
X84827406Y-77835350D02*
X84660740Y-77835350D01*
X84660740Y-77835350D02*
X84594073Y-77802017D01*
X84594073Y-77802017D02*
X84560740Y-77768683D01*
X84560740Y-77768683D02*
X84527406Y-77702017D01*
X84527406Y-77702017D02*
X84527406Y-77502017D01*
X84527406Y-77502017D02*
X84560740Y-77435350D01*
X84560740Y-77435350D02*
X84594073Y-77402017D01*
X85260740Y-78635350D02*
X84360740Y-78035350D01*
X84527406Y-78868683D02*
X85227406Y-78868683D01*
X85227406Y-78868683D02*
X84727406Y-79102017D01*
X84727406Y-79102017D02*
X85227406Y-79335350D01*
X85227406Y-79335350D02*
X84527406Y-79335350D01*
X85227406Y-79568683D02*
X85227406Y-79968683D01*
X84527406Y-79768683D02*
X85227406Y-79768683D01*
X84594073Y-80602016D02*
X84560740Y-80568683D01*
X84560740Y-80568683D02*
X84527406Y-80468683D01*
X84527406Y-80468683D02*
X84527406Y-80402016D01*
X84527406Y-80402016D02*
X84560740Y-80302016D01*
X84560740Y-80302016D02*
X84627406Y-80235350D01*
X84627406Y-80235350D02*
X84694073Y-80202016D01*
X84694073Y-80202016D02*
X84827406Y-80168683D01*
X84827406Y-80168683D02*
X84927406Y-80168683D01*
X84927406Y-80168683D02*
X85060740Y-80202016D01*
X85060740Y-80202016D02*
X85127406Y-80235350D01*
X85127406Y-80235350D02*
X85194073Y-80302016D01*
X85194073Y-80302016D02*
X85227406Y-80402016D01*
X85227406Y-80402016D02*
X85227406Y-80468683D01*
X85227406Y-80468683D02*
X85194073Y-80568683D01*
X85194073Y-80568683D02*
X85160740Y-80602016D01*
X84527406Y-80902016D02*
X85227406Y-80902016D01*
X84527406Y-81302016D02*
X84927406Y-81002016D01*
X85227406Y-81302016D02*
X84827406Y-80902016D01*
X113167406Y-74235350D02*
X112467406Y-74468684D01*
X112467406Y-74468684D02*
X113167406Y-74702017D01*
X112467406Y-74935350D02*
X113167406Y-74935350D01*
X113167406Y-74935350D02*
X112467406Y-75335350D01*
X112467406Y-75335350D02*
X113167406Y-75335350D01*
X113200740Y-76168683D02*
X112300740Y-75568683D01*
X113134073Y-76768683D02*
X113167406Y-76702016D01*
X113167406Y-76702016D02*
X113167406Y-76602016D01*
X113167406Y-76602016D02*
X113134073Y-76502016D01*
X113134073Y-76502016D02*
X113067406Y-76435350D01*
X113067406Y-76435350D02*
X113000740Y-76402016D01*
X113000740Y-76402016D02*
X112867406Y-76368683D01*
X112867406Y-76368683D02*
X112767406Y-76368683D01*
X112767406Y-76368683D02*
X112634073Y-76402016D01*
X112634073Y-76402016D02*
X112567406Y-76435350D01*
X112567406Y-76435350D02*
X112500740Y-76502016D01*
X112500740Y-76502016D02*
X112467406Y-76602016D01*
X112467406Y-76602016D02*
X112467406Y-76668683D01*
X112467406Y-76668683D02*
X112500740Y-76768683D01*
X112500740Y-76768683D02*
X112534073Y-76802016D01*
X112534073Y-76802016D02*
X112767406Y-76802016D01*
X112767406Y-76802016D02*
X112767406Y-76668683D01*
X112467406Y-77102016D02*
X113167406Y-77102016D01*
X113167406Y-77102016D02*
X113167406Y-77368683D01*
X113167406Y-77368683D02*
X113134073Y-77435350D01*
X113134073Y-77435350D02*
X113100740Y-77468683D01*
X113100740Y-77468683D02*
X113034073Y-77502016D01*
X113034073Y-77502016D02*
X112934073Y-77502016D01*
X112934073Y-77502016D02*
X112867406Y-77468683D01*
X112867406Y-77468683D02*
X112834073Y-77435350D01*
X112834073Y-77435350D02*
X112800740Y-77368683D01*
X112800740Y-77368683D02*
X112800740Y-77102016D01*
X112467406Y-77802016D02*
X113167406Y-77802016D01*
X113167406Y-78268683D02*
X113167406Y-78402016D01*
X113167406Y-78402016D02*
X113134073Y-78468683D01*
X113134073Y-78468683D02*
X113067406Y-78535349D01*
X113067406Y-78535349D02*
X112934073Y-78568683D01*
X112934073Y-78568683D02*
X112700740Y-78568683D01*
X112700740Y-78568683D02*
X112567406Y-78535349D01*
X112567406Y-78535349D02*
X112500740Y-78468683D01*
X112500740Y-78468683D02*
X112467406Y-78402016D01*
X112467406Y-78402016D02*
X112467406Y-78268683D01*
X112467406Y-78268683D02*
X112500740Y-78202016D01*
X112500740Y-78202016D02*
X112567406Y-78135349D01*
X112567406Y-78135349D02*
X112700740Y-78102016D01*
X112700740Y-78102016D02*
X112934073Y-78102016D01*
X112934073Y-78102016D02*
X113067406Y-78135349D01*
X113067406Y-78135349D02*
X113134073Y-78202016D01*
X113134073Y-78202016D02*
X113167406Y-78268683D01*
X113167406Y-78802016D02*
X113167406Y-79235349D01*
X113167406Y-79235349D02*
X112900740Y-79002016D01*
X112900740Y-79002016D02*
X112900740Y-79102016D01*
X112900740Y-79102016D02*
X112867406Y-79168682D01*
X112867406Y-79168682D02*
X112834073Y-79202016D01*
X112834073Y-79202016D02*
X112767406Y-79235349D01*
X112767406Y-79235349D02*
X112600740Y-79235349D01*
X112600740Y-79235349D02*
X112534073Y-79202016D01*
X112534073Y-79202016D02*
X112500740Y-79168682D01*
X112500740Y-79168682D02*
X112467406Y-79102016D01*
X112467406Y-79102016D02*
X112467406Y-78902016D01*
X112467406Y-78902016D02*
X112500740Y-78835349D01*
X112500740Y-78835349D02*
X112534073Y-78802016D01*
X112467406Y-79568683D02*
X112467406Y-79702016D01*
X112467406Y-79702016D02*
X112500740Y-79768683D01*
X112500740Y-79768683D02*
X112534073Y-79802016D01*
X112534073Y-79802016D02*
X112634073Y-79868683D01*
X112634073Y-79868683D02*
X112767406Y-79902016D01*
X112767406Y-79902016D02*
X113034073Y-79902016D01*
X113034073Y-79902016D02*
X113100740Y-79868683D01*
X113100740Y-79868683D02*
X113134073Y-79835349D01*
X113134073Y-79835349D02*
X113167406Y-79768683D01*
X113167406Y-79768683D02*
X113167406Y-79635349D01*
X113167406Y-79635349D02*
X113134073Y-79568683D01*
X113134073Y-79568683D02*
X113100740Y-79535349D01*
X113100740Y-79535349D02*
X113034073Y-79502016D01*
X113034073Y-79502016D02*
X112867406Y-79502016D01*
X112867406Y-79502016D02*
X112800740Y-79535349D01*
X112800740Y-79535349D02*
X112767406Y-79568683D01*
X112767406Y-79568683D02*
X112734073Y-79635349D01*
X112734073Y-79635349D02*
X112734073Y-79768683D01*
X112734073Y-79768683D02*
X112767406Y-79835349D01*
X112767406Y-79835349D02*
X112800740Y-79868683D01*
X112800740Y-79868683D02*
X112867406Y-79902016D01*
X85194073Y-94231316D02*
X85227406Y-94164649D01*
X85227406Y-94164649D02*
X85227406Y-94064649D01*
X85227406Y-94064649D02*
X85194073Y-93964649D01*
X85194073Y-93964649D02*
X85127406Y-93897983D01*
X85127406Y-93897983D02*
X85060740Y-93864649D01*
X85060740Y-93864649D02*
X84927406Y-93831316D01*
X84927406Y-93831316D02*
X84827406Y-93831316D01*
X84827406Y-93831316D02*
X84694073Y-93864649D01*
X84694073Y-93864649D02*
X84627406Y-93897983D01*
X84627406Y-93897983D02*
X84560740Y-93964649D01*
X84560740Y-93964649D02*
X84527406Y-94064649D01*
X84527406Y-94064649D02*
X84527406Y-94131316D01*
X84527406Y-94131316D02*
X84560740Y-94231316D01*
X84560740Y-94231316D02*
X84594073Y-94264649D01*
X84594073Y-94264649D02*
X84827406Y-94264649D01*
X84827406Y-94264649D02*
X84827406Y-94131316D01*
X84527406Y-94564649D02*
X85227406Y-94564649D01*
X85227406Y-94564649D02*
X85227406Y-94831316D01*
X85227406Y-94831316D02*
X85194073Y-94897983D01*
X85194073Y-94897983D02*
X85160740Y-94931316D01*
X85160740Y-94931316D02*
X85094073Y-94964649D01*
X85094073Y-94964649D02*
X84994073Y-94964649D01*
X84994073Y-94964649D02*
X84927406Y-94931316D01*
X84927406Y-94931316D02*
X84894073Y-94897983D01*
X84894073Y-94897983D02*
X84860740Y-94831316D01*
X84860740Y-94831316D02*
X84860740Y-94564649D01*
X84527406Y-95264649D02*
X85227406Y-95264649D01*
X85227406Y-95731316D02*
X85227406Y-95864649D01*
X85227406Y-95864649D02*
X85194073Y-95931316D01*
X85194073Y-95931316D02*
X85127406Y-95997982D01*
X85127406Y-95997982D02*
X84994073Y-96031316D01*
X84994073Y-96031316D02*
X84760740Y-96031316D01*
X84760740Y-96031316D02*
X84627406Y-95997982D01*
X84627406Y-95997982D02*
X84560740Y-95931316D01*
X84560740Y-95931316D02*
X84527406Y-95864649D01*
X84527406Y-95864649D02*
X84527406Y-95731316D01*
X84527406Y-95731316D02*
X84560740Y-95664649D01*
X84560740Y-95664649D02*
X84627406Y-95597982D01*
X84627406Y-95597982D02*
X84760740Y-95564649D01*
X84760740Y-95564649D02*
X84994073Y-95564649D01*
X84994073Y-95564649D02*
X85127406Y-95597982D01*
X85127406Y-95597982D02*
X85194073Y-95664649D01*
X85194073Y-95664649D02*
X85227406Y-95731316D01*
X85160740Y-96297982D02*
X85194073Y-96331315D01*
X85194073Y-96331315D02*
X85227406Y-96397982D01*
X85227406Y-96397982D02*
X85227406Y-96564649D01*
X85227406Y-96564649D02*
X85194073Y-96631315D01*
X85194073Y-96631315D02*
X85160740Y-96664649D01*
X85160740Y-96664649D02*
X85094073Y-96697982D01*
X85094073Y-96697982D02*
X85027406Y-96697982D01*
X85027406Y-96697982D02*
X84927406Y-96664649D01*
X84927406Y-96664649D02*
X84527406Y-96264649D01*
X84527406Y-96264649D02*
X84527406Y-96697982D01*
X79447406Y-95631315D02*
X80147406Y-95631315D01*
X80147406Y-95631315D02*
X80147406Y-95797982D01*
X80147406Y-95797982D02*
X80114073Y-95897982D01*
X80114073Y-95897982D02*
X80047406Y-95964649D01*
X80047406Y-95964649D02*
X79980740Y-95997982D01*
X79980740Y-95997982D02*
X79847406Y-96031315D01*
X79847406Y-96031315D02*
X79747406Y-96031315D01*
X79747406Y-96031315D02*
X79614073Y-95997982D01*
X79614073Y-95997982D02*
X79547406Y-95964649D01*
X79547406Y-95964649D02*
X79480740Y-95897982D01*
X79480740Y-95897982D02*
X79447406Y-95797982D01*
X79447406Y-95797982D02*
X79447406Y-95631315D01*
X79447406Y-96697982D02*
X79447406Y-96297982D01*
X79447406Y-96497982D02*
X80147406Y-96497982D01*
X80147406Y-96497982D02*
X80047406Y-96431315D01*
X80047406Y-96431315D02*
X79980740Y-96364649D01*
X79980740Y-96364649D02*
X79947406Y-96297982D01*
X72754819Y-52446190D02*
X71754819Y-52446190D01*
X71754819Y-52446190D02*
X71754819Y-52065238D01*
X71754819Y-52065238D02*
X71802438Y-51970000D01*
X71802438Y-51970000D02*
X71850057Y-51922381D01*
X71850057Y-51922381D02*
X71945295Y-51874762D01*
X71945295Y-51874762D02*
X72088152Y-51874762D01*
X72088152Y-51874762D02*
X72183390Y-51922381D01*
X72183390Y-51922381D02*
X72231009Y-51970000D01*
X72231009Y-51970000D02*
X72278628Y-52065238D01*
X72278628Y-52065238D02*
X72278628Y-52446190D01*
X72754819Y-51303333D02*
X72707200Y-51398571D01*
X72707200Y-51398571D02*
X72659580Y-51446190D01*
X72659580Y-51446190D02*
X72564342Y-51493809D01*
X72564342Y-51493809D02*
X72278628Y-51493809D01*
X72278628Y-51493809D02*
X72183390Y-51446190D01*
X72183390Y-51446190D02*
X72135771Y-51398571D01*
X72135771Y-51398571D02*
X72088152Y-51303333D01*
X72088152Y-51303333D02*
X72088152Y-51160476D01*
X72088152Y-51160476D02*
X72135771Y-51065238D01*
X72135771Y-51065238D02*
X72183390Y-51017619D01*
X72183390Y-51017619D02*
X72278628Y-50970000D01*
X72278628Y-50970000D02*
X72564342Y-50970000D01*
X72564342Y-50970000D02*
X72659580Y-51017619D01*
X72659580Y-51017619D02*
X72707200Y-51065238D01*
X72707200Y-51065238D02*
X72754819Y-51160476D01*
X72754819Y-51160476D02*
X72754819Y-51303333D01*
X72088152Y-50684285D02*
X72088152Y-50303333D01*
X71754819Y-50541428D02*
X72611961Y-50541428D01*
X72611961Y-50541428D02*
X72707200Y-50493809D01*
X72707200Y-50493809D02*
X72754819Y-50398571D01*
X72754819Y-50398571D02*
X72754819Y-50303333D01*
X72088152Y-49541428D02*
X72754819Y-49541428D01*
X71707200Y-49779523D02*
X72421485Y-50017618D01*
X72421485Y-50017618D02*
X72421485Y-49398571D01*
X140254819Y-52976190D02*
X139254819Y-52976190D01*
X139254819Y-52976190D02*
X139254819Y-52595238D01*
X139254819Y-52595238D02*
X139302438Y-52500000D01*
X139302438Y-52500000D02*
X139350057Y-52452381D01*
X139350057Y-52452381D02*
X139445295Y-52404762D01*
X139445295Y-52404762D02*
X139588152Y-52404762D01*
X139588152Y-52404762D02*
X139683390Y-52452381D01*
X139683390Y-52452381D02*
X139731009Y-52500000D01*
X139731009Y-52500000D02*
X139778628Y-52595238D01*
X139778628Y-52595238D02*
X139778628Y-52976190D01*
X140254819Y-51833333D02*
X140207200Y-51928571D01*
X140207200Y-51928571D02*
X140159580Y-51976190D01*
X140159580Y-51976190D02*
X140064342Y-52023809D01*
X140064342Y-52023809D02*
X139778628Y-52023809D01*
X139778628Y-52023809D02*
X139683390Y-51976190D01*
X139683390Y-51976190D02*
X139635771Y-51928571D01*
X139635771Y-51928571D02*
X139588152Y-51833333D01*
X139588152Y-51833333D02*
X139588152Y-51690476D01*
X139588152Y-51690476D02*
X139635771Y-51595238D01*
X139635771Y-51595238D02*
X139683390Y-51547619D01*
X139683390Y-51547619D02*
X139778628Y-51500000D01*
X139778628Y-51500000D02*
X140064342Y-51500000D01*
X140064342Y-51500000D02*
X140159580Y-51547619D01*
X140159580Y-51547619D02*
X140207200Y-51595238D01*
X140207200Y-51595238D02*
X140254819Y-51690476D01*
X140254819Y-51690476D02*
X140254819Y-51833333D01*
X139588152Y-51214285D02*
X139588152Y-50833333D01*
X139254819Y-51071428D02*
X140111961Y-51071428D01*
X140111961Y-51071428D02*
X140207200Y-51023809D01*
X140207200Y-51023809D02*
X140254819Y-50928571D01*
X140254819Y-50928571D02*
X140254819Y-50833333D01*
X140254819Y-49976190D02*
X140254819Y-50547618D01*
X140254819Y-50261904D02*
X139254819Y-50261904D01*
X139254819Y-50261904D02*
X139397676Y-50357142D01*
X139397676Y-50357142D02*
X139492914Y-50452380D01*
X139492914Y-50452380D02*
X139540533Y-50547618D01*
X95754819Y-52476190D02*
X94754819Y-52476190D01*
X94754819Y-52476190D02*
X94754819Y-52095238D01*
X94754819Y-52095238D02*
X94802438Y-52000000D01*
X94802438Y-52000000D02*
X94850057Y-51952381D01*
X94850057Y-51952381D02*
X94945295Y-51904762D01*
X94945295Y-51904762D02*
X95088152Y-51904762D01*
X95088152Y-51904762D02*
X95183390Y-51952381D01*
X95183390Y-51952381D02*
X95231009Y-52000000D01*
X95231009Y-52000000D02*
X95278628Y-52095238D01*
X95278628Y-52095238D02*
X95278628Y-52476190D01*
X95754819Y-51333333D02*
X95707200Y-51428571D01*
X95707200Y-51428571D02*
X95659580Y-51476190D01*
X95659580Y-51476190D02*
X95564342Y-51523809D01*
X95564342Y-51523809D02*
X95278628Y-51523809D01*
X95278628Y-51523809D02*
X95183390Y-51476190D01*
X95183390Y-51476190D02*
X95135771Y-51428571D01*
X95135771Y-51428571D02*
X95088152Y-51333333D01*
X95088152Y-51333333D02*
X95088152Y-51190476D01*
X95088152Y-51190476D02*
X95135771Y-51095238D01*
X95135771Y-51095238D02*
X95183390Y-51047619D01*
X95183390Y-51047619D02*
X95278628Y-51000000D01*
X95278628Y-51000000D02*
X95564342Y-51000000D01*
X95564342Y-51000000D02*
X95659580Y-51047619D01*
X95659580Y-51047619D02*
X95707200Y-51095238D01*
X95707200Y-51095238D02*
X95754819Y-51190476D01*
X95754819Y-51190476D02*
X95754819Y-51333333D01*
X95088152Y-50714285D02*
X95088152Y-50333333D01*
X94754819Y-50571428D02*
X95611961Y-50571428D01*
X95611961Y-50571428D02*
X95707200Y-50523809D01*
X95707200Y-50523809D02*
X95754819Y-50428571D01*
X95754819Y-50428571D02*
X95754819Y-50333333D01*
X94754819Y-50095237D02*
X94754819Y-49476190D01*
X94754819Y-49476190D02*
X95135771Y-49809523D01*
X95135771Y-49809523D02*
X95135771Y-49666666D01*
X95135771Y-49666666D02*
X95183390Y-49571428D01*
X95183390Y-49571428D02*
X95231009Y-49523809D01*
X95231009Y-49523809D02*
X95326247Y-49476190D01*
X95326247Y-49476190D02*
X95564342Y-49476190D01*
X95564342Y-49476190D02*
X95659580Y-49523809D01*
X95659580Y-49523809D02*
X95707200Y-49571428D01*
X95707200Y-49571428D02*
X95754819Y-49666666D01*
X95754819Y-49666666D02*
X95754819Y-49952380D01*
X95754819Y-49952380D02*
X95707200Y-50047618D01*
X95707200Y-50047618D02*
X95659580Y-50095237D01*
X118254819Y-52976190D02*
X117254819Y-52976190D01*
X117254819Y-52976190D02*
X117254819Y-52595238D01*
X117254819Y-52595238D02*
X117302438Y-52500000D01*
X117302438Y-52500000D02*
X117350057Y-52452381D01*
X117350057Y-52452381D02*
X117445295Y-52404762D01*
X117445295Y-52404762D02*
X117588152Y-52404762D01*
X117588152Y-52404762D02*
X117683390Y-52452381D01*
X117683390Y-52452381D02*
X117731009Y-52500000D01*
X117731009Y-52500000D02*
X117778628Y-52595238D01*
X117778628Y-52595238D02*
X117778628Y-52976190D01*
X118254819Y-51833333D02*
X118207200Y-51928571D01*
X118207200Y-51928571D02*
X118159580Y-51976190D01*
X118159580Y-51976190D02*
X118064342Y-52023809D01*
X118064342Y-52023809D02*
X117778628Y-52023809D01*
X117778628Y-52023809D02*
X117683390Y-51976190D01*
X117683390Y-51976190D02*
X117635771Y-51928571D01*
X117635771Y-51928571D02*
X117588152Y-51833333D01*
X117588152Y-51833333D02*
X117588152Y-51690476D01*
X117588152Y-51690476D02*
X117635771Y-51595238D01*
X117635771Y-51595238D02*
X117683390Y-51547619D01*
X117683390Y-51547619D02*
X117778628Y-51500000D01*
X117778628Y-51500000D02*
X118064342Y-51500000D01*
X118064342Y-51500000D02*
X118159580Y-51547619D01*
X118159580Y-51547619D02*
X118207200Y-51595238D01*
X118207200Y-51595238D02*
X118254819Y-51690476D01*
X118254819Y-51690476D02*
X118254819Y-51833333D01*
X117588152Y-51214285D02*
X117588152Y-50833333D01*
X117254819Y-51071428D02*
X118111961Y-51071428D01*
X118111961Y-51071428D02*
X118207200Y-51023809D01*
X118207200Y-51023809D02*
X118254819Y-50928571D01*
X118254819Y-50928571D02*
X118254819Y-50833333D01*
X117350057Y-50547618D02*
X117302438Y-50499999D01*
X117302438Y-50499999D02*
X117254819Y-50404761D01*
X117254819Y-50404761D02*
X117254819Y-50166666D01*
X117254819Y-50166666D02*
X117302438Y-50071428D01*
X117302438Y-50071428D02*
X117350057Y-50023809D01*
X117350057Y-50023809D02*
X117445295Y-49976190D01*
X117445295Y-49976190D02*
X117540533Y-49976190D01*
X117540533Y-49976190D02*
X117683390Y-50023809D01*
X117683390Y-50023809D02*
X118254819Y-50595237D01*
X118254819Y-50595237D02*
X118254819Y-49976190D01*
X176702380Y-91881009D02*
X176845237Y-91928628D01*
X176845237Y-91928628D02*
X176892856Y-91976247D01*
X176892856Y-91976247D02*
X176940475Y-92071485D01*
X176940475Y-92071485D02*
X176940475Y-92214342D01*
X176940475Y-92214342D02*
X176892856Y-92309580D01*
X176892856Y-92309580D02*
X176845237Y-92357200D01*
X176845237Y-92357200D02*
X176749999Y-92404819D01*
X176749999Y-92404819D02*
X176369047Y-92404819D01*
X176369047Y-92404819D02*
X176369047Y-91404819D01*
X176369047Y-91404819D02*
X176702380Y-91404819D01*
X176702380Y-91404819D02*
X176797618Y-91452438D01*
X176797618Y-91452438D02*
X176845237Y-91500057D01*
X176845237Y-91500057D02*
X176892856Y-91595295D01*
X176892856Y-91595295D02*
X176892856Y-91690533D01*
X176892856Y-91690533D02*
X176845237Y-91785771D01*
X176845237Y-91785771D02*
X176797618Y-91833390D01*
X176797618Y-91833390D02*
X176702380Y-91881009D01*
X176702380Y-91881009D02*
X176369047Y-91881009D01*
X177797618Y-92404819D02*
X177797618Y-91881009D01*
X177797618Y-91881009D02*
X177749999Y-91785771D01*
X177749999Y-91785771D02*
X177654761Y-91738152D01*
X177654761Y-91738152D02*
X177464285Y-91738152D01*
X177464285Y-91738152D02*
X177369047Y-91785771D01*
X177797618Y-92357200D02*
X177702380Y-92404819D01*
X177702380Y-92404819D02*
X177464285Y-92404819D01*
X177464285Y-92404819D02*
X177369047Y-92357200D01*
X177369047Y-92357200D02*
X177321428Y-92261961D01*
X177321428Y-92261961D02*
X177321428Y-92166723D01*
X177321428Y-92166723D02*
X177369047Y-92071485D01*
X177369047Y-92071485D02*
X177464285Y-92023866D01*
X177464285Y-92023866D02*
X177702380Y-92023866D01*
X177702380Y-92023866D02*
X177797618Y-91976247D01*
X178130952Y-91738152D02*
X178511904Y-91738152D01*
X178273809Y-91404819D02*
X178273809Y-92261961D01*
X178273809Y-92261961D02*
X178321428Y-92357200D01*
X178321428Y-92357200D02*
X178416666Y-92404819D01*
X178416666Y-92404819D02*
X178511904Y-92404819D01*
X178702381Y-91738152D02*
X179083333Y-91738152D01*
X178845238Y-91404819D02*
X178845238Y-92261961D01*
X178845238Y-92261961D02*
X178892857Y-92357200D01*
X178892857Y-92357200D02*
X178988095Y-92404819D01*
X178988095Y-92404819D02*
X179083333Y-92404819D01*
X179797619Y-92357200D02*
X179702381Y-92404819D01*
X179702381Y-92404819D02*
X179511905Y-92404819D01*
X179511905Y-92404819D02*
X179416667Y-92357200D01*
X179416667Y-92357200D02*
X179369048Y-92261961D01*
X179369048Y-92261961D02*
X179369048Y-91881009D01*
X179369048Y-91881009D02*
X179416667Y-91785771D01*
X179416667Y-91785771D02*
X179511905Y-91738152D01*
X179511905Y-91738152D02*
X179702381Y-91738152D01*
X179702381Y-91738152D02*
X179797619Y-91785771D01*
X179797619Y-91785771D02*
X179845238Y-91881009D01*
X179845238Y-91881009D02*
X179845238Y-91976247D01*
X179845238Y-91976247D02*
X179369048Y-92071485D01*
X180273810Y-92404819D02*
X180273810Y-91738152D01*
X180273810Y-91928628D02*
X180321429Y-91833390D01*
X180321429Y-91833390D02*
X180369048Y-91785771D01*
X180369048Y-91785771D02*
X180464286Y-91738152D01*
X180464286Y-91738152D02*
X180559524Y-91738152D01*
X180797620Y-91738152D02*
X181035715Y-92404819D01*
X181273810Y-91738152D02*
X181035715Y-92404819D01*
X181035715Y-92404819D02*
X180940477Y-92642914D01*
X180940477Y-92642914D02*
X180892858Y-92690533D01*
X180892858Y-92690533D02*
X180797620Y-92738152D01*
X182178572Y-92404819D02*
X181607144Y-92404819D01*
X181892858Y-92404819D02*
X181892858Y-91404819D01*
X181892858Y-91404819D02*
X181797620Y-91547676D01*
X181797620Y-91547676D02*
X181702382Y-91642914D01*
X181702382Y-91642914D02*
X181607144Y-91690533D01*
X74666666Y-62804819D02*
X74333333Y-62328628D01*
X74095238Y-62804819D02*
X74095238Y-61804819D01*
X74095238Y-61804819D02*
X74476190Y-61804819D01*
X74476190Y-61804819D02*
X74571428Y-61852438D01*
X74571428Y-61852438D02*
X74619047Y-61900057D01*
X74619047Y-61900057D02*
X74666666Y-61995295D01*
X74666666Y-61995295D02*
X74666666Y-62138152D01*
X74666666Y-62138152D02*
X74619047Y-62233390D01*
X74619047Y-62233390D02*
X74571428Y-62281009D01*
X74571428Y-62281009D02*
X74476190Y-62328628D01*
X74476190Y-62328628D02*
X74095238Y-62328628D01*
X75095238Y-62281009D02*
X75428571Y-62281009D01*
X75571428Y-62804819D02*
X75095238Y-62804819D01*
X75095238Y-62804819D02*
X75095238Y-61804819D01*
X75095238Y-61804819D02*
X75571428Y-61804819D01*
X76333333Y-62281009D02*
X76000000Y-62281009D01*
X76000000Y-62804819D02*
X76000000Y-61804819D01*
X76000000Y-61804819D02*
X76476190Y-61804819D01*
X77000000Y-61804819D02*
X77000000Y-62042914D01*
X76761905Y-61947676D02*
X77000000Y-62042914D01*
X77000000Y-62042914D02*
X77238095Y-61947676D01*
X76857143Y-62233390D02*
X77000000Y-62042914D01*
X77000000Y-62042914D02*
X77142857Y-62233390D01*
X77761905Y-61804819D02*
X77761905Y-62042914D01*
X77523810Y-61947676D02*
X77761905Y-62042914D01*
X77761905Y-62042914D02*
X78000000Y-61947676D01*
X77619048Y-62233390D02*
X77761905Y-62042914D01*
X77761905Y-62042914D02*
X77904762Y-62233390D01*
D11*
%TO.C,J1*%
X183670000Y-54690000D02*
X183670000Y-59830000D01*
X183670000Y-54690000D02*
X186330000Y-54690000D01*
X183670000Y-59830000D02*
X186330000Y-59830000D01*
X185000000Y-52090000D02*
X186330000Y-52090000D01*
X186330000Y-52090000D02*
X186330000Y-53420000D01*
X186330000Y-54690000D02*
X186330000Y-59830000D01*
%TO.C,R1*%
X133130000Y-96500000D02*
X134080000Y-96500000D01*
X138870000Y-96500000D02*
X137920000Y-96500000D01*
X134080000Y-95580000D02*
X137920000Y-95580000D01*
X137920000Y-97420000D01*
X134080000Y-97420000D01*
X134080000Y-95580000D01*
%TO.C,U1*%
X121503440Y-99700000D02*
X121503440Y-71300001D01*
X73583440Y-99699999D02*
X121503440Y-99700000D01*
X127416560Y-94513320D02*
X121523760Y-94513320D01*
X121523760Y-76530120D02*
X127416560Y-76530120D01*
X127416560Y-76530120D02*
X127416560Y-94513320D01*
X121503440Y-71300001D02*
X73583440Y-71300000D01*
X73583440Y-71300000D02*
X73583440Y-99699999D01*
%TO.C,Pot4*%
X79380000Y-32050000D02*
X85620000Y-32050000D01*
X85620000Y-42050000D02*
X85620000Y-32050000D01*
X79380000Y-42050000D02*
X79380000Y-32050000D01*
X78880000Y-42050000D02*
X86120000Y-42050000D01*
X86120000Y-47050000D02*
X86120000Y-42050000D01*
X78880000Y-47050000D02*
X78880000Y-42050000D01*
X73430000Y-47050000D02*
X91570000Y-47050000D01*
X91570000Y-57790000D02*
X91570000Y-47050000D01*
X73430000Y-57790000D02*
X73430000Y-47050000D01*
X73430000Y-57790000D02*
X91570000Y-57790000D01*
%TO.C,Pot1*%
X140930000Y-58320000D02*
X159070000Y-58320000D01*
X140930000Y-58320000D02*
X140930000Y-47580000D01*
X159070000Y-58320000D02*
X159070000Y-47580000D01*
X140930000Y-47580000D02*
X159070000Y-47580000D01*
X146380000Y-47580000D02*
X146380000Y-42580000D01*
X153620000Y-47580000D02*
X153620000Y-42580000D01*
X146380000Y-42580000D02*
X153620000Y-42580000D01*
X146880000Y-42580000D02*
X146880000Y-32580000D01*
X153120000Y-42580000D02*
X153120000Y-32580000D01*
X146880000Y-32580000D02*
X153120000Y-32580000D01*
%TO.C,Pot3*%
X96430000Y-57820000D02*
X114570000Y-57820000D01*
X96430000Y-57820000D02*
X96430000Y-47080000D01*
X114570000Y-57820000D02*
X114570000Y-47080000D01*
X96430000Y-47080000D02*
X114570000Y-47080000D01*
X101880000Y-47080000D02*
X101880000Y-42080000D01*
X109120000Y-47080000D02*
X109120000Y-42080000D01*
X101880000Y-42080000D02*
X109120000Y-42080000D01*
X102380000Y-42080000D02*
X102380000Y-32080000D01*
X108620000Y-42080000D02*
X108620000Y-32080000D01*
X102380000Y-32080000D02*
X108620000Y-32080000D01*
%TO.C,Pot2*%
X124880000Y-32580000D02*
X131120000Y-32580000D01*
X131120000Y-42580000D02*
X131120000Y-32580000D01*
X124880000Y-42580000D02*
X124880000Y-32580000D01*
X124380000Y-42580000D02*
X131620000Y-42580000D01*
X131620000Y-47580000D02*
X131620000Y-42580000D01*
X124380000Y-47580000D02*
X124380000Y-42580000D01*
X118930000Y-47580000D02*
X137070000Y-47580000D01*
X137070000Y-58320000D02*
X137070000Y-47580000D01*
X118930000Y-58320000D02*
X118930000Y-47580000D01*
X118930000Y-58320000D02*
X137070000Y-58320000D01*
%TO.C,Battery1*%
X183060000Y-99010000D02*
X183060000Y-93040000D01*
X183060000Y-93040000D02*
X175440000Y-93040000D01*
X183050000Y-95300000D02*
X182300000Y-95300000D01*
X183050000Y-93800000D02*
X183050000Y-93050000D01*
X183050000Y-93050000D02*
X181250000Y-93050000D01*
X182300000Y-98250000D02*
X179250000Y-98250000D01*
X182300000Y-95300000D02*
X182300000Y-98250000D01*
X181250000Y-93800000D02*
X183050000Y-93800000D01*
X181250000Y-93050000D02*
X181250000Y-93800000D01*
X179750000Y-93800000D02*
X179750000Y-93050000D01*
X179750000Y-93050000D02*
X178750000Y-93050000D01*
X179250000Y-98250000D02*
X177260000Y-98250000D01*
X178750000Y-93800000D02*
X179750000Y-93800000D01*
X178750000Y-93050000D02*
X178750000Y-93800000D01*
X177250000Y-93800000D02*
X177250000Y-93050000D01*
X177250000Y-93050000D02*
X175450000Y-93050000D01*
X176400000Y-92750000D02*
X175150000Y-92750000D01*
X176200000Y-95300000D02*
X176200000Y-96640000D01*
X175450000Y-95300000D02*
X176200000Y-95300000D01*
X175450000Y-93800000D02*
X177250000Y-93800000D01*
X175450000Y-93050000D02*
X175450000Y-93800000D01*
X175440000Y-99010000D02*
X183060000Y-99010000D01*
X175440000Y-93040000D02*
X175440000Y-99010000D01*
X175150000Y-92750000D02*
X175150000Y-94000000D01*
%TD*%
%LPC*%
D12*
%TO.C,J1*%
X185000000Y-53420000D03*
D13*
X185000000Y-55960000D03*
X185000000Y-58500000D03*
%TD*%
D14*
%TO.C,REF\u002A\u002A*%
X183500000Y-66500000D03*
%TD*%
%TO.C,REF\u002A\u002A*%
X183000000Y-105000000D03*
%TD*%
%TO.C,REF\u002A\u002A*%
X76500000Y-105000000D03*
%TD*%
D15*
%TO.C,R1*%
X132190000Y-96500000D03*
X139810000Y-96500000D03*
%TD*%
D12*
%TO.C,Mic1*%
X171420000Y-45000000D03*
D13*
X173960000Y-45000000D03*
X176500000Y-45000000D03*
X179040000Y-45000000D03*
X181580000Y-45000000D03*
X184120000Y-45000000D03*
%TD*%
D16*
%TO.C,U1*%
X120403440Y-98200000D03*
X117863440Y-98200000D03*
X115323440Y-98200000D03*
X112783440Y-98200000D03*
X110243440Y-98200000D03*
X107703440Y-98200000D03*
X105163440Y-98200000D03*
X102623440Y-98200000D03*
X100083440Y-98200000D03*
X97543440Y-98200000D03*
X95003440Y-98200000D03*
X92463440Y-98200000D03*
X89923440Y-98200000D03*
X87383440Y-98200000D03*
X84843440Y-98200000D03*
X82303440Y-98200000D03*
X79763440Y-98200000D03*
X77226160Y-98196320D03*
X74686160Y-98196320D03*
X74683440Y-72800000D03*
X77223440Y-72800000D03*
X79763440Y-72800000D03*
X82303440Y-72800000D03*
X84843440Y-72800000D03*
X87383440Y-72800000D03*
X89923440Y-72800000D03*
X92463440Y-72800000D03*
X95003440Y-72800000D03*
X97543440Y-72800000D03*
X100083440Y-72800000D03*
X102623440Y-72800000D03*
X105163440Y-72800000D03*
X107703440Y-72800000D03*
X110243440Y-72800000D03*
X112783440Y-72800000D03*
X115323440Y-72800000D03*
X117863440Y-72800000D03*
D17*
X120403440Y-72800000D03*
%TD*%
D18*
%TO.C,Pot4*%
X87500000Y-50970000D03*
D19*
X82500000Y-50970000D03*
X77500000Y-50970000D03*
%TD*%
%TO.C,Pot1*%
X145000000Y-51500000D03*
X150000000Y-51500000D03*
D18*
X155000000Y-51500000D03*
%TD*%
D19*
%TO.C,Pot3*%
X100500000Y-51000000D03*
X105500000Y-51000000D03*
D18*
X110500000Y-51000000D03*
%TD*%
%TO.C,Pot2*%
X133000000Y-51500000D03*
D19*
X128000000Y-51500000D03*
X123000000Y-51500000D03*
%TD*%
D20*
%TO.C,LED_Strip1*%
X147500000Y-98000000D03*
D21*
X147500000Y-95460000D03*
X147500000Y-92920000D03*
%TD*%
D22*
%TO.C,Battery1*%
X180500000Y-95500000D03*
D23*
X178000000Y-95500000D03*
D24*
X176400000Y-97500000D03*
%TD*%
D14*
%TO.C,REF\u002A\u002A*%
X76000000Y-65500000D03*
%TD*%
%LPD*%
M02*
