%TF.GenerationSoftware,KiCad,Pcbnew,9.0.6*%
%TF.CreationDate,2025-11-03T17:15:35-05:00*%
%TF.ProjectId,ReactiveLED-PCB,52656163-7469-4766-954c-45442d504342,rev?*%
%TF.SameCoordinates,Original*%
%TF.FileFunction,OtherDrawing,Comment*%
%FSLAX46Y46*%
G04 Gerber Fmt 4.6, Leading zero omitted, Abs format (unit mm)*
G04 Created by KiCad (PCBNEW 9.0.6) date 2025-11-03 17:15:35*
%MOMM*%
%LPD*%
G01*
G04 APERTURE LIST*
%ADD10C,0.150000*%
G04 APERTURE END LIST*
D10*
X138122493Y-78369819D02*
X138122493Y-79084104D01*
X138122493Y-79084104D02*
X138074874Y-79226961D01*
X138074874Y-79226961D02*
X137979636Y-79322200D01*
X137979636Y-79322200D02*
X137836779Y-79369819D01*
X137836779Y-79369819D02*
X137741541Y-79369819D01*
X138551065Y-79084104D02*
X139027255Y-79084104D01*
X138455827Y-79369819D02*
X138789160Y-78369819D01*
X138789160Y-78369819D02*
X139122493Y-79369819D01*
X139646303Y-78893628D02*
X139646303Y-79369819D01*
X139312970Y-78369819D02*
X139646303Y-78893628D01*
X139646303Y-78893628D02*
X139979636Y-78369819D01*
X141360589Y-78369819D02*
X141360589Y-79084104D01*
X141360589Y-79084104D02*
X141312970Y-79226961D01*
X141312970Y-79226961D02*
X141217732Y-79322200D01*
X141217732Y-79322200D02*
X141074875Y-79369819D01*
X141074875Y-79369819D02*
X140979637Y-79369819D01*
X143122494Y-78417438D02*
X143027256Y-78369819D01*
X143027256Y-78369819D02*
X142884399Y-78369819D01*
X142884399Y-78369819D02*
X142741542Y-78417438D01*
X142741542Y-78417438D02*
X142646304Y-78512676D01*
X142646304Y-78512676D02*
X142598685Y-78607914D01*
X142598685Y-78607914D02*
X142551066Y-78798390D01*
X142551066Y-78798390D02*
X142551066Y-78941247D01*
X142551066Y-78941247D02*
X142598685Y-79131723D01*
X142598685Y-79131723D02*
X142646304Y-79226961D01*
X142646304Y-79226961D02*
X142741542Y-79322200D01*
X142741542Y-79322200D02*
X142884399Y-79369819D01*
X142884399Y-79369819D02*
X142979637Y-79369819D01*
X142979637Y-79369819D02*
X143122494Y-79322200D01*
X143122494Y-79322200D02*
X143170113Y-79274580D01*
X143170113Y-79274580D02*
X143170113Y-78941247D01*
X143170113Y-78941247D02*
X142979637Y-78941247D01*
X143598685Y-78369819D02*
X143598685Y-79179342D01*
X143598685Y-79179342D02*
X143646304Y-79274580D01*
X143646304Y-79274580D02*
X143693923Y-79322200D01*
X143693923Y-79322200D02*
X143789161Y-79369819D01*
X143789161Y-79369819D02*
X143979637Y-79369819D01*
X143979637Y-79369819D02*
X144074875Y-79322200D01*
X144074875Y-79322200D02*
X144122494Y-79274580D01*
X144122494Y-79274580D02*
X144170113Y-79179342D01*
X144170113Y-79179342D02*
X144170113Y-78369819D01*
X145217732Y-79369819D02*
X144884399Y-78893628D01*
X144646304Y-79369819D02*
X144646304Y-78369819D01*
X144646304Y-78369819D02*
X145027256Y-78369819D01*
X145027256Y-78369819D02*
X145122494Y-78417438D01*
X145122494Y-78417438D02*
X145170113Y-78465057D01*
X145170113Y-78465057D02*
X145217732Y-78560295D01*
X145217732Y-78560295D02*
X145217732Y-78703152D01*
X145217732Y-78703152D02*
X145170113Y-78798390D01*
X145170113Y-78798390D02*
X145122494Y-78846009D01*
X145122494Y-78846009D02*
X145027256Y-78893628D01*
X145027256Y-78893628D02*
X144646304Y-78893628D01*
X145646304Y-78369819D02*
X145646304Y-79179342D01*
X145646304Y-79179342D02*
X145693923Y-79274580D01*
X145693923Y-79274580D02*
X145741542Y-79322200D01*
X145741542Y-79322200D02*
X145836780Y-79369819D01*
X145836780Y-79369819D02*
X146027256Y-79369819D01*
X146027256Y-79369819D02*
X146122494Y-79322200D01*
X146122494Y-79322200D02*
X146170113Y-79274580D01*
X146170113Y-79274580D02*
X146217732Y-79179342D01*
X146217732Y-79179342D02*
X146217732Y-78369819D01*
X146693923Y-79369819D02*
X146693923Y-78369819D01*
X146693923Y-78369819D02*
X147265351Y-79369819D01*
X147265351Y-79369819D02*
X147265351Y-78369819D01*
X148265351Y-78417438D02*
X148170113Y-78369819D01*
X148170113Y-78369819D02*
X148027256Y-78369819D01*
X148027256Y-78369819D02*
X147884399Y-78417438D01*
X147884399Y-78417438D02*
X147789161Y-78512676D01*
X147789161Y-78512676D02*
X147741542Y-78607914D01*
X147741542Y-78607914D02*
X147693923Y-78798390D01*
X147693923Y-78798390D02*
X147693923Y-78941247D01*
X147693923Y-78941247D02*
X147741542Y-79131723D01*
X147741542Y-79131723D02*
X147789161Y-79226961D01*
X147789161Y-79226961D02*
X147884399Y-79322200D01*
X147884399Y-79322200D02*
X148027256Y-79369819D01*
X148027256Y-79369819D02*
X148122494Y-79369819D01*
X148122494Y-79369819D02*
X148265351Y-79322200D01*
X148265351Y-79322200D02*
X148312970Y-79274580D01*
X148312970Y-79274580D02*
X148312970Y-78941247D01*
X148312970Y-78941247D02*
X148122494Y-78941247D01*
X137908207Y-76869819D02*
X137574874Y-76393628D01*
X137336779Y-76869819D02*
X137336779Y-75869819D01*
X137336779Y-75869819D02*
X137717731Y-75869819D01*
X137717731Y-75869819D02*
X137812969Y-75917438D01*
X137812969Y-75917438D02*
X137860588Y-75965057D01*
X137860588Y-75965057D02*
X137908207Y-76060295D01*
X137908207Y-76060295D02*
X137908207Y-76203152D01*
X137908207Y-76203152D02*
X137860588Y-76298390D01*
X137860588Y-76298390D02*
X137812969Y-76346009D01*
X137812969Y-76346009D02*
X137717731Y-76393628D01*
X137717731Y-76393628D02*
X137336779Y-76393628D01*
X138336779Y-76346009D02*
X138670112Y-76346009D01*
X138812969Y-76869819D02*
X138336779Y-76869819D01*
X138336779Y-76869819D02*
X138336779Y-75869819D01*
X138336779Y-75869819D02*
X138812969Y-75869819D01*
X139193922Y-76584104D02*
X139670112Y-76584104D01*
X139098684Y-76869819D02*
X139432017Y-75869819D01*
X139432017Y-75869819D02*
X139765350Y-76869819D01*
X140670112Y-76774580D02*
X140622493Y-76822200D01*
X140622493Y-76822200D02*
X140479636Y-76869819D01*
X140479636Y-76869819D02*
X140384398Y-76869819D01*
X140384398Y-76869819D02*
X140241541Y-76822200D01*
X140241541Y-76822200D02*
X140146303Y-76726961D01*
X140146303Y-76726961D02*
X140098684Y-76631723D01*
X140098684Y-76631723D02*
X140051065Y-76441247D01*
X140051065Y-76441247D02*
X140051065Y-76298390D01*
X140051065Y-76298390D02*
X140098684Y-76107914D01*
X140098684Y-76107914D02*
X140146303Y-76012676D01*
X140146303Y-76012676D02*
X140241541Y-75917438D01*
X140241541Y-75917438D02*
X140384398Y-75869819D01*
X140384398Y-75869819D02*
X140479636Y-75869819D01*
X140479636Y-75869819D02*
X140622493Y-75917438D01*
X140622493Y-75917438D02*
X140670112Y-75965057D01*
X140955827Y-75869819D02*
X141527255Y-75869819D01*
X141241541Y-76869819D02*
X141241541Y-75869819D01*
X141860589Y-76869819D02*
X141860589Y-75869819D01*
X142193922Y-75869819D02*
X142527255Y-76869819D01*
X142527255Y-76869819D02*
X142860588Y-75869819D01*
X143193922Y-76346009D02*
X143527255Y-76346009D01*
X143670112Y-76869819D02*
X143193922Y-76869819D01*
X143193922Y-76869819D02*
X143193922Y-75869819D01*
X143193922Y-75869819D02*
X143670112Y-75869819D01*
X145336779Y-76869819D02*
X144860589Y-76869819D01*
X144860589Y-76869819D02*
X144860589Y-75869819D01*
X145670113Y-76346009D02*
X146003446Y-76346009D01*
X146146303Y-76869819D02*
X145670113Y-76869819D01*
X145670113Y-76869819D02*
X145670113Y-75869819D01*
X145670113Y-75869819D02*
X146146303Y-75869819D01*
X146574875Y-76869819D02*
X146574875Y-75869819D01*
X146574875Y-75869819D02*
X146812970Y-75869819D01*
X146812970Y-75869819D02*
X146955827Y-75917438D01*
X146955827Y-75917438D02*
X147051065Y-76012676D01*
X147051065Y-76012676D02*
X147098684Y-76107914D01*
X147098684Y-76107914D02*
X147146303Y-76298390D01*
X147146303Y-76298390D02*
X147146303Y-76441247D01*
X147146303Y-76441247D02*
X147098684Y-76631723D01*
X147098684Y-76631723D02*
X147051065Y-76726961D01*
X147051065Y-76726961D02*
X146955827Y-76822200D01*
X146955827Y-76822200D02*
X146812970Y-76869819D01*
X146812970Y-76869819D02*
X146574875Y-76869819D01*
X148289161Y-76822200D02*
X148432018Y-76869819D01*
X148432018Y-76869819D02*
X148670113Y-76869819D01*
X148670113Y-76869819D02*
X148765351Y-76822200D01*
X148765351Y-76822200D02*
X148812970Y-76774580D01*
X148812970Y-76774580D02*
X148860589Y-76679342D01*
X148860589Y-76679342D02*
X148860589Y-76584104D01*
X148860589Y-76584104D02*
X148812970Y-76488866D01*
X148812970Y-76488866D02*
X148765351Y-76441247D01*
X148765351Y-76441247D02*
X148670113Y-76393628D01*
X148670113Y-76393628D02*
X148479637Y-76346009D01*
X148479637Y-76346009D02*
X148384399Y-76298390D01*
X148384399Y-76298390D02*
X148336780Y-76250771D01*
X148336780Y-76250771D02*
X148289161Y-76155533D01*
X148289161Y-76155533D02*
X148289161Y-76060295D01*
X148289161Y-76060295D02*
X148336780Y-75965057D01*
X148336780Y-75965057D02*
X148384399Y-75917438D01*
X148384399Y-75917438D02*
X148479637Y-75869819D01*
X148479637Y-75869819D02*
X148717732Y-75869819D01*
X148717732Y-75869819D02*
X148860589Y-75917438D01*
X149479637Y-76393628D02*
X149479637Y-76869819D01*
X149146304Y-75869819D02*
X149479637Y-76393628D01*
X149479637Y-76393628D02*
X149812970Y-75869819D01*
X150098685Y-76822200D02*
X150241542Y-76869819D01*
X150241542Y-76869819D02*
X150479637Y-76869819D01*
X150479637Y-76869819D02*
X150574875Y-76822200D01*
X150574875Y-76822200D02*
X150622494Y-76774580D01*
X150622494Y-76774580D02*
X150670113Y-76679342D01*
X150670113Y-76679342D02*
X150670113Y-76584104D01*
X150670113Y-76584104D02*
X150622494Y-76488866D01*
X150622494Y-76488866D02*
X150574875Y-76441247D01*
X150574875Y-76441247D02*
X150479637Y-76393628D01*
X150479637Y-76393628D02*
X150289161Y-76346009D01*
X150289161Y-76346009D02*
X150193923Y-76298390D01*
X150193923Y-76298390D02*
X150146304Y-76250771D01*
X150146304Y-76250771D02*
X150098685Y-76155533D01*
X150098685Y-76155533D02*
X150098685Y-76060295D01*
X150098685Y-76060295D02*
X150146304Y-75965057D01*
X150146304Y-75965057D02*
X150193923Y-75917438D01*
X150193923Y-75917438D02*
X150289161Y-75869819D01*
X150289161Y-75869819D02*
X150527256Y-75869819D01*
X150527256Y-75869819D02*
X150670113Y-75917438D01*
X150955828Y-75869819D02*
X151527256Y-75869819D01*
X151241542Y-76869819D02*
X151241542Y-75869819D01*
X151860590Y-76346009D02*
X152193923Y-76346009D01*
X152336780Y-76869819D02*
X151860590Y-76869819D01*
X151860590Y-76869819D02*
X151860590Y-75869819D01*
X151860590Y-75869819D02*
X152336780Y-75869819D01*
X152765352Y-76869819D02*
X152765352Y-75869819D01*
X152765352Y-75869819D02*
X153098685Y-76584104D01*
X153098685Y-76584104D02*
X153432018Y-75869819D01*
X153432018Y-75869819D02*
X153432018Y-76869819D01*
X155003447Y-76346009D02*
X155146304Y-76393628D01*
X155146304Y-76393628D02*
X155193923Y-76441247D01*
X155193923Y-76441247D02*
X155241542Y-76536485D01*
X155241542Y-76536485D02*
X155241542Y-76679342D01*
X155241542Y-76679342D02*
X155193923Y-76774580D01*
X155193923Y-76774580D02*
X155146304Y-76822200D01*
X155146304Y-76822200D02*
X155051066Y-76869819D01*
X155051066Y-76869819D02*
X154670114Y-76869819D01*
X154670114Y-76869819D02*
X154670114Y-75869819D01*
X154670114Y-75869819D02*
X155003447Y-75869819D01*
X155003447Y-75869819D02*
X155098685Y-75917438D01*
X155098685Y-75917438D02*
X155146304Y-75965057D01*
X155146304Y-75965057D02*
X155193923Y-76060295D01*
X155193923Y-76060295D02*
X155193923Y-76155533D01*
X155193923Y-76155533D02*
X155146304Y-76250771D01*
X155146304Y-76250771D02*
X155098685Y-76298390D01*
X155098685Y-76298390D02*
X155003447Y-76346009D01*
X155003447Y-76346009D02*
X154670114Y-76346009D01*
X155860590Y-76393628D02*
X155860590Y-76869819D01*
X155527257Y-75869819D02*
X155860590Y-76393628D01*
X155860590Y-76393628D02*
X156193923Y-75869819D01*
M02*
